<?xml version="1.0" encoding="utf-8"?>
<!-- Generator: Adobe Illustrator 19.0.0, SVG Export Plug-In . SVG Version: 6.00 Build 0)  -->
<svg version="1.1" baseProfile="basic" id="Слой_1"
	 xmlns="http://www.w3.org/2000/svg" xmlns:xlink="http://www.w3.org/1999/xlink" x="0px" y="0px" viewBox="0 0 1190.6 1683.8"
	 xml:space="preserve">
<style type="text/css">
	.st0{fill:#F7F7F7;}
	.st1{fill:#FFFFFF;}
	.st2{fill:#E8E8E8;}
	.st3{fill:#F0F0F0;}
	.st4{fill:#D9D9D9;}
	.st5{fill:#E0E0E0;}
	.st6{fill:#D1D1D1;}
</style>
<g>
	<g>
		<polygon id="XMLID_616_" class="st0" points="1148,420.9 1190.6,420.9 1190.6,336.8 1190.5,336.8 		"/>
		<polygon id="XMLID_615_" class="st1" points="1063,420.9 1148,420.9 1105.5,336.7 1105.5,336.8 1105.5,336.8 		"/>
		<polygon id="XMLID_614_" class="st0" points="1020.5,336.8 978,420.9 1063,420.9 1020.5,336.8 1020.5,336.8 		"/>
		<polygon id="XMLID_613_" class="st0" points="935.4,336.8 935.4,336.8 935.4,336.7 892.9,420.9 977.9,420.9 		"/>
		<polygon id="XMLID_612_" class="st0" points="850.4,336.8 850.4,336.8 850.4,336.8 807.9,420.9 892.9,420.9 		"/>
		<polygon id="XMLID_611_" class="st1" points="765.4,336.8 765.4,336.8 765.4,336.7 722.8,420.9 807.9,420.9 		"/>
		<polygon id="XMLID_610_" class="st2" points="637.8,420.9 722.8,420.9 680.3,336.8 680.3,336.8 680.3,336.8 		"/>
		<polygon id="XMLID_609_" class="st1" points="1190.5,336.7 1148,252.6 1105.5,336.7 		"/>
		<polygon id="XMLID_608_" class="st0" points="1105.5,336.7 1063,252.6 1020.5,336.7 		"/>
		<polygon id="XMLID_607_" class="st1" points="1020.5,336.7 977.9,252.6 935.4,336.7 		"/>
		<polygon id="XMLID_606_" class="st0" points="935.4,336.7 892.9,252.6 850.4,336.7 		"/>
		<polygon id="XMLID_605_" class="st1" points="850.4,336.7 807.9,252.6 765.4,336.7 		"/>
		<polygon id="XMLID_604_" class="st0" points="765.3,336.7 722.8,252.6 680.3,336.7 		"/>
		<polygon id="XMLID_603_" class="st0" points="637.8,252.6 595.3,336.7 680.3,336.7 		"/>
		<polygon id="XMLID_602_" class="st1" points="1148,252.6 1190.5,336.7 1190.6,336.7 1190.6,252.6 		"/>
		<polygon id="XMLID_601_" class="st0" points="1105.5,336.7 1105.5,336.7 1105.5,336.8 1105.5,336.7 1148,252.6 1063,252.6 
			1105.5,336.7 1105.5,336.7 		"/>
		<polygon id="XMLID_600_" class="st1" points="1020.5,336.7 1063,252.6 978,252.6 1020.5,336.7 1020.5,336.7 		"/>
		<polygon id="XMLID_599_" class="st0" points="935.4,336.8 935.4,336.7 935.4,336.7 935.4,336.7 977.9,252.6 892.9,252.6 
			935.4,336.7 		"/>
		<polygon id="XMLID_598_" class="st1" points="850.4,336.7 892.9,252.6 807.9,252.6 850.4,336.7 850.4,336.7 		"/>
		<polygon id="XMLID_597_" class="st1" points="765.4,336.8 765.4,336.7 765.4,336.7 765.4,336.7 807.9,252.6 722.8,252.6 
			765.4,336.7 		"/>
		<polygon id="XMLID_596_" class="st3" points="680.3,336.7 680.3,336.7 722.8,252.6 637.8,252.6 680.3,336.7 		"/>
		<polygon id="XMLID_595_" class="st1" points="1190.5,336.7 1105.5,336.7 1105.5,336.7 1105.5,336.7 1105.5,336.8 1148,420.9 
			1148,420.9 1148,420.9 1190.5,336.8 1190.5,336.7 1190.5,336.7 1190.6,336.7 1190.5,336.7 		"/>
		<polygon id="XMLID_594_" class="st1" points="1020.5,336.7 1020.5,336.7 1020.5,336.8 1063,420.9 1063,420.9 1063,420.9 
			1105.5,336.8 1105.5,336.7 1105.5,336.7 1105.5,336.7 1105.5,336.7 1105.5,336.7 1020.5,336.7 		"/>
		<polygon id="XMLID_593_" class="st1" points="935.4,336.7 935.4,336.7 935.4,336.8 977.9,420.9 977.9,420.9 977.9,420.9 
			1020.5,336.8 1020.5,336.7 1020.5,336.7 1020.5,336.7 1020.5,336.7 1020.5,336.7 935.4,336.7 		"/>
		<polygon id="XMLID_592_" class="st1" points="850.4,336.8 892.9,420.9 892.9,420.9 892.9,420.9 935.4,336.8 935.4,336.7 
			935.4,336.7 935.4,336.7 850.4,336.7 850.4,336.7 850.4,336.7 		"/>
		<polygon id="XMLID_591_" class="st0" points="765.4,336.7 765.4,336.7 765.4,336.8 807.9,420.9 807.9,420.9 807.9,420.9 
			850.4,336.8 850.4,336.7 850.4,336.7 850.4,336.7 850.4,336.7 850.4,336.7 765.4,336.7 		"/>
		<polygon id="XMLID_590_" class="st0" points="680.3,336.8 722.8,420.9 722.8,420.9 722.8,420.9 765.3,336.8 765.3,336.7 
			765.3,336.7 765.3,336.7 680.3,336.7 680.3,336.7 680.3,336.7 		"/>
		<polygon id="XMLID_589_" class="st3" points="595.3,336.7 595.3,336.8 637.8,420.9 637.8,420.9 637.8,420.9 637.8,420.9 
			680.3,336.8 680.3,336.7 680.3,336.7 680.3,336.7 680.3,336.7 680.3,336.7 595.3,336.7 595.3,336.7 		"/>
		<polygon id="XMLID_588_" class="st0" points="1148,420.9 1148,420.9 1148,420.9 1190.5,505.1 1190.6,505.1 1190.6,420.9 
			1190.6,420.9 1148,420.9 		"/>
		<polygon id="XMLID_587_" class="st0" points="1063,420.9 1063,420.9 1063,420.9 1063,420.9 1105.5,505.1 1105.5,505.1 
			1105.5,505.1 1148,420.9 1148,420.9 1148,420.9 1148,420.9 1148,420.9 1148,420.9 		"/>
		<polygon id="XMLID_586_" class="st1" points="978,420.9 978,420.9 978,420.9 1020.5,505.1 1020.5,505.1 1020.5,505.1 1063,420.9 
			1063,420.9 978,420.9 		"/>
		<polygon id="XMLID_585_" class="st0" points="892.9,420.9 892.9,420.9 892.9,420.9 935.4,505.1 935.4,505.1 935.4,505.1 
			977.9,420.9 977.9,420.9 892.9,420.9 892.9,420.9 892.9,420.9 		"/>
		<polygon id="XMLID_584_" class="st0" points="850.4,505.1 892.9,420.9 892.9,420.9 807.9,420.9 807.9,420.9 807.9,420.9 
			807.9,420.9 850.4,505.1 850.4,505.1 		"/>
		<polygon id="XMLID_583_" class="st1" points="722.8,420.9 722.8,420.9 722.8,420.9 765.4,505.1 765.4,505.1 765.4,505.1 
			807.9,420.9 807.9,420.9 722.8,420.9 722.8,420.9 722.8,420.9 		"/>
		<polygon id="XMLID_582_" class="st2" points="637.8,420.9 637.8,420.9 637.8,420.9 680.3,505.1 680.3,505.1 680.3,505.1 
			722.8,420.9 722.8,420.9 637.8,420.9 		"/>
		<polygon id="XMLID_581_" class="st0" points="1190.5,505.1 1105.5,505.1 1148,589.3 		"/>
		<polygon id="XMLID_580_" class="st0" points="1105.5,505.1 1020.5,505.1 1063,589.3 		"/>
		<polygon id="XMLID_579_" class="st3" points="1020.5,505.1 935.4,505.1 977.9,589.3 		"/>
		<polygon id="XMLID_578_" class="st2" points="850.4,505.1 892.9,589.3 935.4,505.1 		"/>
		<polygon id="XMLID_577_" class="st4" points="850.4,505.1 765.4,505.1 807.9,589.3 		"/>
		<polygon id="XMLID_576_" class="st2" points="765.3,505.1 680.3,505.1 722.8,589.3 		"/>
		<polygon id="XMLID_575_" class="st4" points="595.3,505.1 637.8,589.3 680.3,505.1 		"/>
		<polygon id="XMLID_574_" class="st2" points="1190.5,673.5 1190.6,673.5 1190.6,589.3 1148,589.3 		"/>
		<polygon id="XMLID_573_" class="st2" points="1105.5,673.5 1105.5,673.5 1105.5,673.5 1148,589.3 1063,589.3 		"/>
		<polygon id="XMLID_572_" class="st5" points="1020.5,673.5 1020.5,673.5 1020.5,673.5 1063,589.3 978,589.3 		"/>
		<polygon id="XMLID_571_" class="st4" points="935.4,673.5 935.4,673.5 977.9,589.3 892.9,589.3 935.4,673.5 		"/>
		<polygon id="XMLID_570_" class="st2" points="850.4,673.5 892.9,589.3 807.9,589.3 850.4,673.5 850.4,673.5 		"/>
		<polygon id="XMLID_569_" class="st2" points="765.4,673.5 765.4,673.5 807.9,589.3 722.8,589.3 765.4,673.5 		"/>
		<polygon id="XMLID_568_" class="st3" points="680.3,673.5 680.3,673.5 722.8,589.3 637.8,589.3 680.3,673.5 		"/>
		<polygon id="XMLID_567_" class="st6" points="1190.5,673.5 1105.5,673.5 1148,757.7 		"/>
		<polygon id="XMLID_566_" class="st3" points="1105.5,673.5 1020.5,673.5 1063,757.7 		"/>
		<polygon id="XMLID_565_" class="st4" points="1020.5,673.5 935.4,673.5 977.9,757.7 		"/>
		<polygon id="XMLID_564_" class="st6" points="935.4,673.5 850.4,673.5 892.9,757.7 		"/>
		<polygon id="XMLID_563_" class="st4" points="765.4,673.5 807.9,757.7 850.4,673.5 		"/>
		<polygon id="XMLID_562_" class="st6" points="765.3,673.5 680.3,673.5 722.8,757.7 		"/>
		<polygon id="XMLID_561_" class="st4" points="680.3,673.5 595.3,673.5 637.8,757.7 		"/>
		<polygon id="XMLID_560_" class="st6" points="1190.5,841.9 1190.6,841.9 1190.6,757.7 1148,757.7 		"/>
		<polygon id="XMLID_559_" class="st4" points="1105.5,841.9 1105.5,841.9 1105.5,841.9 1148,757.7 1063,757.7 		"/>
		<polygon id="XMLID_558_" class="st5" points="1020.5,841.9 1020.5,841.9 1020.5,841.9 1063,757.7 978,757.7 		"/>
		<polygon id="XMLID_557_" class="st6" points="935.4,841.9 935.4,841.9 935.4,841.9 977.9,757.7 892.9,757.7 		"/>
		<polygon id="XMLID_556_" class="st4" points="850.4,841.9 850.4,841.9 850.4,841.9 892.9,757.7 807.9,757.7 		"/>
		<polygon id="XMLID_555_" class="st4" points="765.4,841.9 765.4,841.9 765.4,841.9 807.9,757.7 722.8,757.7 		"/>
		<polygon id="XMLID_554_" class="st6" points="680.3,841.9 680.3,841.9 680.3,841.9 722.8,757.7 637.8,757.7 		"/>
		<polygon id="XMLID_553_" class="st6" points="1190.5,841.9 1190.5,841.9 1148,757.7 1105.5,841.9 1105.5,841.9 1105.5,841.9 
			1105.5,841.9 1190.5,841.9 1190.5,841.9 1190.6,841.9 1190.5,841.9 		"/>
		<polygon id="XMLID_552_" class="st5" points="1105.5,841.9 1063,757.7 1020.5,841.9 1020.5,841.9 1020.5,841.9 1020.5,841.9 
			1105.5,841.9 1105.5,841.9 1105.5,841.9 1105.5,841.9 1105.5,841.9 		"/>
		<polygon id="XMLID_551_" class="st6" points="1020.5,841.9 1020.5,841.9 977.9,757.7 935.4,841.9 935.4,841.9 935.4,841.9 
			935.4,841.9 1020.5,841.9 1020.5,841.9 1020.5,841.9 1020.5,841.9 		"/>
		<polygon id="XMLID_550_" class="st6" points="935.4,841.9 935.4,841.9 935.4,841.9 892.9,757.7 850.4,841.9 850.4,841.9 
			850.4,841.9 850.4,841.9 935.4,841.9 		"/>
		<polygon id="XMLID_549_" class="st6" points="850.4,841.9 850.4,841.9 850.4,841.9 807.9,757.7 765.4,841.9 765.4,841.9 
			765.4,841.9 765.4,841.9 850.4,841.9 850.4,841.9 850.4,841.9 		"/>
		<polygon id="XMLID_548_" class="st6" points="680.3,841.9 680.3,841.9 680.3,841.9 765.3,841.9 765.3,841.9 765.3,841.9 
			765.3,841.9 722.8,757.7 680.3,841.9 		"/>
		<polygon id="XMLID_547_" class="st4" points="680.3,841.9 680.3,841.9 680.3,841.9 680.3,841.9 680.3,841.9 637.8,757.7 
			637.8,757.7 595.3,841.9 595.3,841.9 595.3,841.9 595.3,841.9 680.3,841.9 		"/>
		<polygon id="XMLID_546_" class="st6" points="1148,757.7 1190.6,757.7 1190.6,673.5 1190.5,673.5 		"/>
		<polygon id="XMLID_545_" class="st4" points="1105.5,673.5 1105.5,673.5 1105.5,673.5 1105.5,673.5 1105.5,673.5 1063,757.7 
			1148,757.7 1105.5,673.5 		"/>
		<polygon id="XMLID_544_" class="st5" points="978,757.7 1063,757.7 1020.5,673.5 1020.5,673.5 1020.5,673.5 		"/>
		<polygon id="XMLID_543_" class="st6" points="935.4,673.5 892.9,757.7 977.9,757.7 935.4,673.5 935.4,673.5 935.4,673.5 
			935.4,673.5 		"/>
		<polygon id="XMLID_542_" class="st4" points="892.9,757.7 850.4,673.5 850.4,673.5 850.4,673.5 807.9,757.7 		"/>
		<polygon id="XMLID_541_" class="st2" points="765.4,673.5 765.4,673.5 765.4,673.5 765.4,673.5 722.8,757.7 807.9,757.7 
			765.4,673.5 		"/>
		<polygon id="XMLID_540_" class="st6" points="722.8,757.7 680.3,673.5 680.3,673.5 680.3,673.5 637.8,757.7 		"/>
		<polygon id="XMLID_539_" class="st2" points="1190.5,673.5 1190.5,673.5 1148,589.3 1105.5,673.5 1105.5,673.5 1105.5,673.5 
			1105.5,673.5 1190.5,673.5 1190.5,673.5 1190.6,673.5 1190.5,673.5 		"/>
		<polygon id="XMLID_538_" class="st3" points="1105.5,673.5 1063,589.3 1020.5,673.5 1020.5,673.5 1020.5,673.5 1020.5,673.5 
			1105.5,673.5 1105.5,673.5 1105.5,673.5 1105.5,673.5 1105.5,673.5 		"/>
		<polygon id="XMLID_537_" class="st4" points="1020.5,673.5 1020.5,673.5 977.9,589.3 935.4,673.5 935.4,673.5 935.4,673.5 
			935.4,673.5 1020.5,673.5 1020.5,673.5 1020.5,673.5 1020.5,673.5 		"/>
		<polygon id="XMLID_536_" class="st2" points="850.4,673.5 850.4,673.5 850.4,673.5 935.4,673.5 935.4,673.5 935.4,673.5 
			935.4,673.5 892.9,589.3 850.4,673.5 		"/>
		<polygon id="XMLID_535_" class="st5" points="765.4,673.5 765.4,673.5 765.4,673.5 850.4,673.5 850.4,673.5 850.4,673.5 
			850.4,673.5 850.4,673.5 850.4,673.5 807.9,589.3 765.4,673.5 		"/>
		<polygon id="XMLID_534_" class="st2" points="680.3,673.5 680.3,673.5 680.3,673.5 765.3,673.5 765.3,673.5 765.3,673.5 
			765.3,673.5 722.8,589.3 680.3,673.5 		"/>
		<polygon id="XMLID_533_" class="st4" points="595.3,673.5 595.3,673.5 595.3,673.5 680.3,673.5 680.3,673.5 680.3,673.5 
			680.3,673.5 680.3,673.5 680.3,673.5 637.8,589.3 637.8,589.3 595.3,673.5 		"/>
		<polygon id="XMLID_532_" class="st2" points="1148,589.3 1190.6,589.3 1190.6,505.1 1190.5,505.1 		"/>
		<polygon id="XMLID_531_" class="st0" points="1105.5,505.1 1105.5,505.1 1105.5,505.1 1105.5,505.1 1105.5,505.1 1063,589.3 
			1148,589.3 1105.5,505.1 		"/>
		<polygon id="XMLID_530_" class="st3" points="1063,589.3 1020.5,505.1 1020.5,505.1 1020.5,505.1 978,589.3 		"/>
		<polygon id="XMLID_529_" class="st0" points="977.9,589.3 935.4,505.1 935.4,505.1 935.4,505.1 935.4,505.1 935.4,505.1 
			892.9,589.3 		"/>
		<polygon id="XMLID_528_" class="st2" points="892.9,589.3 850.4,505.1 850.4,505.1 850.4,505.1 807.9,589.3 		"/>
		<polygon id="XMLID_527_" class="st4" points="807.9,589.3 765.4,505.1 765.4,505.1 765.4,505.1 765.4,505.1 765.4,505.1 
			722.8,589.3 		"/>
		<polygon id="XMLID_526_" class="st3" points="680.3,505.1 680.3,505.1 680.3,505.1 637.8,589.3 722.8,589.3 		"/>
		<polygon id="XMLID_525_" class="st3" points="1190.5,505.1 1190.5,505.1 1148,420.9 1148,420.9 1148,420.9 1148,420.9 1148,420.9 
			1105.5,505.1 1105.5,505.1 1105.5,505.1 1105.5,505.1 1190.5,505.1 1190.5,505.1 1190.6,505.1 1190.5,505.1 		"/>
		<polygon id="XMLID_524_" class="st3" points="1020.5,505.1 1020.5,505.1 1020.5,505.1 1020.5,505.1 1105.5,505.1 1105.5,505.1 
			1105.5,505.1 1105.5,505.1 1105.5,505.1 1105.5,505.1 1063,420.9 1063,420.9 		"/>
		<polygon id="XMLID_523_" class="st3" points="935.4,505.1 935.4,505.1 935.4,505.1 935.4,505.1 1020.5,505.1 1020.5,505.1 
			1020.5,505.1 1020.5,505.1 1020.5,505.1 1020.5,505.1 977.9,420.9 977.9,420.9 		"/>
		<polygon id="XMLID_522_" class="st2" points="935.4,505.1 935.4,505.1 935.4,505.1 935.4,505.1 892.9,420.9 892.9,420.9 
			892.9,420.9 892.9,420.9 850.4,505.1 850.4,505.1 850.4,505.1 850.4,505.1 		"/>
		<polygon id="XMLID_521_" class="st0" points="765.4,505.1 765.4,505.1 765.4,505.1 765.4,505.1 850.4,505.1 850.4,505.1 
			850.4,505.1 850.4,505.1 850.4,505.1 850.4,505.1 807.9,420.9 807.9,420.9 		"/>
		<polygon id="XMLID_520_" class="st3" points="680.3,505.1 680.3,505.1 680.3,505.1 680.3,505.1 765.3,505.1 765.3,505.1 
			765.3,505.1 765.3,505.1 722.8,420.9 722.8,420.9 722.8,420.9 722.8,420.9 		"/>
		<polygon id="XMLID_519_" class="st2" points="595.3,505.1 680.3,505.1 680.3,505.1 680.3,505.1 680.3,505.1 680.3,505.1 
			680.3,505.1 637.8,420.9 637.8,420.9 595.3,505.1 595.3,505.1 595.3,505.1 		"/>
		<polygon id="XMLID_518_" class="st0" points="595.3,252.6 595.3,336.7 637.8,252.6 637.8,252.6 		"/>
		<polygon id="XMLID_517_" class="st1" points="595.3,336.8 595.3,420.9 637.8,420.9 		"/>
		<polygon id="XMLID_516_" class="st0" points="1148,252.6 1190.6,252.6 1190.6,168.4 1190.5,168.4 		"/>
		<polygon id="XMLID_515_" class="st1" points="1063,252.6 1148,252.6 1105.5,168.4 1105.5,168.4 1105.5,168.4 		"/>
		<polygon id="XMLID_514_" class="st0" points="1020.5,168.4 978,252.6 1063,252.6 1020.5,168.4 1020.5,168.4 		"/>
		<polygon id="XMLID_513_" class="st0" points="935.4,168.4 935.4,168.4 935.4,168.4 892.9,252.6 977.9,252.6 		"/>
		<polygon id="XMLID_512_" class="st0" points="850.4,168.4 850.4,168.4 850.4,168.4 807.9,252.6 892.9,252.6 		"/>
		<polygon id="XMLID_511_" class="st1" points="765.4,168.4 765.4,168.4 765.4,168.4 722.8,252.6 807.9,252.6 		"/>
		<polygon id="XMLID_510_" class="st0" points="637.8,252.6 722.8,252.6 680.3,168.4 680.3,168.4 680.3,168.4 		"/>
		<polygon id="XMLID_509_" class="st1" points="1190.5,168.4 1148,84.2 1105.5,168.4 		"/>
		<polygon id="XMLID_508_" class="st0" points="1105.5,168.4 1063,84.2 1020.5,168.4 		"/>
		<polygon id="XMLID_507_" class="st1" points="1020.5,168.4 977.9,84.2 935.4,168.4 		"/>
		<polygon id="XMLID_506_" class="st1" points="935.4,168.4 892.9,84.2 850.4,168.4 		"/>
		<polygon id="XMLID_505_" class="st1" points="850.4,168.4 807.9,84.2 765.4,168.4 		"/>
		<polygon id="XMLID_504_" class="st0" points="765.3,168.4 722.8,84.2 680.3,168.4 		"/>
		<polygon id="XMLID_503_" class="st0" points="637.8,84.2 595.3,168.4 680.3,168.4 		"/>
		<polygon id="XMLID_502_" class="st1" points="1148,84.2 1190.5,168.4 1190.6,168.4 1190.6,84.2 		"/>
		<polygon id="XMLID_501_" class="st0" points="1105.5,168.4 1105.5,168.4 1105.5,168.4 1105.5,168.4 1148,84.2 1063,84.2 
			1105.5,168.4 1105.5,168.4 		"/>
		<polygon id="XMLID_500_" class="st1" points="1020.5,168.4 1063,84.2 978,84.2 1020.5,168.4 1020.5,168.4 		"/>
		<polygon id="XMLID_499_" class="st0" points="935.4,168.4 935.4,168.4 935.4,168.4 935.4,168.4 977.9,84.2 892.9,84.2 
			935.4,168.4 		"/>
		<polygon id="XMLID_498_" class="st1" points="850.4,168.4 892.9,84.2 807.9,84.2 850.4,168.4 850.4,168.4 		"/>
		<polygon id="XMLID_497_" class="st1" points="765.4,168.4 765.4,168.4 765.4,168.4 765.4,168.4 807.9,84.2 722.8,84.2 
			765.4,168.4 		"/>
		<polygon id="XMLID_496_" class="st1" points="680.3,168.4 680.3,168.4 722.8,84.2 637.8,84.2 680.3,168.4 		"/>
		<polygon id="XMLID_495_" class="st1" points="1190.5,168.4 1105.5,168.4 1105.5,168.4 1105.5,168.4 1105.5,168.4 1148,252.6 
			1148,252.6 1148,252.6 1190.5,168.4 1190.5,168.4 1190.5,168.4 1190.6,168.4 1190.5,168.4 		"/>
		<polygon id="XMLID_494_" class="st1" points="1020.5,168.4 1020.5,168.4 1020.5,168.4 1063,252.6 1063,252.6 1063,252.6 
			1105.5,168.4 1105.5,168.4 1105.5,168.4 1105.5,168.4 1105.5,168.4 1105.5,168.4 1020.5,168.4 		"/>
		<polygon id="XMLID_493_" class="st1" points="935.4,168.4 935.4,168.4 935.4,168.4 977.9,252.6 977.9,252.6 977.9,252.6 
			1020.5,168.4 1020.5,168.4 1020.5,168.4 1020.5,168.4 1020.5,168.4 1020.5,168.4 935.4,168.4 		"/>
		<polygon id="XMLID_492_" class="st1" points="850.4,168.4 892.9,252.6 892.9,252.6 892.9,252.6 935.4,168.4 935.4,168.4 
			935.4,168.4 935.4,168.4 850.4,168.4 850.4,168.4 850.4,168.4 		"/>
		<polygon id="XMLID_491_" class="st0" points="765.4,168.4 765.4,168.4 765.4,168.4 807.9,252.6 807.9,252.6 807.9,252.6 
			850.4,168.4 850.4,168.4 850.4,168.4 850.4,168.4 850.4,168.4 850.4,168.4 765.4,168.4 		"/>
		<polygon id="XMLID_490_" class="st0" points="680.3,168.4 722.8,252.6 722.8,252.6 722.8,252.6 765.3,168.4 765.3,168.4 
			765.3,168.4 765.3,168.4 680.3,168.4 680.3,168.4 680.3,168.4 		"/>
		<polygon id="XMLID_489_" class="st3" points="595.3,168.4 595.3,168.4 637.8,252.6 637.8,252.6 637.8,252.6 637.8,252.6 
			680.3,168.4 680.3,168.4 680.3,168.4 680.3,168.4 680.3,168.4 680.3,168.4 595.3,168.4 595.3,168.4 		"/>
		<polygon id="XMLID_488_" class="st0" points="595.3,84.2 595.3,168.4 637.8,84.2 637.8,84.2 		"/>
		<polygon id="XMLID_487_" class="st1" points="595.3,168.4 595.3,252.6 637.8,252.6 		"/>
		<polygon id="XMLID_486_" class="st0" points="1148,84.2 1190.6,84.2 1190.6,0 1190.5,0 		"/>
		<polygon id="XMLID_485_" class="st1" points="1063,84.2 1148,84.2 1105.5,0 1105.5,0 1105.5,0 		"/>
		<polygon id="XMLID_484_" class="st0" points="1020.5,0 978,84.2 1063,84.2 1020.5,0 1020.5,0 		"/>
		<polygon id="XMLID_483_" class="st1" points="935.4,0 935.4,0 935.4,0 892.9,84.2 977.9,84.2 		"/>
		<polygon id="XMLID_482_" class="st0" points="850.4,0 850.4,0 850.4,0 807.9,84.2 892.9,84.2 		"/>
		<polygon id="XMLID_481_" class="st1" points="765.4,0 765.4,0 765.4,0 722.8,84.2 807.9,84.2 		"/>
		<polygon id="XMLID_480_" class="st1" points="637.8,84.2 722.8,84.2 680.3,0 680.3,0 680.3,0 		"/>
		<polygon id="XMLID_479_" class="st1" points="1190.5,0 1105.5,0 1105.5,0 1105.5,0 1105.5,0 1148,84.2 1148,84.2 1148,84.2 
			1190.5,0 1190.5,0 1190.5,0 1190.6,0 1190.5,0 		"/>
		<polygon id="XMLID_478_" class="st1" points="1020.5,0 1020.5,0 1020.5,0 1063,84.2 1063,84.2 1063,84.2 1105.5,0 1105.5,0 
			1105.5,0 1105.5,0 1105.5,0 1105.5,0 1020.5,0 		"/>
		<polygon id="XMLID_477_" class="st1" points="935.4,0 935.4,0 935.4,0 977.9,84.2 977.9,84.2 977.9,84.2 1020.5,0 1020.5,0 
			1020.5,0 1020.5,0 1020.5,0 1020.5,0 935.4,0 		"/>
		<polygon id="XMLID_476_" class="st1" points="850.4,0 892.9,84.2 892.9,84.2 892.9,84.2 935.4,0 935.4,0 935.4,0 935.4,0 850.4,0 
			850.4,0 850.4,0 		"/>
		<polygon id="XMLID_475_" class="st0" points="765.4,0 765.4,0 765.4,0 807.9,84.2 807.9,84.2 807.9,84.2 850.4,0 850.4,0 850.4,0 
			850.4,0 850.4,0 850.4,0 765.4,0 		"/>
		<polygon id="XMLID_474_" class="st0" points="680.3,0 722.8,84.2 722.8,84.2 722.8,84.2 765.3,0 765.3,0 765.3,0 765.3,0 680.3,0 
			680.3,0 680.3,0 		"/>
		<polygon id="XMLID_473_" class="st0" points="595.3,0 595.3,0 637.8,84.2 637.8,84.2 637.8,84.2 637.8,84.2 680.3,0 680.3,0 
			680.3,0 680.3,0 680.3,0 680.3,0 595.3,0 595.3,0 		"/>
		<polygon id="XMLID_472_" class="st0" points="595.3,0 595.3,84.2 637.8,84.2 		"/>
		<polygon id="XMLID_471_" class="st1" points="637.8,420.9 595.3,420.9 595.3,505.1 637.8,420.9 		"/>
		<polygon id="XMLID_470_" class="st3" points="637.8,589.3 595.3,505.1 595.3,589.3 637.8,589.3 637.8,589.3 		"/>
		<polygon id="XMLID_469_" class="st4" points="595.3,589.3 595.3,673.5 637.8,589.3 		"/>
		<polygon id="XMLID_468_" class="st4" points="637.8,757.7 595.3,673.5 595.3,757.7 637.8,757.7 637.8,757.7 		"/>
		<polygon id="XMLID_467_" class="st4" points="595.3,757.7 595.3,841.9 637.8,757.7 		"/>
	</g>
	<g>
		<polygon id="XMLID_466_" class="st0" points="42.5,420.9 0,420.9 0,336.8 0,336.8 		"/>
		<polygon id="XMLID_465_" class="st1" points="127.6,420.9 42.5,420.9 85,336.7 85,336.8 85,336.8 		"/>
		<polygon id="XMLID_464_" class="st0" points="170.1,336.8 212.6,420.9 127.6,420.9 170.1,336.8 170.1,336.8 		"/>
		<polygon id="XMLID_463_" class="st0" points="255.1,336.8 255.1,336.8 255.1,336.7 297.6,420.9 212.6,420.9 		"/>
		<polygon id="XMLID_462_" class="st0" points="340.2,336.8 340.2,336.8 340.2,336.8 382.7,420.9 297.6,420.9 		"/>
		<polygon id="XMLID_461_" class="st1" points="425.2,336.8 425.2,336.8 425.2,336.7 467.7,420.9 382.7,420.9 		"/>
		<polygon id="XMLID_460_" class="st2" points="552.7,420.9 467.7,420.9 510.2,336.8 510.2,336.8 510.2,336.8 		"/>
		<polygon id="XMLID_459_" class="st1" points="0,336.7 42.5,252.6 85,336.7 		"/>
		<polygon id="XMLID_458_" class="st0" points="85,336.7 127.6,252.6 170.1,336.7 		"/>
		<polygon id="XMLID_457_" class="st1" points="170.1,336.7 212.6,252.6 255.1,336.7 		"/>
		<polygon id="XMLID_456_" class="st0" points="255.1,336.7 297.6,252.6 340.2,336.7 		"/>
		<polygon id="XMLID_455_" class="st1" points="340.2,336.7 382.7,252.6 425.2,336.7 		"/>
		<polygon id="XMLID_454_" class="st0" points="425.2,336.7 467.7,252.6 510.2,336.7 		"/>
		<polygon id="XMLID_453_" class="st0" points="552.8,252.6 595.3,336.7 510.2,336.7 		"/>
		<polygon id="XMLID_452_" class="st1" points="42.5,252.6 0,336.7 0,336.7 0,252.6 		"/>
		<polygon id="XMLID_451_" class="st0" points="85,336.7 85,336.7 85,336.8 85,336.7 42.5,252.6 127.6,252.6 85,336.7 85,336.7 		
			"/>
		<polygon id="XMLID_450_" class="st1" points="170.1,336.7 127.6,252.6 212.6,252.6 170.1,336.7 170.1,336.7 		"/>
		<polygon id="XMLID_449_" class="st0" points="255.1,336.8 255.1,336.7 255.1,336.7 255.1,336.7 212.6,252.6 297.6,252.6 
			255.1,336.7 		"/>
		<polygon id="XMLID_448_" class="st1" points="340.2,336.7 297.6,252.6 382.7,252.6 340.2,336.7 340.2,336.7 		"/>
		<polygon id="XMLID_447_" class="st1" points="425.2,336.8 425.2,336.7 425.2,336.7 425.2,336.7 382.7,252.6 467.7,252.6 
			425.2,336.7 		"/>
		<polygon id="XMLID_446_" class="st3" points="510.2,336.7 510.2,336.7 467.7,252.6 552.8,252.6 510.2,336.7 		"/>
		<polygon id="XMLID_445_" class="st1" points="0,336.7 85,336.7 85,336.7 85,336.7 85,336.8 42.5,420.9 42.5,420.9 42.5,420.9 
			0,336.8 0,336.7 0,336.7 0,336.7 0,336.7 		"/>
		<polygon id="XMLID_444_" class="st1" points="170.1,336.7 170.1,336.7 170.1,336.8 127.6,420.9 127.6,420.9 127.6,420.9 85,336.8 
			85,336.7 85,336.7 85,336.7 85,336.7 85,336.7 170.1,336.7 		"/>
		<polygon id="XMLID_443_" class="st1" points="255.1,336.7 255.1,336.7 255.1,336.8 212.6,420.9 212.6,420.9 212.6,420.9 
			170.1,336.8 170.1,336.7 170.1,336.7 170.1,336.7 170.1,336.7 170.1,336.7 255.1,336.7 		"/>
		<polygon id="XMLID_442_" class="st1" points="340.2,336.8 297.6,420.9 297.6,420.9 297.6,420.9 255.1,336.8 255.1,336.7 
			255.1,336.7 255.1,336.7 340.2,336.7 340.2,336.7 340.2,336.7 		"/>
		<polygon id="XMLID_441_" class="st0" points="425.2,336.7 425.2,336.7 425.2,336.8 382.7,420.9 382.7,420.9 382.7,420.9 
			340.2,336.8 340.2,336.7 340.2,336.7 340.2,336.7 340.2,336.7 340.2,336.7 425.2,336.7 		"/>
		<polygon id="XMLID_440_" class="st0" points="510.2,336.8 467.7,420.9 467.7,420.9 467.7,420.9 425.2,336.8 425.2,336.7 
			425.2,336.7 425.2,336.7 510.2,336.7 510.2,336.7 510.2,336.7 		"/>
		<polygon id="XMLID_439_" class="st3" points="595.3,336.7 595.3,336.8 552.8,420.9 552.8,420.9 552.8,420.9 552.8,420.9 
			510.2,336.8 510.2,336.7 510.2,336.7 510.2,336.7 510.2,336.7 510.2,336.7 595.3,336.7 595.3,336.7 		"/>
		<polygon id="XMLID_438_" class="st0" points="42.5,420.9 42.5,420.9 42.5,420.9 0,505.1 0,505.1 0,420.9 0,420.9 42.5,420.9 		"/>
		<polygon id="XMLID_437_" class="st0" points="127.6,420.9 127.6,420.9 127.6,420.9 127.6,420.9 85,505.1 85,505.1 85,505.1 
			42.5,420.9 42.5,420.9 42.5,420.9 42.5,420.9 42.5,420.9 42.5,420.9 		"/>
		<polygon id="XMLID_436_" class="st1" points="212.6,420.9 212.6,420.9 212.6,420.9 170.1,505.1 170.1,505.1 170.1,505.1 
			127.6,420.9 127.6,420.9 212.6,420.9 		"/>
		<polygon id="XMLID_435_" class="st0" points="297.6,420.9 297.6,420.9 297.6,420.9 255.1,505.1 255.1,505.1 255.1,505.1 
			212.6,420.9 212.6,420.9 297.6,420.9 297.6,420.9 297.6,420.9 		"/>
		<polygon id="XMLID_434_" class="st0" points="340.2,505.1 297.6,420.9 297.6,420.9 382.7,420.9 382.7,420.9 382.7,420.9 
			382.7,420.9 340.2,505.1 340.2,505.1 		"/>
		<polygon id="XMLID_433_" class="st1" points="467.7,420.9 467.7,420.9 467.7,420.9 425.2,505.1 425.2,505.1 425.2,505.1 
			382.7,420.9 382.7,420.9 467.7,420.9 467.7,420.9 467.7,420.9 		"/>
		<polygon id="XMLID_432_" class="st2" points="552.8,420.9 552.7,420.9 552.7,420.9 510.2,505.1 510.2,505.1 510.2,505.1 
			467.7,420.9 467.7,420.9 552.7,420.9 		"/>
		<polygon id="XMLID_431_" class="st0" points="0,505.1 85,505.1 42.5,589.3 		"/>
		<polygon id="XMLID_430_" class="st0" points="85,505.1 170.1,505.1 127.6,589.3 		"/>
		<polygon id="XMLID_429_" class="st3" points="170.1,505.1 255.1,505.1 212.6,589.3 		"/>
		<polygon id="XMLID_428_" class="st2" points="340.2,505.1 297.6,589.3 255.1,505.1 		"/>
		<polygon id="XMLID_427_" class="st4" points="340.2,505.1 425.2,505.1 382.7,589.3 		"/>
		<polygon id="XMLID_426_" class="st2" points="425.2,505.1 510.2,505.1 467.7,589.3 		"/>
		<polygon id="XMLID_425_" class="st4" points="595.3,505.1 552.8,589.3 510.2,505.1 		"/>
		<polygon id="XMLID_424_" class="st2" points="0,673.5 0,673.5 0,589.3 42.5,589.3 		"/>
		<polygon id="XMLID_423_" class="st2" points="85,673.5 85,673.5 85,673.5 42.5,589.3 127.6,589.3 		"/>
		<polygon id="XMLID_422_" class="st5" points="170.1,673.5 170.1,673.5 170.1,673.5 127.6,589.3 212.6,589.3 		"/>
		<polygon id="XMLID_421_" class="st4" points="255.1,673.5 255.1,673.5 212.6,589.3 297.6,589.3 255.1,673.5 		"/>
		<polygon id="XMLID_420_" class="st2" points="340.2,673.5 297.6,589.3 382.7,589.3 340.2,673.5 340.2,673.5 		"/>
		<polygon id="XMLID_419_" class="st2" points="425.2,673.5 425.2,673.5 382.7,589.3 467.7,589.3 425.2,673.5 		"/>
		<polygon id="XMLID_418_" class="st3" points="510.2,673.5 510.2,673.5 467.7,589.3 552.8,589.3 510.2,673.5 		"/>
		<polygon id="XMLID_417_" class="st6" points="0,673.5 85,673.5 42.5,757.7 		"/>
		<polygon id="XMLID_416_" class="st3" points="85,673.5 170.1,673.5 127.6,757.7 		"/>
		<polygon id="XMLID_415_" class="st4" points="170.1,673.5 255.1,673.5 212.6,757.7 		"/>
		<polygon id="XMLID_414_" class="st6" points="255.1,673.5 340.2,673.5 297.6,757.7 		"/>
		<polygon id="XMLID_413_" class="st4" points="425.2,673.5 382.7,757.7 340.2,673.5 		"/>
		<polygon id="XMLID_412_" class="st6" points="425.2,673.5 510.2,673.5 467.7,757.7 		"/>
		<polygon id="XMLID_411_" class="st4" points="510.2,673.5 595.3,673.5 552.8,757.7 		"/>
		<polygon id="XMLID_410_" class="st6" points="0,841.9 0,841.9 0,757.7 42.5,757.7 		"/>
		<polygon id="XMLID_409_" class="st4" points="85,841.9 85,841.9 85,841.9 42.5,757.7 127.6,757.7 		"/>
		<polygon id="XMLID_408_" class="st5" points="170.1,841.9 170.1,841.9 170.1,841.9 127.6,757.7 212.6,757.7 		"/>
		<polygon id="XMLID_407_" class="st6" points="255.1,841.9 255.1,841.9 255.1,841.9 212.6,757.7 297.6,757.7 		"/>
		<polygon id="XMLID_406_" class="st4" points="340.2,841.9 340.2,841.9 340.2,841.9 297.6,757.7 382.7,757.7 		"/>
		<polygon id="XMLID_405_" class="st4" points="425.2,841.9 425.2,841.9 425.2,841.9 382.7,757.7 467.7,757.7 		"/>
		<polygon id="XMLID_404_" class="st6" points="510.2,841.9 510.2,841.9 510.2,841.9 467.7,757.7 552.8,757.7 		"/>
		<polygon id="XMLID_403_" class="st6" points="0,841.9 0,841.9 42.5,757.7 85,841.9 85,841.9 85,841.9 85,841.9 0,841.9 0,841.9 
			0,841.9 0,841.9 		"/>
		<polygon id="XMLID_402_" class="st5" points="85,841.9 127.6,757.7 170.1,841.9 170.1,841.9 170.1,841.9 170.1,841.9 85,841.9 
			85,841.9 85,841.9 85,841.9 85,841.9 		"/>
		<polygon id="XMLID_401_" class="st6" points="170.1,841.9 170.1,841.9 212.6,757.7 255.1,841.9 255.1,841.9 255.1,841.9 
			255.1,841.9 170.1,841.9 170.1,841.9 170.1,841.9 170.1,841.9 		"/>
		<polygon id="XMLID_400_" class="st6" points="255.1,841.9 255.1,841.9 255.1,841.9 297.6,757.7 340.2,841.9 340.2,841.9 
			340.2,841.9 340.2,841.9 255.1,841.9 		"/>
		<polygon id="XMLID_399_" class="st6" points="340.2,841.9 340.2,841.9 340.2,841.9 382.7,757.7 425.2,841.9 425.2,841.9 
			425.2,841.9 425.2,841.9 340.2,841.9 340.2,841.9 340.2,841.9 		"/>
		<polygon id="XMLID_398_" class="st6" points="510.2,841.9 510.2,841.9 510.2,841.9 425.2,841.9 425.2,841.9 425.2,841.9 
			425.2,841.9 467.7,757.7 510.2,841.9 		"/>
		<polygon id="XMLID_397_" class="st4" points="510.2,841.9 510.2,841.9 510.2,841.9 510.2,841.9 510.2,841.9 552.8,757.7 
			552.8,757.7 595.3,841.9 595.3,841.9 595.3,841.9 595.3,841.9 510.2,841.9 		"/>
		<polygon id="XMLID_396_" class="st6" points="42.5,757.7 0,757.7 0,673.5 0,673.5 		"/>
		<polygon id="XMLID_395_" class="st4" points="85,673.5 85,673.5 85,673.5 85,673.5 85,673.5 127.6,757.7 42.5,757.7 85,673.5 		
			"/>
		<polygon id="XMLID_394_" class="st5" points="212.6,757.7 127.6,757.7 170.1,673.5 170.1,673.5 170.1,673.5 		"/>
		<polygon id="XMLID_393_" class="st6" points="255.1,673.5 297.6,757.7 212.6,757.7 255.1,673.5 255.1,673.5 255.1,673.5 
			255.1,673.5 		"/>
		<polygon id="XMLID_392_" class="st4" points="297.6,757.7 340.2,673.5 340.2,673.5 340.2,673.5 382.7,757.7 		"/>
		<polygon id="XMLID_391_" class="st2" points="425.2,673.5 425.2,673.5 425.2,673.5 425.2,673.5 467.7,757.7 382.7,757.7 
			425.2,673.5 		"/>
		<polygon id="XMLID_390_" class="st6" points="467.7,757.7 510.2,673.5 510.2,673.5 510.2,673.5 552.8,757.7 		"/>
		<polygon id="XMLID_389_" class="st2" points="0,673.5 0,673.5 42.5,589.3 85,673.5 85,673.5 85,673.5 85,673.5 0,673.5 0,673.5 
			0,673.5 0,673.5 		"/>
		<polygon id="XMLID_388_" class="st3" points="85,673.5 127.6,589.3 170.1,673.5 170.1,673.5 170.1,673.5 170.1,673.5 85,673.5 
			85,673.5 85,673.5 85,673.5 85,673.5 		"/>
		<polygon id="XMLID_387_" class="st4" points="170.1,673.5 170.1,673.5 212.6,589.3 255.1,673.5 255.1,673.5 255.1,673.5 
			255.1,673.5 170.1,673.5 170.1,673.5 170.1,673.5 170.1,673.5 		"/>
		<polygon id="XMLID_386_" class="st2" points="340.2,673.5 340.2,673.5 340.2,673.5 255.1,673.5 255.1,673.5 255.1,673.5 
			255.1,673.5 297.6,589.3 340.2,673.5 		"/>
		<polygon id="XMLID_385_" class="st5" points="425.2,673.5 425.2,673.5 425.2,673.5 340.2,673.5 340.2,673.5 340.2,673.5 
			340.2,673.5 340.2,673.5 340.2,673.5 382.7,589.3 425.2,673.5 		"/>
		<polygon id="XMLID_384_" class="st2" points="510.2,673.5 510.2,673.5 510.2,673.5 425.2,673.5 425.2,673.5 425.2,673.5 
			425.2,673.5 467.7,589.3 510.2,673.5 		"/>
		<polygon id="XMLID_383_" class="st4" points="595.3,673.5 595.3,673.5 595.3,673.5 510.2,673.5 510.2,673.5 510.2,673.5 
			510.2,673.5 510.2,673.5 510.2,673.5 552.8,589.3 552.8,589.3 595.3,673.5 		"/>
		<polygon id="XMLID_382_" class="st2" points="42.5,589.3 0,589.3 0,505.1 0,505.1 		"/>
		<polygon id="XMLID_381_" class="st0" points="85,505.1 85,505.1 85,505.1 85,505.1 85,505.1 127.6,589.3 42.5,589.3 85,505.1 		
			"/>
		<polygon id="XMLID_380_" class="st3" points="127.6,589.3 170.1,505.1 170.1,505.1 170.1,505.1 212.6,589.3 		"/>
		<polygon id="XMLID_379_" class="st0" points="212.6,589.3 255.1,505.1 255.1,505.1 255.1,505.1 255.1,505.1 255.1,505.1 
			297.6,589.3 		"/>
		<polygon id="XMLID_378_" class="st2" points="297.6,589.3 340.2,505.1 340.2,505.1 340.2,505.1 382.7,589.3 		"/>
		<polygon id="XMLID_377_" class="st4" points="382.7,589.3 425.2,505.1 425.2,505.1 425.2,505.1 425.2,505.1 425.2,505.1 
			467.7,589.3 		"/>
		<polygon id="XMLID_376_" class="st3" points="510.2,505.1 510.2,505.1 510.2,505.1 552.8,589.3 467.7,589.3 		"/>
		<polygon id="XMLID_375_" class="st3" points="0,505.1 0,505.1 42.5,420.9 42.5,420.9 42.5,420.9 42.5,420.9 42.5,420.9 85,505.1 
			85,505.1 85,505.1 85,505.1 0,505.1 0,505.1 0,505.1 0,505.1 		"/>
		<polygon id="XMLID_374_" class="st3" points="170.1,505.1 170.1,505.1 170.1,505.1 170.1,505.1 85,505.1 85,505.1 85,505.1 
			85,505.1 85,505.1 85,505.1 127.6,420.9 127.6,420.9 		"/>
		<polygon id="XMLID_373_" class="st3" points="255.1,505.1 255.1,505.1 255.1,505.1 255.1,505.1 170.1,505.1 170.1,505.1 
			170.1,505.1 170.1,505.1 170.1,505.1 170.1,505.1 212.6,420.9 212.6,420.9 		"/>
		<polygon id="XMLID_372_" class="st2" points="255.1,505.1 255.1,505.1 255.1,505.1 255.1,505.1 297.6,420.9 297.6,420.9 
			297.6,420.9 297.6,420.9 340.2,505.1 340.2,505.1 340.2,505.1 340.2,505.1 		"/>
		<polygon id="XMLID_371_" class="st0" points="425.2,505.1 425.2,505.1 425.2,505.1 425.2,505.1 340.2,505.1 340.2,505.1 
			340.2,505.1 340.2,505.1 340.2,505.1 340.2,505.1 382.7,420.9 382.7,420.9 		"/>
		<polygon id="XMLID_370_" class="st3" points="510.2,505.1 510.2,505.1 510.2,505.1 510.2,505.1 425.2,505.1 425.2,505.1 
			425.2,505.1 425.2,505.1 467.7,420.9 467.7,420.9 467.7,420.9 467.7,420.9 		"/>
		<polygon id="XMLID_369_" class="st2" points="595.3,505.1 510.2,505.1 510.2,505.1 510.2,505.1 510.2,505.1 510.2,505.1 
			510.2,505.1 552.8,420.9 552.8,420.9 595.3,505.1 595.3,505.1 595.3,505.1 		"/>
		<polygon id="XMLID_368_" class="st0" points="595.3,252.6 595.3,336.7 552.8,252.6 552.8,252.6 		"/>
		<polygon id="XMLID_367_" class="st1" points="595.3,336.8 595.3,420.9 552.8,420.9 		"/>
		<polygon id="XMLID_366_" class="st0" points="42.5,252.6 0,252.6 0,168.4 0,168.4 		"/>
		<polygon id="XMLID_365_" class="st1" points="127.6,252.6 42.5,252.6 85,168.4 85,168.4 85,168.4 		"/>
		<polygon id="XMLID_364_" class="st0" points="170.1,168.4 212.6,252.6 127.6,252.6 170.1,168.4 170.1,168.4 		"/>
		<polygon id="XMLID_363_" class="st0" points="255.1,168.4 255.1,168.4 255.1,168.4 297.6,252.6 212.6,252.6 		"/>
		<polygon id="XMLID_362_" class="st0" points="340.2,168.4 340.2,168.4 340.2,168.4 382.7,252.6 297.6,252.6 		"/>
		<polygon id="XMLID_361_" class="st1" points="425.2,168.4 425.2,168.4 425.2,168.4 467.7,252.6 382.7,252.6 		"/>
		<polygon id="XMLID_360_" class="st0" points="552.7,252.6 467.7,252.6 510.2,168.4 510.2,168.4 510.2,168.4 		"/>
		<polygon id="XMLID_359_" class="st1" points="0,168.4 42.5,84.2 85,168.4 		"/>
		<polygon id="XMLID_358_" class="st0" points="85,168.4 127.6,84.2 170.1,168.4 		"/>
		<polygon id="XMLID_357_" class="st1" points="170.1,168.4 212.6,84.2 255.1,168.4 		"/>
		<polygon id="XMLID_356_" class="st1" points="255.1,168.4 297.6,84.2 340.2,168.4 		"/>
		<polygon id="XMLID_355_" class="st1" points="340.2,168.4 382.7,84.2 425.2,168.4 		"/>
		<polygon id="XMLID_354_" class="st0" points="425.2,168.4 467.7,84.2 510.2,168.4 		"/>
		<polygon id="XMLID_353_" class="st0" points="552.8,84.2 595.3,168.4 510.2,168.4 		"/>
		<polygon id="XMLID_352_" class="st1" points="42.5,84.2 0,168.4 0,168.4 0,84.2 		"/>
		<polygon id="XMLID_351_" class="st0" points="85,168.4 85,168.4 85,168.4 85,168.4 42.5,84.2 127.6,84.2 85,168.4 85,168.4 		"/>
		<polygon id="XMLID_350_" class="st1" points="170.1,168.4 127.6,84.2 212.6,84.2 170.1,168.4 170.1,168.4 		"/>
		<polygon id="XMLID_349_" class="st0" points="255.1,168.4 255.1,168.4 255.1,168.4 255.1,168.4 212.6,84.2 297.6,84.2 
			255.1,168.4 		"/>
		<polygon id="XMLID_348_" class="st1" points="340.2,168.4 297.6,84.2 382.7,84.2 340.2,168.4 340.2,168.4 		"/>
		<polygon id="XMLID_347_" class="st1" points="425.2,168.4 425.2,168.4 425.2,168.4 425.2,168.4 382.7,84.2 467.7,84.2 
			425.2,168.4 		"/>
		<polygon id="XMLID_346_" class="st1" points="510.2,168.4 510.2,168.4 467.7,84.2 552.8,84.2 510.2,168.4 		"/>
		<polygon id="XMLID_345_" class="st1" points="0,168.4 85,168.4 85,168.4 85,168.4 85,168.4 42.5,252.6 42.5,252.6 42.5,252.6 
			0,168.4 0,168.4 0,168.4 0,168.4 0,168.4 		"/>
		<polygon id="XMLID_344_" class="st1" points="170.1,168.4 170.1,168.4 170.1,168.4 127.6,252.6 127.6,252.6 127.6,252.6 85,168.4 
			85,168.4 85,168.4 85,168.4 85,168.4 85,168.4 170.1,168.4 		"/>
		<polygon id="XMLID_343_" class="st1" points="255.1,168.4 255.1,168.4 255.1,168.4 212.6,252.6 212.6,252.6 212.6,252.6 
			170.1,168.4 170.1,168.4 170.1,168.4 170.1,168.4 170.1,168.4 170.1,168.4 255.1,168.4 		"/>
		<polygon id="XMLID_342_" class="st1" points="340.2,168.4 297.6,252.6 297.6,252.6 297.6,252.6 255.1,168.4 255.1,168.4 
			255.1,168.4 255.1,168.4 340.2,168.4 340.2,168.4 340.2,168.4 		"/>
		<polygon id="XMLID_341_" class="st0" points="425.2,168.4 425.2,168.4 425.2,168.4 382.7,252.6 382.7,252.6 382.7,252.6 
			340.2,168.4 340.2,168.4 340.2,168.4 340.2,168.4 340.2,168.4 340.2,168.4 425.2,168.4 		"/>
		<polygon id="XMLID_340_" class="st0" points="510.2,168.4 467.7,252.6 467.7,252.6 467.7,252.6 425.2,168.4 425.2,168.4 
			425.2,168.4 425.2,168.4 510.2,168.4 510.2,168.4 510.2,168.4 		"/>
		<polygon id="XMLID_339_" class="st3" points="595.3,168.4 595.3,168.4 552.8,252.6 552.8,252.6 552.8,252.6 552.8,252.6 
			510.2,168.4 510.2,168.4 510.2,168.4 510.2,168.4 510.2,168.4 510.2,168.4 595.3,168.4 595.3,168.4 		"/>
		<polygon id="XMLID_338_" class="st0" points="595.3,84.2 595.3,168.4 552.8,84.2 552.8,84.2 		"/>
		<polygon id="XMLID_337_" class="st1" points="595.3,168.4 595.3,252.6 552.8,252.6 		"/>
		<polygon id="XMLID_336_" class="st0" points="42.5,84.2 0,84.2 0,0 0,0 		"/>
		<polygon id="XMLID_335_" class="st1" points="127.6,84.2 42.5,84.2 85,0 85,0 85,0 		"/>
		<polygon id="XMLID_334_" class="st0" points="170.1,0 212.6,84.2 127.6,84.2 170.1,0 170.1,0 		"/>
		<polygon id="XMLID_333_" class="st1" points="255.1,0 255.1,0 255.1,0 297.6,84.2 212.6,84.2 		"/>
		<polygon id="XMLID_332_" class="st0" points="340.2,0 340.2,0 340.2,0 382.7,84.2 297.6,84.2 		"/>
		<polygon id="XMLID_331_" class="st1" points="425.2,0 425.2,0 425.2,0 467.7,84.2 382.7,84.2 		"/>
		<polygon id="XMLID_330_" class="st1" points="552.7,84.2 467.7,84.2 510.2,0 510.2,0 510.2,0 		"/>
		<polygon id="XMLID_329_" class="st1" points="0,0 85,0 85,0 85,0 85,0 42.5,84.2 42.5,84.2 42.5,84.2 0,0 0,0 0,0 0,0 0,0 		"/>
		<polygon id="XMLID_328_" class="st1" points="170.1,0 170.1,0 170.1,0 127.6,84.2 127.6,84.2 127.6,84.2 85,0 85,0 85,0 85,0 
			85,0 85,0 170.1,0 		"/>
		<polygon id="XMLID_327_" class="st1" points="255.1,0 255.1,0 255.1,0 212.6,84.2 212.6,84.2 212.6,84.2 170.1,0 170.1,0 170.1,0 
			170.1,0 170.1,0 170.1,0 255.1,0 		"/>
		<polygon id="XMLID_326_" class="st1" points="340.2,0 297.6,84.2 297.6,84.2 297.6,84.2 255.1,0 255.1,0 255.1,0 255.1,0 340.2,0 
			340.2,0 340.2,0 		"/>
		<polygon id="XMLID_325_" class="st0" points="425.2,0 425.2,0 425.2,0 382.7,84.2 382.7,84.2 382.7,84.2 340.2,0 340.2,0 340.2,0 
			340.2,0 340.2,0 340.2,0 425.2,0 		"/>
		<polygon id="XMLID_324_" class="st0" points="510.2,0 467.7,84.2 467.7,84.2 467.7,84.2 425.2,0 425.2,0 425.2,0 425.2,0 510.2,0 
			510.2,0 510.2,0 		"/>
		<polygon id="XMLID_323_" class="st0" points="595.3,0 595.3,0 552.8,84.2 552.8,84.2 552.8,84.2 552.8,84.2 510.2,0 510.2,0 
			510.2,0 510.2,0 510.2,0 510.2,0 595.3,0 595.3,0 		"/>
		<polygon id="XMLID_322_" class="st0" points="595.3,0 595.3,84.2 552.8,84.2 		"/>
		<polygon id="XMLID_321_" class="st1" points="552.8,420.9 595.3,420.9 595.3,505.1 552.8,420.9 		"/>
		<polygon id="XMLID_320_" class="st3" points="552.8,589.3 595.3,505.1 595.3,589.3 552.8,589.3 552.8,589.3 		"/>
		<polygon id="XMLID_319_" class="st4" points="595.3,589.3 595.3,673.5 552.8,589.3 		"/>
		<polygon id="XMLID_318_" class="st4" points="552.8,757.7 595.3,673.5 595.3,757.7 552.8,757.7 552.8,757.7 		"/>
		<polygon id="XMLID_14_" class="st4" points="595.3,757.7 595.3,841.9 552.8,757.7 		"/>
	</g>
</g>
<g id="XMLID_15_">
	<g id="XMLID_167_">
		<polygon id="XMLID_317_" class="st0" points="42.5,1262.8 0,1262.8 0,1347 0,1347 		"/>
		<polygon id="XMLID_316_" class="st1" points="127.6,1262.8 42.5,1262.8 85,1347 85,1347 85,1347 		"/>
		<polygon id="XMLID_315_" class="st0" points="170.1,1347 212.6,1262.8 127.6,1262.8 170.1,1347 170.1,1347 		"/>
		<polygon id="XMLID_314_" class="st0" points="255.1,1347 255.1,1347 255.1,1347 297.6,1262.8 212.6,1262.8 		"/>
		<polygon id="XMLID_313_" class="st0" points="340.2,1347 340.2,1347 340.2,1347 382.7,1262.8 297.6,1262.8 		"/>
		<polygon id="XMLID_312_" class="st1" points="425.2,1347 425.2,1347 425.2,1347 467.7,1262.8 382.7,1262.8 		"/>
		<polygon id="XMLID_311_" class="st2" points="552.8,1262.8 467.7,1262.8 510.2,1347 510.2,1347 510.2,1347 		"/>
		<polygon id="XMLID_310_" class="st1" points="0,1347 42.5,1431.2 85,1347 		"/>
		<polygon id="XMLID_309_" class="st0" points="85,1347 127.6,1431.2 170.1,1347 		"/>
		<polygon id="XMLID_308_" class="st1" points="170.1,1347 212.6,1431.2 255.1,1347 		"/>
		<polygon id="XMLID_307_" class="st0" points="255.1,1347 297.6,1431.2 340.2,1347 		"/>
		<polygon id="XMLID_306_" class="st1" points="340.2,1347 382.7,1431.2 425.2,1347 		"/>
		<polygon id="XMLID_305_" class="st0" points="425.2,1347 467.7,1431.2 510.2,1347 		"/>
		<polygon id="XMLID_304_" class="st0" points="552.8,1431.2 595.3,1347 510.2,1347 		"/>
		<polygon id="XMLID_303_" class="st1" points="42.5,1431.2 0,1347 0,1347 0,1431.2 		"/>
		<polygon id="XMLID_302_" class="st0" points="85,1347 85,1347 85,1347 85,1347 42.5,1431.2 127.6,1431.2 85,1347 85,1347 		"/>
		<polygon id="XMLID_301_" class="st1" points="170.1,1347 127.6,1431.2 212.6,1431.2 170.1,1347 170.1,1347 		"/>
		<polygon id="XMLID_300_" class="st0" points="255.1,1347 255.1,1347 255.1,1347 255.1,1347 212.6,1431.2 297.6,1431.2 255.1,1347 
					"/>
		<polygon id="XMLID_299_" class="st1" points="340.2,1347 297.6,1431.2 382.7,1431.2 340.2,1347 340.2,1347 		"/>
		<polygon id="XMLID_298_" class="st1" points="425.2,1347 425.2,1347 425.2,1347 425.2,1347 382.7,1431.2 467.7,1431.2 425.2,1347 
					"/>
		<polygon id="XMLID_297_" class="st3" points="510.2,1347 510.2,1347 467.7,1431.2 552.8,1431.2 510.2,1347 		"/>
		<polygon id="XMLID_296_" class="st1" points="0,1347 85,1347 85,1347 85,1347 85,1347 42.5,1262.8 42.5,1262.8 42.5,1262.8 
			0,1347 0,1347 0,1347 0,1347 0,1347 		"/>
		<polygon id="XMLID_295_" class="st1" points="170.1,1347 170.1,1347 170.1,1347 127.6,1262.8 127.6,1262.8 127.6,1262.8 85,1347 
			85,1347 85,1347 85,1347 85,1347 85,1347 170.1,1347 		"/>
		<polygon id="XMLID_294_" class="st1" points="255.1,1347 255.1,1347 255.1,1347 212.6,1262.8 212.6,1262.8 212.6,1262.8 
			170.1,1347 170.1,1347 170.1,1347 170.1,1347 170.1,1347 170.1,1347 255.1,1347 		"/>
		<polygon id="XMLID_293_" class="st1" points="340.2,1347 297.6,1262.8 297.6,1262.8 297.6,1262.8 255.1,1347 255.1,1347 
			255.1,1347 255.1,1347 340.2,1347 340.2,1347 340.2,1347 		"/>
		<polygon id="XMLID_292_" class="st0" points="425.2,1347 425.2,1347 425.2,1347 382.7,1262.8 382.7,1262.8 382.7,1262.8 
			340.2,1347 340.2,1347 340.2,1347 340.2,1347 340.2,1347 340.2,1347 425.2,1347 		"/>
		<polygon id="XMLID_291_" class="st0" points="510.2,1347 467.7,1262.8 467.7,1262.8 467.7,1262.8 425.2,1347 425.2,1347 
			425.2,1347 425.2,1347 510.2,1347 510.2,1347 510.2,1347 		"/>
		<polygon id="XMLID_290_" class="st3" points="595.3,1347 595.3,1347 552.8,1262.8 552.8,1262.8 552.8,1262.8 552.8,1262.8 
			510.2,1347 510.2,1347 510.2,1347 510.2,1347 510.2,1347 510.2,1347 595.3,1347 595.3,1347 		"/>
		<polygon id="XMLID_289_" class="st0" points="42.5,1262.8 42.5,1262.8 42.5,1262.8 0,1178.7 0,1178.7 0,1262.8 0,1262.8 
			42.5,1262.8 		"/>
		<polygon id="XMLID_288_" class="st0" points="127.6,1262.8 127.6,1262.8 127.6,1262.8 127.6,1262.8 85,1178.7 85,1178.7 
			85,1178.6 42.5,1262.8 42.5,1262.8 42.5,1262.8 42.5,1262.8 42.5,1262.8 42.5,1262.8 		"/>
		<polygon id="XMLID_287_" class="st1" points="212.6,1262.8 212.6,1262.8 212.6,1262.8 170.1,1178.7 170.1,1178.7 170.1,1178.7 
			127.6,1262.8 127.6,1262.8 212.6,1262.8 		"/>
		<polygon id="XMLID_286_" class="st0" points="297.6,1262.8 297.6,1262.8 297.6,1262.8 255.1,1178.6 255.1,1178.7 255.1,1178.7 
			212.6,1262.8 212.6,1262.8 297.6,1262.8 297.6,1262.8 297.6,1262.8 		"/>
		<polygon id="XMLID_285_" class="st0" points="340.2,1178.7 297.6,1262.8 297.6,1262.8 382.7,1262.8 382.7,1262.8 382.7,1262.8 
			382.7,1262.8 340.2,1178.7 340.2,1178.7 		"/>
		<polygon id="XMLID_284_" class="st1" points="467.7,1262.8 467.7,1262.8 467.7,1262.8 425.2,1178.6 425.2,1178.7 425.2,1178.7 
			382.7,1262.8 382.7,1262.8 467.7,1262.8 467.7,1262.8 467.7,1262.8 		"/>
		<polygon id="XMLID_283_" class="st2" points="552.8,1262.8 552.8,1262.8 552.8,1262.8 510.2,1178.7 510.2,1178.7 510.2,1178.7 
			467.7,1262.8 467.7,1262.8 552.8,1262.8 		"/>
		<polygon id="XMLID_282_" class="st0" points="0,1178.6 85,1178.6 42.5,1094.5 		"/>
		<polygon id="XMLID_281_" class="st0" points="85,1178.6 170.1,1178.6 127.6,1094.5 		"/>
		<polygon id="XMLID_280_" class="st3" points="170.1,1178.6 255.1,1178.6 212.6,1094.5 		"/>
		<polygon id="XMLID_279_" class="st2" points="340.2,1178.6 297.6,1094.5 255.1,1178.6 		"/>
		<polygon id="XMLID_278_" class="st4" points="340.2,1178.6 425.2,1178.6 382.7,1094.5 		"/>
		<polygon id="XMLID_277_" class="st2" points="425.2,1178.6 510.2,1178.6 467.7,1094.5 		"/>
		<polygon id="XMLID_276_" class="st4" points="595.3,1178.6 552.8,1094.5 510.2,1178.6 		"/>
		<polygon id="XMLID_275_" class="st2" points="0,1010.3 0,1010.3 0,1094.5 42.5,1094.5 		"/>
		<polygon id="XMLID_274_" class="st2" points="85,1010.3 85,1010.3 85,1010.3 42.5,1094.5 127.6,1094.5 		"/>
		<polygon id="XMLID_273_" class="st5" points="170.1,1010.3 170.1,1010.3 170.1,1010.3 127.6,1094.5 212.6,1094.5 		"/>
		<polygon id="XMLID_272_" class="st4" points="255.1,1010.3 255.1,1010.3 212.6,1094.5 297.6,1094.5 255.1,1010.3 		"/>
		<polygon id="XMLID_271_" class="st2" points="340.2,1010.3 297.6,1094.5 382.7,1094.5 340.2,1010.3 340.2,1010.3 		"/>
		<polygon id="XMLID_270_" class="st2" points="425.2,1010.3 425.2,1010.3 382.7,1094.5 467.7,1094.5 425.2,1010.3 		"/>
		<polygon id="XMLID_269_" class="st3" points="510.2,1010.3 510.2,1010.3 467.7,1094.5 552.8,1094.5 510.2,1010.3 		"/>
		<polygon id="XMLID_268_" class="st6" points="0,1010.3 85,1010.3 42.5,926.1 		"/>
		<polygon id="XMLID_267_" class="st3" points="85,1010.3 170.1,1010.3 127.6,926.1 		"/>
		<polygon id="XMLID_266_" class="st4" points="170.1,1010.3 255.1,1010.3 212.6,926.1 		"/>
		<polygon id="XMLID_265_" class="st6" points="255.1,1010.3 340.2,1010.3 297.6,926.1 		"/>
		<polygon id="XMLID_264_" class="st4" points="425.2,1010.3 382.7,926.1 340.2,1010.3 		"/>
		<polygon id="XMLID_263_" class="st6" points="425.2,1010.3 510.2,1010.3 467.7,926.1 		"/>
		<polygon id="XMLID_262_" class="st4" points="510.2,1010.3 595.3,1010.3 552.8,926.1 		"/>
		<polygon id="XMLID_261_" class="st6" points="0,841.9 0,841.9 0,926.1 42.5,926.1 		"/>
		<polygon id="XMLID_260_" class="st4" points="85,841.9 85,841.9 85,841.9 42.5,926.1 127.6,926.1 		"/>
		<polygon id="XMLID_259_" class="st5" points="170.1,841.9 170.1,841.9 170.1,841.9 127.6,926.1 212.6,926.1 		"/>
		<polygon id="XMLID_258_" class="st6" points="255.1,841.9 255.1,841.9 255.1,841.9 212.6,926.1 297.6,926.1 		"/>
		<polygon id="XMLID_257_" class="st4" points="340.2,841.9 340.2,841.9 340.2,841.9 297.6,926.1 382.7,926.1 		"/>
		<polygon id="XMLID_256_" class="st4" points="425.2,841.9 425.2,841.9 425.2,841.9 382.7,926.1 467.7,926.1 		"/>
		<polygon id="XMLID_255_" class="st6" points="510.2,841.9 510.2,841.9 510.2,841.9 467.7,926.1 552.8,926.1 		"/>
		<polygon id="XMLID_254_" class="st6" points="0,841.9 0,841.9 42.5,926.1 85,841.9 85,841.9 85,841.9 85,841.9 0,841.9 0,841.9 
			0,841.9 0,841.9 		"/>
		<polygon id="XMLID_253_" class="st5" points="85,841.9 127.6,926.1 170.1,841.9 170.1,841.9 170.1,841.9 170.1,841.9 85,841.9 
			85,841.9 85,841.9 85,841.9 85,841.9 		"/>
		<polygon id="XMLID_252_" class="st6" points="170.1,841.9 170.1,841.9 212.6,926.1 255.1,841.9 255.1,841.9 255.1,841.9 
			255.1,841.9 170.1,841.9 170.1,841.9 170.1,841.9 170.1,841.9 		"/>
		<polygon id="XMLID_251_" class="st6" points="255.1,841.9 255.1,841.9 255.1,841.9 297.6,926.1 340.2,841.9 340.2,841.9 
			340.2,841.9 340.2,841.9 255.1,841.9 		"/>
		<polygon id="XMLID_250_" class="st6" points="340.2,841.9 340.2,841.9 340.2,841.9 382.7,926.1 425.2,841.9 425.2,841.9 
			425.2,841.9 425.2,841.9 340.2,841.9 340.2,841.9 340.2,841.9 		"/>
		<polygon id="XMLID_249_" class="st6" points="510.2,841.9 510.2,841.9 510.2,841.9 425.2,841.9 425.2,841.9 425.2,841.9 
			425.2,841.9 467.7,926.1 510.2,841.9 		"/>
		<polygon id="XMLID_248_" class="st4" points="510.2,841.9 510.2,841.9 510.2,841.9 510.2,841.9 510.2,841.9 552.8,926.1 
			552.8,926.1 595.3,841.9 595.3,841.9 595.3,841.9 595.3,841.9 510.2,841.9 		"/>
		<polygon id="XMLID_247_" class="st6" points="42.5,926.1 0,926.1 0,1010.3 0,1010.3 		"/>
		<polygon id="XMLID_246_" class="st4" points="85,1010.3 85,1010.3 85,1010.3 85,1010.3 85,1010.3 127.6,926.1 42.5,926.1 
			85,1010.3 		"/>
		<polygon id="XMLID_245_" class="st5" points="212.6,926.1 127.6,926.1 170.1,1010.3 170.1,1010.3 170.1,1010.3 		"/>
		<polygon id="XMLID_244_" class="st6" points="255.1,1010.3 297.6,926.1 212.6,926.1 255.1,1010.3 255.1,1010.3 255.1,1010.3 
			255.1,1010.3 		"/>
		<polygon id="XMLID_243_" class="st4" points="297.6,926.1 340.2,1010.3 340.2,1010.3 340.2,1010.3 382.7,926.1 		"/>
		<polygon id="XMLID_242_" class="st2" points="425.2,1010.3 425.2,1010.3 425.2,1010.3 425.2,1010.3 467.7,926.1 382.7,926.1 
			425.2,1010.3 		"/>
		<polygon id="XMLID_241_" class="st6" points="467.7,926.1 510.2,1010.3 510.2,1010.3 510.2,1010.3 552.8,926.1 		"/>
		<polygon id="XMLID_240_" class="st2" points="0,1010.3 0,1010.3 42.5,1094.5 85,1010.3 85,1010.3 85,1010.3 85,1010.3 0,1010.3 
			0,1010.3 0,1010.3 0,1010.3 		"/>
		<polygon id="XMLID_239_" class="st3" points="85,1010.3 127.6,1094.5 170.1,1010.3 170.1,1010.3 170.1,1010.3 170.1,1010.3 
			85,1010.3 85,1010.3 85,1010.3 85,1010.3 85,1010.3 		"/>
		<polygon id="XMLID_238_" class="st4" points="170.1,1010.3 170.1,1010.3 212.6,1094.5 255.1,1010.3 255.1,1010.3 255.1,1010.3 
			255.1,1010.3 170.1,1010.3 170.1,1010.3 170.1,1010.3 170.1,1010.3 		"/>
		<polygon id="XMLID_237_" class="st2" points="340.2,1010.3 340.2,1010.3 340.2,1010.3 255.1,1010.3 255.1,1010.3 255.1,1010.3 
			255.1,1010.3 297.6,1094.5 340.2,1010.3 		"/>
		<polygon id="XMLID_236_" class="st5" points="425.2,1010.3 425.2,1010.3 425.2,1010.3 340.2,1010.3 340.2,1010.3 340.2,1010.3 
			340.2,1010.3 340.2,1010.3 340.2,1010.3 382.7,1094.5 425.2,1010.3 		"/>
		<polygon id="XMLID_235_" class="st2" points="510.2,1010.3 510.2,1010.3 510.2,1010.3 425.2,1010.3 425.2,1010.3 425.2,1010.3 
			425.2,1010.3 467.7,1094.5 510.2,1010.3 		"/>
		<polygon id="XMLID_234_" class="st4" points="595.3,1010.3 595.3,1010.3 595.3,1010.3 510.2,1010.3 510.2,1010.3 510.2,1010.3 
			510.2,1010.3 510.2,1010.3 510.2,1010.3 552.8,1094.5 552.8,1094.5 595.3,1010.3 		"/>
		<polygon id="XMLID_233_" class="st2" points="42.5,1094.5 0,1094.5 0,1178.6 0,1178.6 		"/>
		<polygon id="XMLID_232_" class="st0" points="85,1178.7 85,1178.6 85,1178.6 85,1178.6 85,1178.6 127.6,1094.5 42.5,1094.5 
			85,1178.6 		"/>
		<polygon id="XMLID_231_" class="st3" points="127.6,1094.5 170.1,1178.6 170.1,1178.6 170.1,1178.6 212.6,1094.5 		"/>
		<polygon id="XMLID_230_" class="st0" points="212.6,1094.5 255.1,1178.6 255.1,1178.6 255.1,1178.6 255.1,1178.7 255.1,1178.6 
			297.6,1094.5 		"/>
		<polygon id="XMLID_229_" class="st2" points="297.6,1094.5 340.2,1178.6 340.2,1178.6 340.2,1178.6 382.7,1094.5 		"/>
		<polygon id="XMLID_228_" class="st4" points="382.7,1094.5 425.2,1178.6 425.2,1178.6 425.2,1178.6 425.2,1178.7 425.2,1178.6 
			467.7,1094.5 		"/>
		<polygon id="XMLID_227_" class="st3" points="510.2,1178.6 510.2,1178.6 510.2,1178.6 552.8,1094.5 467.7,1094.5 		"/>
		<polygon id="XMLID_226_" class="st3" points="0,1178.6 0,1178.7 42.5,1262.8 42.5,1262.8 42.5,1262.8 42.5,1262.8 42.5,1262.8 
			85,1178.7 85,1178.6 85,1178.6 85,1178.6 0,1178.6 0,1178.6 0,1178.6 0,1178.6 		"/>
		<polygon id="XMLID_225_" class="st3" points="170.1,1178.7 170.1,1178.6 170.1,1178.6 170.1,1178.6 85,1178.6 85,1178.6 
			85,1178.6 85,1178.6 85,1178.6 85,1178.7 127.6,1262.8 127.6,1262.8 		"/>
		<polygon id="XMLID_224_" class="st3" points="255.1,1178.7 255.1,1178.6 255.1,1178.6 255.1,1178.6 170.1,1178.6 170.1,1178.6 
			170.1,1178.6 170.1,1178.6 170.1,1178.6 170.1,1178.7 212.6,1262.8 212.6,1262.8 		"/>
		<polygon id="XMLID_223_" class="st2" points="255.1,1178.6 255.1,1178.6 255.1,1178.6 255.1,1178.7 297.6,1262.8 297.6,1262.8 
			297.6,1262.8 297.6,1262.8 340.2,1178.7 340.2,1178.6 340.2,1178.6 340.2,1178.6 		"/>
		<polygon id="XMLID_222_" class="st0" points="425.2,1178.7 425.2,1178.6 425.2,1178.6 425.2,1178.6 340.2,1178.6 340.2,1178.6 
			340.2,1178.6 340.2,1178.6 340.2,1178.6 340.2,1178.7 382.7,1262.8 382.7,1262.8 		"/>
		<polygon id="XMLID_221_" class="st3" points="510.2,1178.7 510.2,1178.6 510.2,1178.6 510.2,1178.6 425.2,1178.6 425.2,1178.6 
			425.2,1178.6 425.2,1178.7 467.7,1262.8 467.7,1262.8 467.7,1262.8 467.7,1262.8 		"/>
		<polygon id="XMLID_220_" class="st2" points="595.3,1178.6 510.2,1178.6 510.2,1178.6 510.2,1178.6 510.2,1178.6 510.2,1178.6 
			510.2,1178.7 552.8,1262.8 552.8,1262.8 595.3,1178.7 595.3,1178.6 595.3,1178.6 		"/>
		<polygon id="XMLID_219_" class="st0" points="595.3,1431.2 595.3,1347 552.8,1431.2 552.8,1431.2 		"/>
		<polygon id="XMLID_218_" class="st1" points="595.3,1347 595.3,1262.8 552.8,1262.8 		"/>
		<polygon id="XMLID_217_" class="st0" points="42.5,1431.2 0,1431.2 0,1515.4 0,1515.4 		"/>
		<polygon id="XMLID_216_" class="st1" points="127.6,1431.2 42.5,1431.2 85,1515.4 85,1515.4 85,1515.4 		"/>
		<polygon id="XMLID_215_" class="st0" points="170.1,1515.4 212.6,1431.2 127.6,1431.2 170.1,1515.4 170.1,1515.4 		"/>
		<polygon id="XMLID_214_" class="st0" points="255.1,1515.4 255.1,1515.4 255.1,1515.4 297.6,1431.2 212.6,1431.2 		"/>
		<polygon id="XMLID_213_" class="st0" points="340.2,1515.4 340.2,1515.4 340.2,1515.4 382.7,1431.2 297.6,1431.2 		"/>
		<polygon id="XMLID_212_" class="st1" points="425.2,1515.4 425.2,1515.4 425.2,1515.4 467.7,1431.2 382.7,1431.2 		"/>
		<polygon id="XMLID_211_" class="st0" points="552.8,1431.2 467.7,1431.2 510.2,1515.4 510.2,1515.4 510.2,1515.4 		"/>
		<polygon id="XMLID_210_" class="st1" points="0,1515.4 42.5,1599.6 85,1515.4 		"/>
		<polygon id="XMLID_209_" class="st0" points="85,1515.4 127.6,1599.6 170.1,1515.4 		"/>
		<polygon id="XMLID_208_" class="st1" points="170.1,1515.4 212.6,1599.6 255.1,1515.4 		"/>
		<polygon id="XMLID_207_" class="st1" points="255.1,1515.4 297.6,1599.6 340.2,1515.4 		"/>
		<polygon id="XMLID_206_" class="st1" points="340.2,1515.4 382.7,1599.6 425.2,1515.4 		"/>
		<polygon id="XMLID_205_" class="st0" points="425.2,1515.4 467.7,1599.6 510.2,1515.4 		"/>
		<polygon id="XMLID_204_" class="st0" points="552.8,1599.6 595.3,1515.4 510.2,1515.4 		"/>
		<polygon id="XMLID_203_" class="st1" points="42.5,1599.6 0,1515.4 0,1515.4 0,1599.6 		"/>
		<polygon id="XMLID_202_" class="st0" points="85,1515.4 85,1515.4 85,1515.4 85,1515.4 42.5,1599.6 127.6,1599.6 85,1515.4 
			85,1515.4 		"/>
		<polygon id="XMLID_201_" class="st1" points="170.1,1515.4 127.6,1599.6 212.6,1599.6 170.1,1515.4 170.1,1515.4 		"/>
		<polygon id="XMLID_200_" class="st0" points="255.1,1515.4 255.1,1515.4 255.1,1515.4 255.1,1515.4 212.6,1599.6 297.6,1599.6 
			255.1,1515.4 		"/>
		<polygon id="XMLID_199_" class="st1" points="340.2,1515.4 297.6,1599.6 382.7,1599.6 340.2,1515.4 340.2,1515.4 		"/>
		<polygon id="XMLID_198_" class="st1" points="425.2,1515.4 425.2,1515.4 425.2,1515.4 425.2,1515.4 382.7,1599.6 467.7,1599.6 
			425.2,1515.4 		"/>
		<polygon id="XMLID_197_" class="st1" points="510.2,1515.4 510.2,1515.4 467.7,1599.6 552.8,1599.6 510.2,1515.4 		"/>
		<polygon id="XMLID_196_" class="st1" points="0,1515.4 85,1515.4 85,1515.4 85,1515.4 85,1515.4 42.5,1431.2 42.5,1431.2 
			42.5,1431.2 0,1515.4 0,1515.4 0,1515.4 0,1515.4 0,1515.4 		"/>
		<polygon id="XMLID_195_" class="st1" points="170.1,1515.4 170.1,1515.4 170.1,1515.4 127.6,1431.2 127.6,1431.2 127.6,1431.2 
			85,1515.4 85,1515.4 85,1515.4 85,1515.4 85,1515.4 85,1515.4 170.1,1515.4 		"/>
		<polygon id="XMLID_194_" class="st1" points="255.1,1515.4 255.1,1515.4 255.1,1515.4 212.6,1431.2 212.6,1431.2 212.6,1431.2 
			170.1,1515.4 170.1,1515.4 170.1,1515.4 170.1,1515.4 170.1,1515.4 170.1,1515.4 255.1,1515.4 		"/>
		<polygon id="XMLID_193_" class="st1" points="340.2,1515.4 297.6,1431.2 297.6,1431.2 297.6,1431.2 255.1,1515.4 255.1,1515.4 
			255.1,1515.4 255.1,1515.4 340.2,1515.4 340.2,1515.4 340.2,1515.4 		"/>
		<polygon id="XMLID_192_" class="st0" points="425.2,1515.4 425.2,1515.4 425.2,1515.4 382.7,1431.2 382.7,1431.2 382.7,1431.2 
			340.2,1515.4 340.2,1515.4 340.2,1515.4 340.2,1515.4 340.2,1515.4 340.2,1515.4 425.2,1515.4 		"/>
		<polygon id="XMLID_191_" class="st0" points="510.2,1515.4 467.7,1431.2 467.7,1431.2 467.7,1431.2 425.2,1515.4 425.2,1515.4 
			425.2,1515.4 425.2,1515.4 510.2,1515.4 510.2,1515.4 510.2,1515.4 		"/>
		<polygon id="XMLID_190_" class="st3" points="595.3,1515.4 595.3,1515.4 552.8,1431.2 552.8,1431.2 552.8,1431.2 552.8,1431.2 
			510.2,1515.4 510.2,1515.4 510.2,1515.4 510.2,1515.4 510.2,1515.4 510.2,1515.4 595.3,1515.4 595.3,1515.4 		"/>
		<polygon id="XMLID_189_" class="st0" points="595.3,1599.6 595.3,1515.4 552.8,1599.6 552.8,1599.6 		"/>
		<polygon id="XMLID_188_" class="st1" points="595.3,1515.4 595.3,1431.2 552.8,1431.2 		"/>
		<polygon id="XMLID_187_" class="st0" points="42.5,1599.6 0,1599.6 0,1683.8 0,1683.8 		"/>
		<polygon id="XMLID_186_" class="st1" points="127.6,1599.6 42.5,1599.6 85,1683.8 85,1683.8 85,1683.8 		"/>
		<polygon id="XMLID_185_" class="st0" points="170.1,1683.8 212.6,1599.6 127.6,1599.6 170.1,1683.8 170.1,1683.8 		"/>
		<polygon id="XMLID_184_" class="st1" points="255.1,1683.8 255.1,1683.8 255.1,1683.8 297.6,1599.6 212.6,1599.6 		"/>
		<polygon id="XMLID_183_" class="st0" points="340.2,1683.8 340.2,1683.8 340.2,1683.8 382.7,1599.6 297.6,1599.6 		"/>
		<polygon id="XMLID_182_" class="st1" points="425.2,1683.8 425.2,1683.8 425.2,1683.8 467.7,1599.6 382.7,1599.6 		"/>
		<polygon id="XMLID_181_" class="st1" points="552.8,1599.6 467.7,1599.6 510.2,1683.8 510.2,1683.8 510.2,1683.8 		"/>
		<polygon id="XMLID_180_" class="st1" points="0,1683.8 85,1683.8 85,1683.8 85,1683.8 85,1683.8 42.5,1599.6 42.5,1599.6 
			42.5,1599.6 0,1683.8 0,1683.8 0,1683.8 0,1683.8 0,1683.8 		"/>
		<polygon id="XMLID_179_" class="st1" points="170.1,1683.8 170.1,1683.8 170.1,1683.8 127.6,1599.6 127.6,1599.6 127.6,1599.6 
			85,1683.8 85,1683.8 85,1683.8 85,1683.8 85,1683.8 85,1683.8 170.1,1683.8 		"/>
		<polygon id="XMLID_178_" class="st1" points="255.1,1683.8 255.1,1683.8 255.1,1683.8 212.6,1599.6 212.6,1599.6 212.6,1599.6 
			170.1,1683.8 170.1,1683.8 170.1,1683.8 170.1,1683.8 170.1,1683.8 170.1,1683.8 255.1,1683.8 		"/>
		<polygon id="XMLID_177_" class="st1" points="340.2,1683.8 297.6,1599.6 297.6,1599.6 297.6,1599.6 255.1,1683.8 255.1,1683.8 
			255.1,1683.8 255.1,1683.8 340.2,1683.8 340.2,1683.8 340.2,1683.8 		"/>
		<polygon id="XMLID_176_" class="st0" points="425.2,1683.8 425.2,1683.8 425.2,1683.8 382.7,1599.6 382.7,1599.6 382.7,1599.6 
			340.2,1683.8 340.2,1683.8 340.2,1683.8 340.2,1683.8 340.2,1683.8 340.2,1683.8 425.2,1683.8 		"/>
		<polygon id="XMLID_175_" class="st0" points="510.2,1683.8 467.7,1599.6 467.7,1599.6 467.7,1599.6 425.2,1683.8 425.2,1683.8 
			425.2,1683.8 425.2,1683.8 510.2,1683.8 510.2,1683.8 510.2,1683.8 		"/>
		<polygon id="XMLID_174_" class="st0" points="595.3,1683.8 595.3,1683.8 552.8,1599.6 552.8,1599.6 552.8,1599.6 552.8,1599.6 
			510.2,1683.8 510.2,1683.8 510.2,1683.8 510.2,1683.8 510.2,1683.8 510.2,1683.8 595.3,1683.8 595.3,1683.8 		"/>
		<polygon id="XMLID_173_" class="st0" points="595.3,1683.8 595.3,1599.6 552.8,1599.6 		"/>
		<polygon id="XMLID_172_" class="st1" points="552.8,1262.8 595.3,1262.8 595.3,1178.7 552.8,1262.8 		"/>
		<polygon id="XMLID_171_" class="st3" points="552.8,1094.5 595.3,1178.6 595.3,1094.5 552.8,1094.5 552.8,1094.5 		"/>
		<polygon id="XMLID_170_" class="st4" points="595.3,1094.5 595.3,1010.3 552.8,1094.5 		"/>
		<polygon id="XMLID_169_" class="st4" points="552.8,926.1 595.3,1010.3 595.3,926.1 552.8,926.1 552.8,926.1 		"/>
		<polygon id="XMLID_168_" class="st4" points="595.3,926.1 595.3,841.9 552.8,926.1 		"/>
	</g>
	<g id="XMLID_16_">
		<polygon id="XMLID_166_" class="st0" points="1148,1262.8 1190.6,1262.8 1190.6,1347 1190.5,1347 		"/>
		<polygon id="XMLID_165_" class="st1" points="1063,1262.8 1148,1262.8 1105.5,1347 1105.5,1347 1105.5,1347 		"/>
		<polygon id="XMLID_164_" class="st0" points="1020.5,1347 978,1262.8 1063,1262.8 1020.5,1347 1020.5,1347 		"/>
		<polygon id="XMLID_163_" class="st0" points="935.4,1347 935.4,1347 935.4,1347 892.9,1262.8 977.9,1262.8 		"/>
		<polygon id="XMLID_162_" class="st0" points="850.4,1347 850.4,1347 850.4,1347 807.9,1262.8 892.9,1262.8 		"/>
		<polygon id="XMLID_161_" class="st1" points="765.4,1347 765.4,1347 765.4,1347 722.8,1262.8 807.9,1262.8 		"/>
		<polygon id="XMLID_160_" class="st2" points="637.8,1262.8 722.8,1262.8 680.3,1347 680.3,1347 680.3,1347 		"/>
		<polygon id="XMLID_159_" class="st1" points="1190.5,1347 1148,1431.2 1105.5,1347 		"/>
		<polygon id="XMLID_158_" class="st0" points="1105.5,1347 1063,1431.2 1020.5,1347 		"/>
		<polygon id="XMLID_157_" class="st1" points="1020.5,1347 978,1431.2 935.4,1347 		"/>
		<polygon id="XMLID_156_" class="st0" points="935.4,1347 892.9,1431.2 850.4,1347 		"/>
		<polygon id="XMLID_155_" class="st1" points="850.4,1347 807.9,1431.2 765.4,1347 		"/>
		<polygon id="XMLID_154_" class="st0" points="765.3,1347 722.8,1431.2 680.3,1347 		"/>
		<polygon id="XMLID_153_" class="st0" points="637.8,1431.2 595.3,1347 680.3,1347 		"/>
		<polygon id="XMLID_152_" class="st1" points="1148,1431.2 1190.5,1347 1190.6,1347 1190.6,1431.2 		"/>
		<polygon id="XMLID_151_" class="st0" points="1105.5,1347 1105.5,1347 1105.5,1347 1105.5,1347 1148,1431.2 1063,1431.2 
			1105.5,1347 1105.5,1347 		"/>
		<polygon id="XMLID_150_" class="st1" points="1020.5,1347 1063,1431.2 978,1431.2 1020.5,1347 1020.5,1347 		"/>
		<polygon id="XMLID_149_" class="st0" points="935.4,1347 935.4,1347 935.4,1347 935.4,1347 978,1431.2 892.9,1431.2 935.4,1347 		
			"/>
		<polygon id="XMLID_148_" class="st1" points="850.4,1347 892.9,1431.2 807.9,1431.2 850.4,1347 850.4,1347 		"/>
		<polygon id="XMLID_147_" class="st1" points="765.4,1347 765.4,1347 765.4,1347 765.4,1347 807.9,1431.2 722.8,1431.2 765.4,1347 
					"/>
		<polygon id="XMLID_146_" class="st3" points="680.3,1347 680.3,1347 722.8,1431.2 637.8,1431.2 680.3,1347 		"/>
		<polygon id="XMLID_145_" class="st1" points="1190.5,1347 1105.5,1347 1105.5,1347 1105.5,1347 1105.5,1347 1148,1262.8 
			1148,1262.8 1148,1262.8 1190.5,1347 1190.6,1347 1190.6,1347 1190.6,1347 1190.5,1347 		"/>
		<polygon id="XMLID_144_" class="st1" points="1020.5,1347 1020.5,1347 1020.5,1347 1063,1262.8 1063,1262.8 1063,1262.8 
			1105.5,1347 1105.5,1347 1105.5,1347 1105.5,1347 1105.5,1347 1105.5,1347 1020.5,1347 		"/>
		<polygon id="XMLID_143_" class="st1" points="935.4,1347 935.4,1347 935.4,1347 977.9,1262.8 978,1262.8 978,1262.8 1020.5,1347 
			1020.5,1347 1020.5,1347 1020.5,1347 1020.5,1347 1020.5,1347 935.4,1347 		"/>
		<polygon id="XMLID_142_" class="st1" points="850.4,1347 892.9,1262.8 892.9,1262.8 892.9,1262.8 935.4,1347 935.4,1347 
			935.4,1347 935.4,1347 850.4,1347 850.4,1347 850.4,1347 		"/>
		<polygon id="XMLID_141_" class="st0" points="765.4,1347 765.4,1347 765.4,1347 807.9,1262.8 807.9,1262.8 807.9,1262.8 
			850.4,1347 850.4,1347 850.4,1347 850.4,1347 850.4,1347 850.4,1347 765.4,1347 		"/>
		<polygon id="XMLID_140_" class="st0" points="680.3,1347 722.8,1262.8 722.8,1262.8 722.8,1262.8 765.3,1347 765.4,1347 
			765.4,1347 765.3,1347 680.3,1347 680.3,1347 680.3,1347 		"/>
		<polygon id="XMLID_139_" class="st3" points="595.3,1347 595.3,1347 637.8,1262.8 637.8,1262.8 637.8,1262.8 637.8,1262.8 
			680.3,1347 680.3,1347 680.3,1347 680.3,1347 680.3,1347 680.3,1347 595.3,1347 595.3,1347 		"/>
		<polygon id="XMLID_138_" class="st0" points="1148,1262.8 1148,1262.8 1148,1262.8 1190.5,1178.7 1190.6,1178.7 1190.6,1262.8 
			1190.6,1262.8 1148,1262.8 		"/>
		<polygon id="XMLID_137_" class="st0" points="1063,1262.8 1063,1262.8 1063,1262.8 1063,1262.8 1105.5,1178.7 1105.5,1178.7 
			1105.5,1178.6 1148,1262.8 1148,1262.8 1148,1262.8 1148,1262.8 1148,1262.8 1148,1262.8 		"/>
		<polygon id="XMLID_136_" class="st1" points="978,1262.8 978,1262.8 978,1262.8 1020.5,1178.7 1020.5,1178.7 1020.5,1178.7 
			1063,1262.8 1063,1262.8 978,1262.8 		"/>
		<polygon id="XMLID_135_" class="st0" points="892.9,1262.8 892.9,1262.8 892.9,1262.8 935.4,1178.6 935.4,1178.7 935.4,1178.7 
			978,1262.8 977.9,1262.8 892.9,1262.8 892.9,1262.8 892.9,1262.8 		"/>
		<polygon id="XMLID_134_" class="st0" points="850.4,1178.7 892.9,1262.8 892.9,1262.8 807.9,1262.8 807.9,1262.8 807.9,1262.8 
			807.9,1262.8 850.4,1178.7 850.4,1178.7 		"/>
		<polygon id="XMLID_133_" class="st1" points="722.8,1262.8 722.8,1262.8 722.8,1262.8 765.4,1178.6 765.4,1178.7 765.4,1178.7 
			807.9,1262.8 807.9,1262.8 722.8,1262.8 722.8,1262.8 722.8,1262.8 		"/>
		<polygon id="XMLID_132_" class="st2" points="637.8,1262.8 637.8,1262.8 637.8,1262.8 680.3,1178.7 680.3,1178.7 680.3,1178.7 
			722.8,1262.8 722.8,1262.8 637.8,1262.8 		"/>
		<polygon id="XMLID_131_" class="st0" points="1190.5,1178.6 1105.5,1178.6 1148,1094.5 		"/>
		<polygon id="XMLID_130_" class="st0" points="1105.5,1178.6 1020.5,1178.6 1063,1094.5 		"/>
		<polygon id="XMLID_129_" class="st3" points="1020.5,1178.6 935.4,1178.6 978,1094.5 		"/>
		<polygon id="XMLID_128_" class="st2" points="850.4,1178.6 892.9,1094.5 935.4,1178.6 		"/>
		<polygon id="XMLID_127_" class="st4" points="850.4,1178.6 765.4,1178.6 807.9,1094.5 		"/>
		<polygon id="XMLID_126_" class="st2" points="765.3,1178.6 680.3,1178.6 722.8,1094.5 		"/>
		<polygon id="XMLID_125_" class="st4" points="595.3,1178.6 637.8,1094.5 680.3,1178.6 		"/>
		<polygon id="XMLID_124_" class="st2" points="1190.5,1010.3 1190.6,1010.3 1190.6,1094.5 1148,1094.5 		"/>
		<polygon id="XMLID_123_" class="st2" points="1105.5,1010.3 1105.5,1010.3 1105.5,1010.3 1148,1094.5 1063,1094.5 		"/>
		<polygon id="XMLID_122_" class="st5" points="1020.5,1010.3 1020.5,1010.3 1020.5,1010.3 1063,1094.5 978,1094.5 		"/>
		<polygon id="XMLID_121_" class="st4" points="935.4,1010.3 935.4,1010.3 978,1094.5 892.9,1094.5 935.4,1010.3 		"/>
		<polygon id="XMLID_120_" class="st2" points="850.4,1010.3 892.9,1094.5 807.9,1094.5 850.4,1010.3 850.4,1010.3 		"/>
		<polygon id="XMLID_119_" class="st2" points="765.4,1010.3 765.4,1010.3 807.9,1094.5 722.8,1094.5 765.4,1010.3 		"/>
		<polygon id="XMLID_118_" class="st3" points="680.3,1010.3 680.3,1010.3 722.8,1094.5 637.8,1094.5 680.3,1010.3 		"/>
		<polygon id="XMLID_117_" class="st6" points="1190.5,1010.3 1105.5,1010.3 1148,926.1 		"/>
		<polygon id="XMLID_116_" class="st3" points="1105.5,1010.3 1020.5,1010.3 1063,926.1 		"/>
		<polygon id="XMLID_115_" class="st4" points="1020.5,1010.3 935.4,1010.3 978,926.1 		"/>
		<polygon id="XMLID_114_" class="st6" points="935.4,1010.3 850.4,1010.3 892.9,926.1 		"/>
		<polygon id="XMLID_113_" class="st4" points="765.4,1010.3 807.9,926.1 850.4,1010.3 		"/>
		<polygon id="XMLID_112_" class="st6" points="765.3,1010.3 680.3,1010.3 722.8,926.1 		"/>
		<polygon id="XMLID_111_" class="st4" points="680.3,1010.3 595.3,1010.3 637.8,926.1 		"/>
		<polygon id="XMLID_110_" class="st6" points="1190.5,841.9 1190.6,841.9 1190.6,926.1 1148,926.1 		"/>
		<polygon id="XMLID_109_" class="st4" points="1105.5,841.9 1105.5,841.9 1105.5,841.9 1148,926.1 1063,926.1 		"/>
		<polygon id="XMLID_108_" class="st5" points="1020.5,841.9 1020.5,841.9 1020.5,841.9 1063,926.1 978,926.1 		"/>
		<polygon id="XMLID_107_" class="st6" points="935.4,841.9 935.4,841.9 935.4,841.9 978,926.1 892.9,926.1 		"/>
		<polygon id="XMLID_106_" class="st4" points="850.4,841.9 850.4,841.9 850.4,841.9 892.9,926.1 807.9,926.1 		"/>
		<polygon id="XMLID_105_" class="st4" points="765.4,841.9 765.4,841.9 765.4,841.9 807.9,926.1 722.8,926.1 		"/>
		<polygon id="XMLID_104_" class="st6" points="680.3,841.9 680.3,841.9 680.3,841.9 722.8,926.1 637.8,926.1 		"/>
		<polygon id="XMLID_103_" class="st6" points="1190.6,841.9 1190.5,841.9 1148,926.1 1105.5,841.9 1105.5,841.9 1105.5,841.9 
			1105.5,841.9 1190.5,841.9 1190.5,841.9 1190.6,841.9 1190.6,841.9 		"/>
		<polygon id="XMLID_102_" class="st5" points="1105.5,841.9 1063,926.1 1020.5,841.9 1020.5,841.9 1020.5,841.9 1020.5,841.9 
			1105.5,841.9 1105.5,841.9 1105.5,841.9 1105.5,841.9 1105.5,841.9 		"/>
		<polygon id="XMLID_101_" class="st6" points="1020.5,841.9 1020.5,841.9 978,926.1 935.4,841.9 935.4,841.9 935.4,841.9 
			935.4,841.9 1020.5,841.9 1020.5,841.9 1020.5,841.9 1020.5,841.9 		"/>
		<polygon id="XMLID_100_" class="st6" points="935.4,841.9 935.4,841.9 935.4,841.9 892.9,926.1 850.4,841.9 850.4,841.9 
			850.4,841.9 850.4,841.9 935.4,841.9 		"/>
		<polygon id="XMLID_99_" class="st6" points="850.4,841.9 850.4,841.9 850.4,841.9 807.9,926.1 765.4,841.9 765.4,841.9 
			765.4,841.9 765.4,841.9 850.4,841.9 850.4,841.9 850.4,841.9 		"/>
		<polygon id="XMLID_98_" class="st6" points="680.3,841.9 680.3,841.9 680.3,841.9 765.3,841.9 765.4,841.9 765.4,841.9 
			765.3,841.9 722.8,926.1 680.3,841.9 		"/>
		<polygon id="XMLID_97_" class="st4" points="680.3,841.9 680.3,841.9 680.3,841.9 680.3,841.9 680.3,841.9 637.8,926.1 
			637.8,926.1 595.3,841.9 595.3,841.9 595.3,841.9 595.3,841.9 680.3,841.9 		"/>
		<polygon id="XMLID_96_" class="st6" points="1148,926.1 1190.6,926.1 1190.6,1010.3 1190.5,1010.3 		"/>
		<polygon id="XMLID_95_" class="st4" points="1105.5,1010.3 1105.5,1010.3 1105.5,1010.3 1105.5,1010.3 1105.5,1010.3 1063,926.1 
			1148,926.1 1105.5,1010.3 		"/>
		<polygon id="XMLID_94_" class="st5" points="978,926.1 1063,926.1 1020.5,1010.3 1020.5,1010.3 1020.5,1010.3 		"/>
		<polygon id="XMLID_93_" class="st6" points="935.4,1010.3 892.9,926.1 978,926.1 935.4,1010.3 935.4,1010.3 935.4,1010.3 
			935.4,1010.3 		"/>
		<polygon id="XMLID_92_" class="st4" points="892.9,926.1 850.4,1010.3 850.4,1010.3 850.4,1010.3 807.9,926.1 		"/>
		<polygon id="XMLID_91_" class="st2" points="765.4,1010.3 765.4,1010.3 765.4,1010.3 765.4,1010.3 722.8,926.1 807.9,926.1 
			765.4,1010.3 		"/>
		<polygon id="XMLID_90_" class="st6" points="722.8,926.1 680.3,1010.3 680.3,1010.3 680.3,1010.3 637.8,926.1 		"/>
		<polygon id="XMLID_89_" class="st2" points="1190.6,1010.3 1190.5,1010.3 1148,1094.5 1105.5,1010.3 1105.5,1010.3 1105.5,1010.3 
			1105.5,1010.3 1190.5,1010.3 1190.5,1010.3 1190.6,1010.3 1190.6,1010.3 		"/>
		<polygon id="XMLID_88_" class="st3" points="1105.5,1010.3 1063,1094.5 1020.5,1010.3 1020.5,1010.3 1020.5,1010.3 1020.5,1010.3 
			1105.5,1010.3 1105.5,1010.3 1105.5,1010.3 1105.5,1010.3 1105.5,1010.3 		"/>
		<polygon id="XMLID_87_" class="st4" points="1020.5,1010.3 1020.5,1010.3 978,1094.5 935.4,1010.3 935.4,1010.3 935.4,1010.3 
			935.4,1010.3 1020.5,1010.3 1020.5,1010.3 1020.5,1010.3 1020.5,1010.3 		"/>
		<polygon id="XMLID_86_" class="st2" points="850.4,1010.3 850.4,1010.3 850.4,1010.3 935.4,1010.3 935.4,1010.3 935.4,1010.3 
			935.4,1010.3 892.9,1094.5 850.4,1010.3 		"/>
		<polygon id="XMLID_85_" class="st5" points="765.4,1010.3 765.4,1010.3 765.4,1010.3 850.4,1010.3 850.4,1010.3 850.4,1010.3 
			850.4,1010.3 850.4,1010.3 850.4,1010.3 807.9,1094.5 765.4,1010.3 		"/>
		<polygon id="XMLID_84_" class="st2" points="680.3,1010.3 680.3,1010.3 680.3,1010.3 765.3,1010.3 765.4,1010.3 765.4,1010.3 
			765.3,1010.3 722.8,1094.5 680.3,1010.3 		"/>
		<polygon id="XMLID_83_" class="st4" points="595.3,1010.3 595.3,1010.3 595.3,1010.3 680.3,1010.3 680.3,1010.3 680.3,1010.3 
			680.3,1010.3 680.3,1010.3 680.3,1010.3 637.8,1094.5 637.8,1094.5 595.3,1010.3 		"/>
		<polygon id="XMLID_82_" class="st2" points="1148,1094.5 1190.6,1094.5 1190.6,1178.6 1190.5,1178.6 		"/>
		<polygon id="XMLID_81_" class="st0" points="1105.5,1178.7 1105.5,1178.6 1105.5,1178.6 1105.5,1178.6 1105.5,1178.6 1063,1094.5 
			1148,1094.5 1105.5,1178.6 		"/>
		<polygon id="XMLID_80_" class="st3" points="1063,1094.5 1020.5,1178.6 1020.5,1178.6 1020.5,1178.6 978,1094.5 		"/>
		<polygon id="XMLID_79_" class="st0" points="978,1094.5 935.4,1178.6 935.4,1178.6 935.4,1178.6 935.4,1178.7 935.4,1178.6 
			892.9,1094.5 		"/>
		<polygon id="XMLID_78_" class="st2" points="892.9,1094.5 850.4,1178.6 850.4,1178.6 850.4,1178.6 807.9,1094.5 		"/>
		<polygon id="XMLID_77_" class="st4" points="807.9,1094.5 765.4,1178.6 765.4,1178.6 765.4,1178.6 765.4,1178.7 765.4,1178.6 
			722.8,1094.5 		"/>
		<polygon id="XMLID_76_" class="st3" points="680.3,1178.6 680.3,1178.6 680.3,1178.6 637.8,1094.5 722.8,1094.5 		"/>
		<polygon id="XMLID_75_" class="st3" points="1190.6,1178.6 1190.5,1178.7 1148,1262.8 1148,1262.8 1148,1262.8 1148,1262.8 
			1148,1262.8 1105.5,1178.7 1105.5,1178.6 1105.5,1178.6 1105.5,1178.6 1190.5,1178.6 1190.5,1178.6 1190.6,1178.6 1190.6,1178.6 
					"/>
		<polygon id="XMLID_74_" class="st3" points="1020.5,1178.7 1020.5,1178.6 1020.5,1178.6 1020.5,1178.6 1105.5,1178.6 
			1105.5,1178.6 1105.5,1178.6 1105.5,1178.6 1105.5,1178.6 1105.5,1178.7 1063,1262.8 1063,1262.8 		"/>
		<polygon id="XMLID_73_" class="st3" points="935.4,1178.7 935.4,1178.6 935.4,1178.6 935.4,1178.6 1020.5,1178.6 1020.5,1178.6 
			1020.5,1178.6 1020.5,1178.6 1020.5,1178.6 1020.5,1178.7 978,1262.8 978,1262.8 		"/>
		<polygon id="XMLID_72_" class="st2" points="935.4,1178.6 935.4,1178.6 935.4,1178.6 935.4,1178.7 892.9,1262.8 892.9,1262.8 
			892.9,1262.8 892.9,1262.8 850.4,1178.7 850.4,1178.6 850.4,1178.6 850.4,1178.6 		"/>
		<polygon id="XMLID_71_" class="st0" points="765.4,1178.7 765.4,1178.6 765.4,1178.6 765.4,1178.6 850.4,1178.6 850.4,1178.6 
			850.4,1178.6 850.4,1178.6 850.4,1178.6 850.4,1178.7 807.9,1262.8 807.9,1262.8 		"/>
		<polygon id="XMLID_70_" class="st3" points="680.3,1178.7 680.3,1178.6 680.3,1178.6 680.3,1178.6 765.3,1178.6 765.4,1178.6 
			765.4,1178.6 765.3,1178.7 722.8,1262.8 722.8,1262.8 722.8,1262.8 722.8,1262.8 		"/>
		<polygon id="XMLID_69_" class="st2" points="595.3,1178.6 680.3,1178.6 680.3,1178.6 680.3,1178.6 680.3,1178.6 680.3,1178.6 
			680.3,1178.7 637.8,1262.8 637.8,1262.8 595.3,1178.7 595.3,1178.6 595.3,1178.6 		"/>
		<polygon id="XMLID_68_" class="st0" points="595.3,1431.2 595.3,1347 637.8,1431.2 637.8,1431.2 		"/>
		<polygon id="XMLID_67_" class="st1" points="595.3,1347 595.3,1262.8 637.8,1262.8 		"/>
		<polygon id="XMLID_66_" class="st0" points="1148,1431.2 1190.6,1431.2 1190.6,1515.4 1190.5,1515.4 		"/>
		<polygon id="XMLID_65_" class="st1" points="1063,1431.2 1148,1431.2 1105.5,1515.4 1105.5,1515.4 1105.5,1515.4 		"/>
		<polygon id="XMLID_64_" class="st0" points="1020.5,1515.4 978,1431.2 1063,1431.2 1020.5,1515.4 1020.5,1515.4 		"/>
		<polygon id="XMLID_63_" class="st0" points="935.4,1515.4 935.4,1515.4 935.4,1515.4 892.9,1431.2 977.9,1431.2 		"/>
		<polygon id="XMLID_62_" class="st0" points="850.4,1515.4 850.4,1515.4 850.4,1515.4 807.9,1431.2 892.9,1431.2 		"/>
		<polygon id="XMLID_61_" class="st1" points="765.4,1515.4 765.4,1515.4 765.4,1515.4 722.8,1431.2 807.9,1431.2 		"/>
		<polygon id="XMLID_60_" class="st0" points="637.8,1431.2 722.8,1431.2 680.3,1515.4 680.3,1515.4 680.3,1515.4 		"/>
		<polygon id="XMLID_59_" class="st1" points="1190.5,1515.4 1148,1599.6 1105.5,1515.4 		"/>
		<polygon id="XMLID_58_" class="st0" points="1105.5,1515.4 1063,1599.6 1020.5,1515.4 		"/>
		<polygon id="XMLID_57_" class="st1" points="1020.5,1515.4 978,1599.6 935.4,1515.4 		"/>
		<polygon id="XMLID_56_" class="st1" points="935.4,1515.4 892.9,1599.6 850.4,1515.4 		"/>
		<polygon id="XMLID_55_" class="st1" points="850.4,1515.4 807.9,1599.6 765.4,1515.4 		"/>
		<polygon id="XMLID_54_" class="st0" points="765.3,1515.4 722.8,1599.6 680.3,1515.4 		"/>
		<polygon id="XMLID_53_" class="st0" points="637.8,1599.6 595.3,1515.4 680.3,1515.4 		"/>
		<polygon id="XMLID_52_" class="st1" points="1148,1599.6 1190.5,1515.4 1190.6,1515.4 1190.6,1599.6 		"/>
		<polygon id="XMLID_51_" class="st0" points="1105.5,1515.4 1105.5,1515.4 1105.5,1515.4 1105.5,1515.4 1148,1599.6 1063,1599.6 
			1105.5,1515.4 1105.5,1515.4 		"/>
		<polygon id="XMLID_50_" class="st1" points="1020.5,1515.4 1063,1599.6 978,1599.6 1020.5,1515.4 1020.5,1515.4 		"/>
		<polygon id="XMLID_49_" class="st0" points="935.4,1515.4 935.4,1515.4 935.4,1515.4 935.4,1515.4 978,1599.6 892.9,1599.6 
			935.4,1515.4 		"/>
		<polygon id="XMLID_48_" class="st1" points="850.4,1515.4 892.9,1599.6 807.9,1599.6 850.4,1515.4 850.4,1515.4 		"/>
		<polygon id="XMLID_47_" class="st1" points="765.4,1515.4 765.4,1515.4 765.4,1515.4 765.4,1515.4 807.9,1599.6 722.8,1599.6 
			765.4,1515.4 		"/>
		<polygon id="XMLID_46_" class="st1" points="680.3,1515.4 680.3,1515.4 722.8,1599.6 637.8,1599.6 680.3,1515.4 		"/>
		<polygon id="XMLID_45_" class="st1" points="1190.5,1515.4 1105.5,1515.4 1105.5,1515.4 1105.5,1515.4 1105.5,1515.4 1148,1431.2 
			1148,1431.2 1148,1431.2 1190.5,1515.4 1190.6,1515.4 1190.6,1515.4 1190.6,1515.4 1190.5,1515.4 		"/>
		<polygon id="XMLID_44_" class="st1" points="1020.5,1515.4 1020.5,1515.4 1020.5,1515.4 1063,1431.2 1063,1431.2 1063,1431.2 
			1105.5,1515.4 1105.5,1515.4 1105.5,1515.4 1105.5,1515.4 1105.5,1515.4 1105.5,1515.4 1020.5,1515.4 		"/>
		<polygon id="XMLID_43_" class="st1" points="935.4,1515.4 935.4,1515.4 935.4,1515.4 977.9,1431.2 978,1431.2 978,1431.2 
			1020.5,1515.4 1020.5,1515.4 1020.5,1515.4 1020.5,1515.4 1020.5,1515.4 1020.5,1515.4 935.4,1515.4 		"/>
		<polygon id="XMLID_42_" class="st1" points="850.4,1515.4 892.9,1431.2 892.9,1431.2 892.9,1431.2 935.4,1515.4 935.4,1515.4 
			935.4,1515.4 935.4,1515.4 850.4,1515.4 850.4,1515.4 850.4,1515.4 		"/>
		<polygon id="XMLID_41_" class="st0" points="765.4,1515.4 765.4,1515.4 765.4,1515.4 807.9,1431.2 807.9,1431.2 807.9,1431.2 
			850.4,1515.4 850.4,1515.4 850.4,1515.4 850.4,1515.4 850.4,1515.4 850.4,1515.4 765.4,1515.4 		"/>
		<polygon id="XMLID_40_" class="st0" points="680.3,1515.4 722.8,1431.2 722.8,1431.2 722.8,1431.2 765.3,1515.4 765.4,1515.4 
			765.4,1515.4 765.3,1515.4 680.3,1515.4 680.3,1515.4 680.3,1515.4 		"/>
		<polygon id="XMLID_39_" class="st3" points="595.3,1515.4 595.3,1515.4 637.8,1431.2 637.8,1431.2 637.8,1431.2 637.8,1431.2 
			680.3,1515.4 680.3,1515.4 680.3,1515.4 680.3,1515.4 680.3,1515.4 680.3,1515.4 595.3,1515.4 595.3,1515.4 		"/>
		<polygon id="XMLID_38_" class="st0" points="595.3,1599.6 595.3,1515.4 637.8,1599.6 637.8,1599.6 		"/>
		<polygon id="XMLID_37_" class="st1" points="595.3,1515.4 595.3,1431.2 637.8,1431.2 		"/>
		<polygon id="XMLID_36_" class="st0" points="1148,1599.6 1190.6,1599.6 1190.6,1683.8 1190.5,1683.8 		"/>
		<polygon id="XMLID_35_" class="st1" points="1063,1599.6 1148,1599.6 1105.5,1683.8 1105.5,1683.8 1105.5,1683.8 		"/>
		<polygon id="XMLID_34_" class="st0" points="1020.5,1683.8 978,1599.6 1063,1599.6 1020.5,1683.8 1020.5,1683.8 		"/>
		<polygon id="XMLID_33_" class="st1" points="935.4,1683.8 935.4,1683.8 935.4,1683.8 892.9,1599.6 977.9,1599.6 		"/>
		<polygon id="XMLID_32_" class="st0" points="850.4,1683.8 850.4,1683.8 850.4,1683.8 807.9,1599.6 892.9,1599.6 		"/>
		<polygon id="XMLID_31_" class="st1" points="765.4,1683.8 765.4,1683.8 765.4,1683.8 722.8,1599.6 807.9,1599.6 		"/>
		<polygon id="XMLID_30_" class="st1" points="637.8,1599.6 722.8,1599.6 680.3,1683.8 680.3,1683.8 680.3,1683.8 		"/>
		<polygon id="XMLID_29_" class="st1" points="1190.5,1683.8 1105.5,1683.8 1105.5,1683.8 1105.5,1683.8 1105.5,1683.8 1148,1599.6 
			1148,1599.6 1148,1599.6 1190.5,1683.8 1190.6,1683.8 1190.6,1683.8 1190.6,1683.8 1190.5,1683.8 		"/>
		<polygon id="XMLID_28_" class="st1" points="1020.5,1683.8 1020.5,1683.8 1020.5,1683.8 1063,1599.6 1063,1599.6 1063,1599.6 
			1105.5,1683.8 1105.5,1683.8 1105.5,1683.8 1105.5,1683.8 1105.5,1683.8 1105.5,1683.8 1020.5,1683.8 		"/>
		<polygon id="XMLID_27_" class="st1" points="935.4,1683.8 935.4,1683.8 935.4,1683.8 977.9,1599.6 978,1599.6 978,1599.6 
			1020.5,1683.8 1020.5,1683.8 1020.5,1683.8 1020.5,1683.8 1020.5,1683.8 1020.5,1683.8 935.4,1683.8 		"/>
		<polygon id="XMLID_26_" class="st1" points="850.4,1683.8 892.9,1599.6 892.9,1599.6 892.9,1599.6 935.4,1683.8 935.4,1683.8 
			935.4,1683.8 935.4,1683.8 850.4,1683.8 850.4,1683.8 850.4,1683.8 		"/>
		<polygon id="XMLID_25_" class="st0" points="765.4,1683.8 765.4,1683.8 765.4,1683.8 807.9,1599.6 807.9,1599.6 807.9,1599.6 
			850.4,1683.8 850.4,1683.8 850.4,1683.8 850.4,1683.8 850.4,1683.8 850.4,1683.8 765.4,1683.8 		"/>
		<polygon id="XMLID_24_" class="st0" points="680.3,1683.8 722.8,1599.6 722.8,1599.6 722.8,1599.6 765.3,1683.8 765.4,1683.8 
			765.4,1683.8 765.3,1683.8 680.3,1683.8 680.3,1683.8 680.3,1683.8 		"/>
		<polygon id="XMLID_23_" class="st0" points="595.3,1683.8 595.3,1683.8 637.8,1599.6 637.8,1599.6 637.8,1599.6 637.8,1599.6 
			680.3,1683.8 680.3,1683.8 680.3,1683.8 680.3,1683.8 680.3,1683.8 680.3,1683.8 595.3,1683.8 595.3,1683.8 		"/>
		<polygon id="XMLID_22_" class="st0" points="595.3,1683.8 595.3,1599.6 637.8,1599.6 		"/>
		<polygon id="XMLID_21_" class="st1" points="637.8,1262.8 595.3,1262.8 595.3,1178.7 637.8,1262.8 		"/>
		<polygon id="XMLID_20_" class="st3" points="637.8,1094.5 595.3,1178.6 595.3,1094.5 637.8,1094.5 637.8,1094.5 		"/>
		<polygon id="XMLID_19_" class="st4" points="595.3,1094.5 595.3,1010.3 637.8,1094.5 		"/>
		<polygon id="XMLID_18_" class="st4" points="637.8,926.1 595.3,1010.3 595.3,926.1 637.8,926.1 637.8,926.1 		"/>
		<polygon id="XMLID_17_" class="st4" points="595.3,926.1 595.3,841.9 637.8,926.1 		"/>
	</g>
</g>
<g id="XMLID_617_">
</g>
<g id="XMLID_618_">
</g>
<g id="XMLID_619_">
</g>
<g id="XMLID_620_">
</g>
<g id="XMLID_621_">
</g>
<g id="XMLID_622_">
</g>
</svg>
