<?xml version="1.0" encoding="iso-8859-1"?>
<!-- Generator: Adobe Illustrator 19.0.0, SVG Export Plug-In . SVG Version: 6.00 Build 0)  -->
<svg version="1.1" id="Capa_1" xmlns="http://www.w3.org/2000/svg" xmlns:xlink="http://www.w3.org/1999/xlink" x="0px" y="0px"
	 viewBox="0 0 512 512" style="enable-background:new 0 0 512 512;" xml:space="preserve">
<g>
	<path style="fill:#4C8056;" d="M125.04,0H386.96c34.93,0,63.247,28.317,63.247,63.247v307.511H61.793V63.247
		C61.793,28.317,90.11,0,125.04,0z"/>
	<path style="fill:#BDC3C7;" d="M414.897,62.561v290.542H97.103V62.561c0-15.05,12.201-27.251,27.251-27.251h263.292
		C402.696,35.31,414.897,47.511,414.897,62.561z"/>
	<polygon style="fill:#71C285;" points="308.966,388.414 203.034,388.414 123.586,388.414 123.586,467.862 141.241,467.862 
		203.034,450.207 308.966,450.207 370.759,467.862 388.414,467.862 388.414,388.414 	"/>
	<rect x="203.034" y="406.069" style="fill:#4C8056;" width="105.931" height="44.138"/>
	<path style="fill:#3F5C6C;" d="M141.241,388.414v105.931c-0.029,9.739-7.916,17.627-17.655,17.655h-35.31
		c-9.739-0.029-17.627-7.916-17.655-17.655V388.414H141.241z"/>
	<g>
		<path style="fill:#35495E;" d="M97.103,441.379c-0.014,4.869-3.958,8.813-8.828,8.828H70.621v-17.655h17.655
			C93.145,432.566,97.089,436.51,97.103,441.379z"/>
		<path style="fill:#35495E;" d="M141.241,432.552v17.655h-17.655c-4.875,0-8.828-3.952-8.828-8.828s3.952-8.828,8.828-8.828
			H141.241z"/>
		<path style="fill:#35495E;" d="M97.103,476.69c-0.014,4.869-3.958,8.813-8.828,8.828H70.621v-17.655h17.655
			C93.145,467.876,97.089,471.82,97.103,476.69z"/>
		<path style="fill:#35495E;" d="M141.241,467.862v17.655h-17.655c-4.875,0-8.828-3.952-8.828-8.828s3.952-8.828,8.828-8.828
			H141.241z"/>
	</g>
	<path style="fill:#3F5C6C;" d="M441.379,388.414v105.931c-0.029,9.739-7.916,17.627-17.655,17.655h-35.31
		c-9.739-0.029-17.627-7.916-17.655-17.655V388.414H441.379z"/>
	<g>
		<path style="fill:#35495E;" d="M397.241,441.379c-0.014,4.869-3.958,8.813-8.828,8.828h-17.655v-17.655h17.655
			C393.283,432.566,397.227,436.51,397.241,441.379z"/>
		<path style="fill:#35495E;" d="M441.379,432.552v17.655h-17.655c-4.875,0-8.828-3.952-8.828-8.828s3.952-8.828,8.828-8.828
			H441.379z"/>
		<path style="fill:#35495E;" d="M397.241,476.69c-0.014,4.869-3.958,8.813-8.828,8.828h-17.655v-17.655h17.655
			C393.283,467.876,397.227,471.82,397.241,476.69z"/>
		<path style="fill:#35495E;" d="M441.379,467.862v17.655h-17.655c-4.875,0-8.828-3.952-8.828-8.828s3.952-8.828,8.828-8.828
			H441.379z"/>
	</g>
	<path style="fill:#7F8C8D;" d="M61.793,353.103h388.414c4.875,0,8.828,3.952,8.828,8.828v35.31c0,4.875-3.952,8.828-8.828,8.828
		H61.793c-4.875,0-8.828-3.952-8.828-8.828v-35.31C52.966,357.056,56.918,353.103,61.793,353.103z"/>
	<path style="fill:#CB8252;" d="M141.241,238.345H256v114.759H132.414V247.172C132.414,242.297,136.366,238.345,141.241,238.345z"/>
	<polygon style="fill:#CBB292;" points="211.862,300.138 194.207,291.31 176.552,300.138 176.552,238.345 211.862,238.345 	"/>
	<path style="fill:#CC6F56;" d="M256,238.345h114.759c4.875,0,8.828,3.952,8.828,8.828v105.931H256V238.345z"/>
	<polygon style="fill:#CBB292;" points="335.448,300.138 317.793,291.31 300.138,300.138 300.138,238.345 335.448,238.345 	"/>
	<path style="fill:#805333;" d="M203.034,123.586h105.931c4.875,0,8.828,3.952,8.828,8.828v105.931H194.207V132.414
		C194.207,127.538,198.159,123.586,203.034,123.586z"/>
	<polygon style="fill:#CBB292;" points="273.655,185.379 256,176.552 238.345,185.379 238.345,123.586 273.655,123.586 	"/>
</g>
<g>
</g>
<g>
</g>
<g>
</g>
<g>
</g>
<g>
</g>
<g>
</g>
<g>
</g>
<g>
</g>
<g>
</g>
<g>
</g>
<g>
</g>
<g>
</g>
<g>
</g>
<g>
</g>
<g>
</g>
</svg>
