<?xml version="1.0" encoding="utf-8"?>
<!-- Generator: Adobe Illustrator 19.0.0, SVG Export Plug-In . SVG Version: 6.00 Build 0)  -->
<svg version="1.1" id="Layer_1" xmlns="http://www.w3.org/2000/svg" xmlns:xlink="http://www.w3.org/1999/xlink" x="0px" y="0px"
	 viewBox="-164 42.3 512 512" style="enable-background:new -164 42.3 512 512;" xml:space="preserve">
<style type="text/css">
	.st0{fill:#B0BEC4;}
	.st1{fill:#99A5AC;}
	.st2{fill:#F6CC80;}
	.st3{fill:#795548;}
	.st4{fill:#DEB26F;}
	.st5{fill:#694A3F;}
	.st6{fill:#F8B74D;}
	.st7{fill:#DE9F43;}
	.st8{fill:#FAA724;}
	.st9{fill:#DE9121;}
	.st10{fill:#536E7A;}
	.st11{fill:#48606A;}
</style>
<path class="st0" d="M332,490.3h-480c-8.8,0-16-7.2-16-16c0-8.8,7.2-16,16-16h480c8.8,0,16,7.2,16,16
	C348,483.1,340.8,490.3,332,490.3z"/>
<path class="st0" d="M332,255.6h-480c-8.8,0-16-7.2-16-16c0-8.8,7.2-16,16-16h480c8.8,0,16,7.2,16,16
	C348,248.4,340.8,255.6,332,255.6z"/>
<path class="st1" d="M92,458.3h-240c-8.8,0-16,7.2-16,16c0,8.8,7.2,16,16,16H92V458.3z"/>
<path class="st1" d="M92,223.6h-240c-8.8,0-16,7.2-16,16c0,8.8,7.2,16,16,16H92V223.6z"/>
<path class="st2" d="M97.3,84.9H-41.3c-8.7,0-16,7.3-16,16v106.7c0,8.7,7.3,16,16,16H97.3c8.7,0,16-7.3,16-16V100.9
	C113.3,92.2,106.1,84.9,97.3,84.9z"/>
<path class="st3" d="M44,84.9v69.3c0,8.7-7.3,16-16,16s-16-7.3-16-16V84.9H44z"/>
<path class="st4" d="M12,84.9h-53.3c-8.7,0-16,7.3-16,16v106.7c0,8.7,7.3,16,16,16H28v-53.3c-8.7,0-16-7.3-16-16V84.9z"/>
<path class="st5" d="M28,84.9H12v69.3c0,8.7,7.3,16,16,16V84.9z"/>
<path class="st6" d="M54.7,340.9H-62.7c-8.7,0-16,7.3-16,16v85.3c0,8.7,7.3,16,16,16H54.7c8.7,0,16-7.3,16-16v-85.3
	C70.7,348.2,63.4,340.9,54.7,340.9z"/>
<path class="st3" d="M12,340.9v48c0,8.7-7.3,16-16,16s-16-7.3-16-16v-48H12z"/>
<path class="st7" d="M-20,340.9h-42.7c-8.7,0-16,7.3-16,16v85.3c0,8.7,7.3,16,16,16H-4v-53.3c-8.7,0-16-7.3-16-16V340.9z"/>
<path class="st5" d="M-4,340.9h-16v48c0,8.7,7.3,16,16,16V340.9z"/>
<path class="st8" d="M246.7,319.6H108c-8.7,0-16,7.3-16,16v106.7c0,8.7,7.3,16,16,16h138.7c8.7,0,16-7.3,16-16V335.6
	C262.7,326.9,255.4,319.6,246.7,319.6z"/>
<path class="st3" d="M193.3,319.6v69.3c0,8.7-7.3,16-16,16s-16-7.3-16-16v-69.3H193.3z"/>
<path class="st9" d="M161.3,319.6H108c-8.7,0-16,7.3-16,16v106.7c0,8.7,7.3,16,16,16h69.3v-53.3c-8.7,0-16-7.3-16-16V319.6z"/>
<path class="st5" d="M177.3,319.6h-16v69.3c0,8.7,7.3,16,16,16V319.6z"/>
<path class="st10" d="M-110.7,554.3h-42.7c-5.9,0-10.7-4.8-10.7-10.7V52.9c0-5.9,4.8-10.7,10.7-10.7h42.7c5.9,0,10.7,4.8,10.7,10.7
	v490.7C-100,549.5-104.8,554.3-110.7,554.3z"/>
<path class="st11" d="M-132,42.3h-21.3c-5.9,0-10.7,4.8-10.7,10.7v490.7c0,5.9,4.8,10.7,10.7,10.7h21.3V42.3z"/>
<path class="st10" d="M337.3,554.3h-42.7c-5.9,0-10.7-4.8-10.7-10.7V52.9c0-5.9,4.8-10.7,10.7-10.7h42.7c5.9,0,10.7,4.8,10.7,10.7
	v490.7C348,549.5,343.2,554.3,337.3,554.3z"/>
<path class="st11" d="M316,42.3h-21.3c-5.9,0-10.7,4.8-10.7,10.7v490.7c0,5.9,4.8,10.7,10.7,10.7H316V42.3z"/>
</svg>
