<?xml version="1.0" encoding="utf-8"?>
<!-- Generator: Adobe Illustrator 19.0.0, SVG Export Plug-In . SVG Version: 6.00 Build 0)  -->
<svg version="1.1" id="Layer_1" xmlns="http://www.w3.org/2000/svg" xmlns:xlink="http://www.w3.org/1999/xlink" x="0px" y="0px"
	 viewBox="0 0 595.3 841.9" style="enable-background:new 0 0 595.3 841.9;" xml:space="preserve">
<style type="text/css">
	.st0{clip-path:url(#SVGID_2_);fill:#595959;}
	.st1{fill:#666666;stroke:#FFFFFF;stroke-width:3.5159;stroke-miterlimit:10;}
	.st2{fill:#E6EAED;}
	.st3{fill:#D8DCE0;}
	.st4{fill:#C3C8CE;}
	.st5{fill:#CED2D7;}
	.st6{fill:#F8C850;}
	.st7{fill:#F5B426;}
	.st8{fill:#ECA11D;}
	.st9{fill:#F5D592;}
	.st10{fill:#85CB79;}
	.st11{fill:#52B256;}
	.st12{fill:#737373;}
</style>
<g>
	<defs>
		<path id="SVGID_1_" d="M299,197.2c-75.9,0.4-137.2,62.3-136.8,138.3c0.4,75.9,62.3,137.2,138.3,136.8
			c75.9-0.4,137.2-62.3,136.8-138.3c-0.4-75.7-61.9-136.8-137.5-136.8C299.4,197.2,299.2,197.2,299,197.2"/>
	</defs>
	<use xlink:href="#SVGID_1_"  style="overflow:visible;fill:#595959;"/>
	<clipPath id="SVGID_2_">
		<use xlink:href="#SVGID_1_"  style="overflow:visible;"/>
	</clipPath>
	<rect x="161.7" y="197.2" class="st0" width="275.9" height="275.5"/>
</g>
<polygon class="st1" points="338.3,405.2 344.5,382.7 367,376.8 383.4,393.4 377.2,415.9 354.7,421.8 "/>
<path class="st2" d="M395.8,271.6h-8.4c-0.3,0-0.5-0.2-0.6-0.5c-1-4.9-2.9-9.4-5.5-13.4c-0.2-0.2-0.1-0.5,0.1-0.7l5.9-5.9
	c1.1-1.1,1.1-3,0-4.1l-6.1-6.1c-1.1-1.1-3-1.1-4.1,0l-5.9,5.9c-0.2,0.2-0.5,0.2-0.7,0.1c-4-2.6-8.5-4.6-13.4-5.5
	c-0.3-0.1-0.5-0.3-0.5-0.6v-8.4c0-1.6-1.3-2.9-2.9-2.9h-8.6c-1.6,0-2.9,1.3-2.9,2.9v8.4c0,0.3-0.2,0.5-0.5,0.6
	c-4.9,1-9.4,2.9-13.4,5.5c-0.2,0.2-0.5,0.1-0.7-0.1l-5.9-5.9c-1.1-1.1-3-1.1-4.1,0l-6.1,6.1c-1.1,1.1-1.1,3,0,4.1l5.9,5.9
	c0.2,0.2,0.2,0.5,0.1,0.7c-2.6,4-4.6,8.5-5.5,13.4c-0.1,0.3-0.3,0.5-0.6,0.5H303c-1.6,0-2.9,1.3-2.9,2.9v8.6c0,1.6,1.3,2.9,2.9,2.9
	h8.4c0.3,0,0.5,0.2,0.6,0.5c1,4.9,2.9,9.4,5.5,13.4c0.2,0.2,0.1,0.5-0.1,0.7l-5.9,5.9c-1.1,1.1-1.1,3,0,4.1l6.1,6.1
	c1.1,1.1,3,1.1,4.1,0l5.9-5.9c0.2-0.2,0.5-0.2,0.7-0.1c4,2.6,8.5,4.6,13.4,5.5c0.3,0.1,0.5,0.3,0.5,0.6v8.4c0,1.6,1.3,2.9,2.9,2.9
	h8.6c1.6,0,2.9-1.3,2.9-2.9v-8.4c0-0.3,0.2-0.5,0.5-0.6c4.9-1,9.4-2.9,13.4-5.5c0.2-0.2,0.5-0.1,0.7,0.1l5.9,5.9
	c1.1,1.1,3,1.1,4.1,0l6.1-6.1c1.1-1.1,1.1-3,0-4.1l-5.9-5.9c-0.2-0.2-0.2-0.5-0.1-0.7c2.6-4,4.6-8.5,5.5-13.4
	c0.1-0.3,0.3-0.5,0.6-0.5h8.4c1.6,0,2.9-1.3,2.9-2.9v-8.6C398.7,272.9,397.4,271.6,395.8,271.6z"/>
<g>
	<path class="st3" d="M317.4,257c0.2,0.2,0.2,0.5,0.1,0.7c-2.6,4-4.6,8.5-5.5,13.4c-0.1,0.3-0.3,0.5-0.6,0.5h7.3
		c0.3,0,0.5-0.2,0.6-0.5c1-4.9,2.9-9.4,5.5-13.4c0.2-0.2,0.1-0.5-0.1-0.7l-5.9-5.9c-1.1-1.1-1.1-3,0-4.1l4.5-4.5l-1.6-1.6
		c-1.1-1.1-3-1.1-4.1,0l-6.1,6.1c-1.1,1.1-1.1,3,0,4.1L317.4,257z"/>
	<path class="st3" d="M307.4,283.1v-8.6c0-1.6,1.3-2.9,2.9-2.9H303c-1.6,0-2.9,1.3-2.9,2.9v8.6c0,1.6,1.3,2.9,2.9,2.9h7.3
		C308.7,286,307.4,284.7,307.4,283.1z"/>
	<path class="st3" d="M318.8,310.7c-1.1-1.1-1.1-3,0-4.1l5.9-5.9c0.2-0.2,0.2-0.5,0.1-0.7c-2.6-4-4.6-8.5-5.5-13.4
		c-0.1-0.3-0.3-0.5-0.6-0.5h-7.3c0.3,0,0.5,0.2,0.6,0.5c1,4.9,2.9,9.4,5.5,13.4c0.2,0.2,0.1,0.5-0.1,0.7l-5.9,5.9
		c-1.1,1.1-1.1,3,0,4.1l6.1,6.1c1.1,1.1,3,1.1,4.1,0l1.6-1.6L318.8,310.7z"/>
	<circle class="st3" cx="349.4" cy="278.8" r="25.5"/>
</g>
<path class="st4" d="M331.4,278.8c0-12.8,9.5-23.4,21.8-25.2c-1.2-0.2-2.5-0.3-3.7-0.3c-14.1,0-25.5,11.4-25.5,25.5
	c0,14.1,11.4,25.5,25.5,25.5c1.3,0,2.5-0.1,3.7-0.3C340.8,302.3,331.4,291.6,331.4,278.8z"/>
<path class="st2" d="M363,269.4l-12.2-7c-0.8-0.5-1.9-0.5-2.7,0l-12.2,7c-0.8,0.5-1.4,1.4-1.4,2.4v14.1c0,1,0.5,1.9,1.4,2.4l12.2,7
	c0.8,0.5,1.9,0.5,2.7,0l12.2-7c0.8-0.5,1.4-1.4,1.4-2.4v-14.1C364.3,270.8,363.8,269.9,363,269.4z M349.4,283.7
	c-2.7,0-4.9-2.2-4.9-4.9c0-2.7,2.2-4.9,4.9-4.9c2.7,0,4.9,2.2,4.9,4.9C354.3,281.5,352.1,283.7,349.4,283.7z"/>
<path class="st5" d="M344.3,288.2c-0.8-0.5-1.4-1.4-1.4-2.4v-14.1c0-1,0.5-1.9,1.4-2.4l9.3-5.4l-2.9-1.7c-0.8-0.5-1.9-0.5-2.7,0
	l-12.2,7c-0.8,0.5-1.4,1.4-1.4,2.4v14.1c0,1,0.5,1.9,1.4,2.4l12.2,7c0.8,0.5,1.9,0.5,2.7,0l2.9-1.7L344.3,288.2z"/>
<path class="st3" d="M349.5,232.4c0-1.6,1.3-2.9,2.9-2.9h-7.3c-1.6,0-2.9,1.3-2.9,2.9v8.4c0,0.3-0.2,0.5-0.5,0.6l5.9-0.4
	c1.1-0.1,1.9-1,1.9-2V232.4z"/>
<g>
	<path class="st6" d="M278.8,384.4h-5.4c-0.2,0-0.3-0.1-0.3-0.3c-0.6-3.1-1.8-6-3.5-8.5c-0.1-0.1-0.1-0.3,0-0.4l3.8-3.8
		c0.7-0.7,0.7-1.8,0-2.5l-3.9-3.9c-0.7-0.7-1.8-0.7-2.5,0l-3.8,3.8c-0.1,0.1-0.3,0.1-0.4,0c-2.5-1.7-5.4-2.9-8.5-3.5
		c-0.2,0-0.3-0.2-0.3-0.3v-5.4c0-1-0.8-1.8-1.8-1.8h-5.5c-1,0-1.8,0.8-1.8,1.8v5.4c0,0.2-0.1,0.3-0.3,0.3c-3.1,0.6-6,1.8-8.5,3.5
		c-0.1,0.1-0.3,0.1-0.4,0l-3.8-3.8c-0.7-0.7-1.8-0.7-2.5,0l-3.9,3.9c-0.7,0.7-0.7,1.8,0,2.5l3.8,3.8c0.1,0.1,0.1,0.3,0,0.4
		c-1.7,2.5-2.9,5.4-3.5,8.5c0,0.2-0.2,0.3-0.3,0.3H220c-1,0-1.8,0.8-1.8,1.8v5.5c0,1,0.8,1.8,1.8,1.8h5.4c0.2,0,0.3,0.1,0.3,0.3
		c0.6,3.1,1.8,6,3.5,8.5c0.1,0.1,0.1,0.3,0,0.4l-3.8,3.8c-0.7,0.7-0.7,1.8,0,2.5l3.9,3.9c0.7,0.7,1.8,0.7,2.5,0l3.8-3.8
		c0.1-0.1,0.3-0.1,0.4,0c2.5,1.7,5.4,2.9,8.5,3.5c0.2,0,0.3,0.2,0.3,0.3v5.4c0,1,0.8,1.8,1.8,1.8h5.5c1,0,1.8-0.8,1.8-1.8V413
		c0-0.2,0.1-0.3,0.3-0.3c3.1-0.6,6-1.8,8.5-3.5c0.1-0.1,0.3-0.1,0.4,0l3.8,3.8c0.7,0.7,1.8,0.7,2.5,0l3.9-3.9c0.7-0.7,0.7-1.8,0-2.5
		l-3.8-3.8c-0.1-0.1-0.1-0.3,0-0.4c1.7-2.5,2.9-5.4,3.5-8.5c0-0.2,0.2-0.3,0.3-0.3h5.4c1,0,1.8-0.8,1.8-1.8v-5.5
		C280.6,385.2,279.8,384.4,278.8,384.4z"/>
	<g>
		<path class="st7" d="M231.8,409.1c-0.7-0.7-0.7-1.8,0-2.5l3.8-3.8c0.1-0.1,0.1-0.3,0-0.4c-1.7-2.5-2.9-5.4-3.5-8.5
			c0-0.2-0.2-0.3-0.3-0.3h-5.4c-1,0-1.8-0.8-1.8-1.8v-5.5c0-1,0.8-1.8,1.8-1.8h5.4c0.2,0,0.3-0.1,0.3-0.3c0.6-3.1,1.8-6,3.5-8.5
			c0.1-0.1,0.1-0.3,0-0.4l-3.8-3.8c-0.7-0.7-0.7-1.8,0-2.5l2-2l-1.9-1.9c-0.7-0.7-1.8-0.7-2.5,0l-3.9,3.9c-0.7,0.7-0.7,1.8,0,2.5
			l3.8,3.8c0.1,0.1,0.1,0.3,0,0.4c-1.7,2.5-2.9,5.4-3.5,8.5c0,0.2-0.2,0.3-0.3,0.3H220c-1,0-1.8,0.8-1.8,1.8v5.5
			c0,1,0.8,1.8,1.8,1.8h5.4c0.2,0,0.3,0.1,0.3,0.3c0.6,3.1,1.8,6,3.5,8.5c0.1,0.1,0.1,0.3,0,0.4l-3.8,3.8c-0.7,0.7-0.7,1.8,0,2.5
			l3.9,3.9c0.7,0.7,1.8,0.7,2.5,0l1.9-1.9L231.8,409.1z"/>
		<circle class="st7" cx="249.4" cy="389" r="14.2"/>
	</g>
	<path class="st8" d="M241.5,389c0-6.8,4.7-12.4,11.1-13.9c-1-0.2-2-0.3-3.1-0.3c-7.8,0-14.2,6.4-14.2,14.2
		c0,7.8,6.4,14.2,14.2,14.2c1.1,0,2.1-0.1,3.1-0.3C246.2,401.4,241.5,395.7,241.5,389z"/>
	<path class="st9" d="M250,382.1l5.1,2.9c0.4,0.2,0.6,0.6,0.6,1v5.9c0,0.4-0.2,0.8-0.6,1l-5.1,2.9c-0.4,0.2-0.8,0.2-1.1,0l-5.1-2.9
		c-0.4-0.2-0.6-0.6-0.6-1V386c0-0.4,0.2-0.8,0.6-1l5.1-2.9C249.2,381.9,249.6,381.9,250,382.1z"/>
	<path class="st6" d="M250.1,392.9c-0.4-0.2-0.6-0.6-0.6-1V386c0-0.4,0.2-0.8,0.6-1l2.5-1.4l-2.6-1.5c-0.4-0.2-0.8-0.2-1.1,0
		l-5.1,2.9c-0.4,0.2-0.6,0.6-0.6,1v5.9c0,0.4,0.2,0.8,0.6,1l5.1,2.9c0.4,0.2,0.8,0.2,1.1,0l2.6-1.5L250.1,392.9z"/>
	<g>
		<path class="st7" d="M249.4,391.3c-1.3,0-2.4-1-2.4-2.4c0-1.5,1.4-2.6,2.8-2.3c1.2,0.2,1.9,1.2,1.9,2.3
			C251.8,390.3,250.7,391.3,249.4,391.3z"/>
		<path class="st7" d="M251.2,359.5c0-0.9,0.6-1.6,1.4-1.8c-0.1,0-0.3-0.1-0.4-0.1h-5.5c-1,0-1.8,0.8-1.8,1.8v5.4
			c0,0.2-0.1,0.3-0.3,0.3l5.6-0.3c0.6,0,1.1-0.5,1.1-1.1V359.5L251.2,359.5z"/>
		<path class="st7" d="M251.2,418.4v-4.6c0-0.4-0.4-0.8-0.8-0.8l-5.8-0.3c0.2,0,0.3,0.2,0.3,0.3v5.4c0,1,0.8,1.8,1.8,1.8h5.5
			c0.1,0,0.3,0,0.4-0.1C251.8,419.9,251.2,419.2,251.2,418.4z"/>
	</g>
</g>
<path class="st10" d="M326,381.4c-5.4,12.7-2.9,28,7.5,38.3c13.7,13.7,35.8,13.7,49.5,0c13.7-13.7,13.7-35.8,0-49.5
	c-10.4-10.4-25.6-12.9-38.3-7.5l-72.3-72.3c4.6-11.8,2.2-25.8-7.4-35.3c-9.6-9.6-23.5-12-35.3-7.4l16.7,16.7l-3.9,14.7l-14.7,3.9
	l-16.7-16.7c-4.6,11.8-2.2,25.8,7.4,35.3c9.6,9.6,23.5,12,35.3,7.4L326,381.4L326,381.4z M348.9,404.3c-5.1-5.1-5.1-13.5,0-18.6
	c5.1-5.1,13.5-5.1,18.6,0c5.1,5.1,5.1,13.5,0,18.6C362.4,409.4,354,409.4,348.9,404.3z"/>
<path class="st11" d="M333.5,419.7c13.7,13.7,35.8,13.7,49.5,0l-15.4-15.4c-5.1,5.1-13.5,5.1-18.6,0c-5.1-5.1-5.1-13.5,0-18.6
	L242.3,279l-14.7,3.9l-16.7-16.7c-4.6,11.8-2.2,25.8,7.4,35.3c9.6,9.6,23.5,12,35.3,7.4l72.3,72.3
	C320.6,394.1,323.1,409.3,333.5,419.7L333.5,419.7z"/>
<path class="st12" d="M174.9,353.5c0-75.9,61.6-137.5,137.5-137.5c43,0,81.5,19.8,106.7,50.7c-23.5-42.2-68.5-70.8-120.3-70.8
	c-75.9,0-137.5,61.6-137.5,137.5c0,32.9,11.6,63.1,30.8,86.8C181.1,400.4,174.9,377.7,174.9,353.5z"/>
</svg>
