<svg height="512" viewBox="0 0 512 512" width="512" fill="#53b36a" xmlns="http://www.w3.org/2000/svg"><g id="Outline"><path d="m448 417.376v-129.376h-16v129.376a24 24 0 1 0 16 0zm-8 30.624a8 8 0 1 1 8-8 8.009 8.009 0 0 1 -8 8z"/><path d="m480 400.82v-168.82a40 40 0 0 0 -80 0v94.027a88 88 0 1 0 8.386 160.164 55.981 55.981 0 0 0 71.614-85.371zm-184 7.18a72.013 72.013 0 0 1 104-64.506v57.326a55.9 55.9 0 0 0 -4.141 73.579 72.014 72.014 0 0 1 -99.859-66.399zm144 72a39.994 39.994 0 0 1 -26.664-69.808 8 8 0 0 0 2.664-5.96v-172.232a24 24 0 0 1 48 0v172.232a8 8 0 0 0 2.664 5.96 39.994 39.994 0 0 1 -26.664 69.808z"/><path d="m432 256h16v16h-16z"/><path d="m368 352a56 56 0 0 0 -9.324 111.226l2.648-15.78a40.007 40.007 0 1 1 20.01-77.172l5.332-15.086a55.9 55.9 0 0 0 -18.666-3.188z"/><path d="m360 400h16v16h-16z"/><path d="m19.2 126.4a7.994 7.994 0 0 0 7.04 1.28l21.76-6.346v142.666h16v-147.333l152-44.334 152 44.334v187.333h16v-182.666l21.758 6.346a8 8 0 0 0 10.242-7.68v-32a8 8 0 0 0 -5.76-7.68l-192-56a7.994 7.994 0 0 0 -4.48 0l-192 56a8 8 0 0 0 -5.76 7.68v32a8 8 0 0 0 3.2 6.4zm12.8-32.4 184-53.667 184 53.667v15.333l-181.76-53.013a8 8 0 0 0 -4.48 0l-181.76 53.013z"/><path d="m280 360v-16h-16v-96a48 48 0 0 0 -96 0v96h-44.3a31.982 31.982 0 0 0 -35.073-47.134 40 40 0 1 0 -32.627 63.134zm-96-112a32 32 0 0 1 64 0v96h-64zm-128 96a24 24 0 1 1 21.807-34.02 8 8 0 0 0 10.915 3.774 15.805 15.805 0 0 1 7.278-1.754 16 16 0 0 1 0 32z"/><path d="m200 280h16v16h-16z"/><path d="m120 200a32.036 32.036 0 0 0 -32 32v48a8 8 0 0 0 8 8h48a8 8 0 0 0 8-8v-48a32.036 32.036 0 0 0 -32-32zm0 16a16.019 16.019 0 0 1 16 16v8h-32v-8a16.019 16.019 0 0 1 16-16zm-16 56v-16h32v16z"/><path d="m288 288h48a8 8 0 0 0 8-8v-48a32 32 0 0 0 -64 0v48a8 8 0 0 0 8 8zm8-16v-16h32v16zm16-56a16.019 16.019 0 0 1 16 16v8h-32v-8a16.019 16.019 0 0 1 16-16z"/><path d="m144 128h16v16h-16z"/><path d="m272 128h16v16h-16z"/><path d="m72 376h176v16h-176z"/><path d="m176 136a40 40 0 1 0 40-40 40.045 40.045 0 0 0 -40 40zm64 0a24 24 0 1 1 -24-24 24.028 24.028 0 0 1 24 24z"/></g></svg>