<svg id="Capa_1" enable-background="new 0 0 511.996 511.996" height="512" viewBox="0 0 511.996 511.996" width="512" xmlns="http://www.w3.org/2000/svg"><g><g><g><g><g><path d="m245.377 504.496h-227.256c-5.865 0-10.62-4.755-10.62-10.62v-227.256c0-5.865 4.755-10.62 10.62-10.62h227.256c5.865 0 10.62 4.755 10.62 10.62v227.256c0 5.865-4.755 10.62-10.62 10.62z" fill="#f5a871"/><path d="m255.999 266.616v227.254c0 5.873-4.758 10.62-10.62 10.62h-36.949c5.862 0 10.62-4.747 10.62-10.62v-227.254c0-5.862-4.758-10.62-10.62-10.62h36.948c5.863 0 10.621 4.758 10.621 10.62z" fill="#e89a5e"/><path d="m154.707 319.278h-45.917c-3.732 0-6.758-3.026-6.758-6.758v-56.52h59.432v56.52c.001 3.732-3.025 6.758-6.757 6.758z" fill="#d9ecfd"/><path d="m161.463 255.999v56.524c0 3.73-3.021 6.758-6.758 6.758h-24.901c3.73 0 6.758-3.027 6.758-6.758v-56.524z" fill="#b5dbfd"/></g><g><g><g><circle cx="131.75" cy="391.037" fill="#f2eff2" r="33.751"/><path d="m165.498 391.036c0 18.64-15.11 33.75-33.749 33.75-7.575 0-14.565-2.491-20.203-6.718.454.02.908.03 1.362.03 18.64 0 33.749-15.11 33.749-33.749 0-11.065-5.326-20.879-13.546-27.032 18.013.716 32.387 15.533 32.387 33.719z" fill="#e1dde1"/></g><g><path d="m106.003 359.25 20.399 40.798c2.203 4.407 8.492 4.407 10.696 0l20.399-40.798c1.988-3.975-.903-8.653-5.348-8.653h-40.798c-4.445 0-7.336 4.677-5.348 8.653z" fill="#64b9fc"/><path d="m157.499 359.253-20.405 40.79c-2.199 4.408-8.493 4.408-10.692 0l-5.86-11.72 14.535-29.069c1.987-3.974-.908-8.654-5.346-8.654h22.422c4.438-.001 7.333 4.679 5.346 8.653z" fill="#31a7fb"/></g></g></g></g><g><g><path d="m493.875 504.496h-227.256c-5.865 0-10.62-4.755-10.62-10.62v-227.256c0-5.865 4.755-10.62 10.62-10.62h227.256c5.865 0 10.62 4.755 10.62 10.62v227.256c0 5.865-4.755 10.62-10.62 10.62z" fill="#fcb982"/><path d="m504.497 266.616v227.254c0 5.873-4.758 10.62-10.62 10.62h-36.948c5.862 0 10.62-4.747 10.62-10.62v-227.254c0-5.862-4.758-10.62-10.62-10.62h36.948c5.863 0 10.62 4.758 10.62 10.62z" fill="#f5a871"/><path d="m403.205 319.278h-45.917c-3.732 0-6.758-3.026-6.758-6.758v-56.52h59.432v56.52c.001 3.732-3.024 6.758-6.757 6.758z" fill="#d9ecfd"/><path d="m409.961 255.999v56.524c0 3.73-3.021 6.758-6.758 6.758h-24.901c3.73 0 6.758-3.027 6.758-6.758v-56.524z" fill="#b5dbfd"/></g><g><g><g><circle cx="380.248" cy="391.037" fill="#f2eff2" r="33.751"/><path d="m413.996 391.036c0 18.64-15.11 33.75-33.75 33.75-7.575 0-14.565-2.491-20.203-6.718.454.02.908.03 1.362.03 18.64 0 33.749-15.11 33.749-33.749 0-11.065-5.326-20.879-13.546-27.032 18.015.716 32.388 15.533 32.388 33.719z" fill="#e1dde1"/></g><g><path d="m354.501 359.25 20.399 40.798c2.203 4.407 8.492 4.407 10.696 0l20.399-40.798c1.988-3.975-.903-8.653-5.348-8.653h-40.798c-4.444 0-7.335 4.677-5.348 8.653z" fill="#64b9fc"/><path d="m405.998 359.253-20.405 40.79c-2.199 4.408-8.493 4.408-10.692 0l-5.86-11.72 14.535-29.069c1.987-3.974-.908-8.654-5.346-8.654h22.422c4.438-.001 7.333 4.679 5.346 8.653z" fill="#31a7fb"/></g></g></g></g></g><g><g><path d="m369.626 255.996h-227.256c-5.865 0-10.62-4.755-10.62-10.62v-227.256c0-5.865 4.755-10.62 10.62-10.62h227.256c5.865 0 10.62 4.755 10.62 10.62v227.256c0 5.865-4.755 10.62-10.62 10.62z" fill="#fcb982"/><path d="m380.248 18.116v227.254c0 5.873-4.758 10.62-10.62 10.62h-36.948c5.862 0 10.62-4.747 10.62-10.62v-227.254c0-5.862-4.758-10.62-10.62-10.62h36.948c5.862 0 10.62 4.758 10.62 10.62z" fill="#f5a871"/><path d="m278.956 70.778h-45.916c-3.732 0-6.758-3.026-6.758-6.758v-56.52h59.432v56.52c0 3.732-3.026 6.758-6.758 6.758z" fill="#d9ecfd"/><path d="m285.712 7.499v56.524c0 3.73-3.021 6.758-6.758 6.758h-24.901c3.73 0 6.758-3.028 6.758-6.758v-56.524z" fill="#b5dbfd"/></g><g><g><g><circle cx="255.999" cy="142.537" fill="#f2eff2" r="33.751"/><path d="m289.747 142.536c0 18.64-15.11 33.749-33.749 33.749-7.575 0-14.565-2.491-20.203-6.718.454.02.908.03 1.362.03 18.64 0 33.749-15.11 33.749-33.749 0-11.065-5.326-20.879-13.546-27.032 18.014.717 32.387 15.534 32.387 33.72z" fill="#e1dde1"/></g><g><path d="m230.252 110.75 20.399 40.798c2.203 4.407 8.492 4.407 10.696 0l20.399-40.798c1.988-3.975-.903-8.653-5.348-8.653h-40.798c-4.445 0-7.336 4.677-5.348 8.653z" fill="#64b9fc"/><path d="m281.748 110.753-20.405 40.79c-2.199 4.408-8.493 4.408-10.692 0l-5.86-11.721 14.535-29.069c1.987-3.974-.908-8.654-5.346-8.654h22.422c4.439 0 7.333 4.68 5.346 8.654z" fill="#31a7fb"/></g></g></g></g></g><g><path d="m229.939 457.724c4.143 0 7.5-3.358 7.5-7.5s-3.357-7.5-7.5-7.5h-31.836c-4.143 0-7.5 3.358-7.5 7.5s3.357 7.5 7.5 7.5z"/><path d="m112.231 473.271c0 4.142 3.357 7.5 7.5 7.5h110.208c4.143 0 7.5-3.358 7.5-7.5s-3.357-7.5-7.5-7.5h-110.208c-4.142 0-7.5 3.358-7.5 7.5z"/><path d="m131.75 432.289c22.746 0 41.251-18.505 41.251-41.251 0-9.86-3.427-19.163-9.716-26.592l.921-1.842c2.104-4.209 1.883-9.112-.592-13.114-2.474-4.003-6.76-6.393-11.466-6.393h-40.798c-4.705 0-8.991 2.39-11.465 6.392-2.475 4.003-2.695 8.906-.592 13.115h.001l.923 1.846c-6.286 7.431-9.72 16.743-9.72 26.587.001 22.746 18.507 41.252 41.253 41.252zm26.251-41.252c0 14.475-11.776 26.251-26.251 26.251-14.476 0-26.252-11.776-26.252-26.251 0-3.905.849-7.679 2.457-11.114l11.74 23.479c2.298 4.596 6.917 7.451 12.056 7.451s9.758-2.855 12.056-7.451l11.74-23.478c1.604 3.433 2.454 7.204 2.454 11.113zm-8.313-32.94-17.938 35.876-17.938-35.876zm-36.976-2.201c0 .001.001.003.002.004z"/><path d="m493.875 248.5h-106.417c.178-1.017.289-2.057.289-3.124v-53.289c0-4.142-3.357-7.5-7.5-7.5s-7.5 3.358-7.5 7.5v53.289c0 1.72-1.399 3.12-3.12 3.12h-227.257c-1.721 0-3.12-1.4-3.12-3.12v-227.256c0-1.72 1.399-3.12 3.12-3.12h76.412v49.02c0 7.862 6.396 14.258 14.258 14.258h45.916c7.861 0 14.258-6.396 14.258-14.258v-49.02h76.412c1.721 0 3.12 1.4 3.12 3.12v138.572c0 4.142 3.357 7.5 7.5 7.5s7.5-3.358 7.5-7.5v-138.572c0-9.992-8.129-18.12-18.12-18.12h-227.256c-9.991 0-18.12 8.128-18.12 18.12v227.256c0 1.067.111 2.107.289 3.124h-41.76c-4.143 0-7.5 3.358-7.5 7.5s3.357 7.5 7.5 7.5h11.753v49.02c0 7.862 6.396 14.258 14.258 14.258h45.917c7.861 0 14.258-6.396 14.258-14.258v-49.02h76.411c1.721 0 3.121 1.4 3.121 3.12v227.256c0 1.72-1.4 3.12-3.121 3.12h-227.255c-1.721 0-3.12-1.4-3.12-3.12v-227.256c0-1.72 1.399-3.12 3.12-3.12h29.263c4.143 0 7.5-3.358 7.5-7.5s-3.357-7.5-7.5-7.5h-29.263c-9.991 0-18.12 8.128-18.12 18.12v227.256c0 9.992 8.129 18.12 18.12 18.12h227.255c3.97 0 7.633-1.298 10.622-3.471 2.988 2.173 6.652 3.471 10.621 3.471h227.256c9.991 0 18.12-8.128 18.12-18.12v-227.256c0-9.992-8.129-18.12-18.12-18.12zm-215.661-185.222h-44.432v-48.278h44.432zm79.817 200.222h44.432v48.278h-44.432zm-204.066 48.278h-44.433v-48.278h44.433zm343.03 182.098c0 1.72-1.399 3.12-3.12 3.12h-227.256c-1.721 0-3.12-1.4-3.12-3.12v-227.256c0-1.72 1.399-3.12 3.12-3.12h76.412v49.02c0 7.862 6.396 14.258 14.258 14.258h45.916c7.861 0 14.258-6.396 14.258-14.258v-49.02h76.412c1.721 0 3.12 1.4 3.12 3.12z"/><path d="m478.438 442.724h-31.835c-4.143 0-7.5 3.358-7.5 7.5s3.357 7.5 7.5 7.5h31.835c4.143 0 7.5-3.358 7.5-7.5s-3.358-7.5-7.5-7.5z"/><path d="m478.438 465.771h-110.208c-4.143 0-7.5 3.358-7.5 7.5s3.357 7.5 7.5 7.5h110.207c4.143 0 7.5-3.358 7.5-7.5s-3.357-7.5-7.499-7.5z"/><path d="m369.822 424.006c2.079-3.583.861-8.172-2.722-10.251-8.082-4.691-13.104-13.396-13.104-22.717 0-3.907.85-7.679 2.456-11.113l11.739 23.478c2.298 4.596 6.917 7.451 12.056 7.451s9.758-2.855 12.056-7.451l11.74-23.479c1.607 3.435 2.456 7.209 2.456 11.114 0 8.874-4.441 17.084-11.882 21.964-3.464 2.272-4.43 6.921-2.158 10.385 1.44 2.196 3.835 3.388 6.278 3.388 1.411 0 2.839-.398 4.106-1.229 11.682-7.662 18.655-20.562 18.655-34.507 0-9.844-3.434-19.156-9.719-26.587l.924-1.847c2.104-4.209 1.883-9.112-.592-13.115-2.474-4.002-6.76-6.392-11.465-6.392h-40.796c-4.706 0-8.992 2.39-11.466 6.393-2.475 4.002-2.695 8.905-.592 13.114h.001l.922 1.845c-6.287 7.429-9.718 16.737-9.718 26.588 0 14.649 7.884 28.325 20.574 35.691 1.185.688 2.479 1.015 3.758 1.015 2.586-.001 5.102-1.341 6.493-3.738zm28.365-65.909-17.938 35.876-17.938-35.876zm-36.977-2.201c0 .001.001.003.002.004z"/><path d="m354.188 194.224h-31.836c-4.143 0-7.5 3.358-7.5 7.5s3.357 7.5 7.5 7.5h31.836c4.143 0 7.5-3.358 7.5-7.5s-3.357-7.5-7.5-7.5z"/><path d="m243.98 232.271h110.208c4.143 0 7.5-3.358 7.5-7.5s-3.357-7.5-7.5-7.5h-110.208c-4.143 0-7.5 3.358-7.5 7.5s3.358 7.5 7.5 7.5z"/><path d="m255.999 183.789c22.746 0 41.252-18.505 41.252-41.251 0-9.884-3.423-19.172-9.716-26.594l.92-1.839c2.104-4.209 1.883-9.112-.592-13.115-2.474-4.002-6.76-6.392-11.465-6.392h-40.798c-4.705 0-8.991 2.39-11.465 6.392-2.475 4.003-2.695 8.906-.592 13.115h.001l.924 1.847c-6.286 7.431-9.72 16.745-9.72 26.586-.001 22.745 18.505 41.251 41.251 41.251zm26.252-41.252c0 14.475-11.776 26.251-26.252 26.251s-26.252-11.776-26.252-26.251c0-3.904.849-7.679 2.457-11.114l11.74 23.479c2.298 4.596 6.917 7.451 12.056 7.451s9.758-2.855 12.056-7.451l11.741-23.48c1.603 3.429 2.454 7.197 2.454 11.115zm-8.313-32.94-17.938 35.876-17.938-35.876zm-36.977-2.201c0 .001.001.003.002.004z"/></g></g></svg>