<?xml version="1.0" encoding="utf-8"?>
<!-- Generator: Adobe Illustrator 19.0.0, SVG Export Plug-In . SVG Version: 6.00 Build 0)  -->
<svg version="1.1" id="Layer_1" xmlns="http://www.w3.org/2000/svg" xmlns:xlink="http://www.w3.org/1999/xlink" x="0px" y="0px"
	 viewBox="-164 42.3 512 512" style="enable-background:new -164 42.3 512 512;" xml:space="preserve">
<style type="text/css">
	.st0{fill:#4CAE4F;}
	.st1{fill:#FAFAFA;}
	.st2{fill:#419846;}
	.st3{fill:#5F7D8B;}
</style>
<path class="st0" d="M294.9,116.3l-197.3-73C94,42,90,42,86.5,43.3l-197.3,73c-6.3,2.3-10.5,8.3-10.5,15V302
	c0,194.2,207.1,251.2,209.3,251.7l4.1,0.5l4.1-0.5c2.1-0.6,209.3-57.6,209.3-251.7V131.3C305.3,124.6,301.2,118.6,294.9,116.3z"/>
<path class="st1" d="M92,436.9c-76.5,0-138.7-62.2-138.7-138.7S15.5,159.6,92,159.6s138.7,62.2,138.7,138.7S168.5,436.9,92,436.9z"
	/>
<path class="st2" d="M92,42.3h-0.1c-1.9,0-3.7,0.3-5.5,1l-197.3,73c-6.3,2.3-10.4,8.3-10.4,15V302c0,194.2,207.1,251.2,209.3,251.7
	l4.1,0.5V436.9c-76.5,0-138.7-62.2-138.7-138.7S15.5,159.6,92,159.6V42.3z"/>
<path class="st1" d="M94,436.9c-76.5,0-138.7-62.2-138.7-138.7S17.5,159.6,94,159.6s138.7,62.2,138.7,138.7S170.5,436.9,94,436.9z"
	/>
<path class="st3" d="M181.2,268.5l-83.6,83.6l-18.1,18.1c-4.3,4.3-9.9,6.4-15.5,6.4c-5.6,0-11.2-2.1-15.5-6.4L9.8,331.3
	c-8.5-8.5-8.5-22.4,0-30.9c8.5-8.5,22.4-8.5,30.9,0l23.4,23.4l86.2-86.2c8.5-8.5,22.4-8.5,30.9,0C189.8,246.1,189.8,260,181.2,268.5
	z"/>
</svg>
