<?xml version="1.0" encoding="iso-8859-1"?>
<!-- Generator: Adobe Illustrator 19.0.0, SVG Export Plug-In . SVG Version: 6.00 Build 0)  -->
<svg version="1.1" id="Capa_1" xmlns="http://www.w3.org/2000/svg" xmlns:xlink="http://www.w3.org/1999/xlink" x="0px" y="0px"
	 viewBox="0 0 512 512" style="enable-background:new 0 0 512 512;" xml:space="preserve">
<path style="fill:#D6E9FF;" d="M320.268,124.518H15c-8.284,0-15,6.716-15,15v289.199c0,8.284,6.716,15,15,15h305.268
	c8.284,0,15-6.716,15-15V139.518C335.268,131.233,328.552,124.518,320.268,124.518z"/>
<path style="fill:#B5D9FF;" d="M320.268,124.518H143.534v319.199h176.733c8.284,0,15-6.716,15-15V139.518
	C335.268,131.233,328.552,124.518,320.268,124.518z"/>
<path style="fill:#EDF6FF;" d="M191.734,428.717c0,26.621-21.582,48.199-48.201,48.199c-26.617,0-48.199-21.578-48.199-48.199
	c0-26.619,21.582-48.199,48.199-48.199C170.152,380.518,191.734,402.098,191.734,428.717z"/>
<path style="fill:#D6E9FF;" d="M191.734,428.717c0-26.619-21.582-48.199-48.2-48.199v96.398
	C170.152,476.916,191.734,455.339,191.734,428.717z"/>
<path style="fill:#0065A3;" d="M143.533,491.916c-34.848,0-63.199-28.351-63.199-63.199s28.352-63.199,63.199-63.199
	c34.85,0,63.201,28.351,63.201,63.199S178.383,491.916,143.533,491.916z M143.533,395.518c-18.307,0-33.199,14.893-33.199,33.199
	s14.893,33.199,33.199,33.199s33.201-14.893,33.201-33.199S161.84,395.518,143.533,395.518z"/>
<circle style="fill:#FFF4F4;" cx="143.53" cy="139.521" r="104.43"/>
<path style="fill:#DDEBF0;" d="M143.534,35.084v208.865c57.676,0,104.434-46.756,104.434-104.432
	C247.968,81.84,201.21,35.084,143.534,35.084z"/>
<path style="fill:#27D8F7;" d="M143.534,258.949c-65.855,0-119.434-53.577-119.434-119.432S77.678,20.083,143.534,20.083
	s119.434,53.578,119.434,119.434C262.968,205.372,209.39,258.949,143.534,258.949z M143.534,50.084
	c-49.314,0-89.434,40.12-89.434,89.434c0,49.313,40.119,89.432,89.434,89.432c49.314,0,89.434-40.119,89.434-89.432
	C232.968,90.204,192.849,50.084,143.534,50.084z"/>
<path style="fill:#0065A3;" d="M178.347,154.518h-34.813c-8.284,0-15-6.716-15-15v-34.812c0-8.284,6.716-15,15-15s15,6.716,15,15
	v19.813h19.813c8.284,0,15,6.716,15,15C193.347,147.802,186.631,154.518,178.347,154.518z"/>
<polygon style="fill:#27D8F7;" points="320.268,187.717 320.268,284.117 497,284.117 448.801,187.717 "/>
<polygon style="fill:#00AADF;" points="448.801,187.717 401.666,187.717 401.666,284.117 497,284.117 "/>
<path style="fill:#54E360;" d="M511.995,284.022c-0.003-0.439-0.024-0.876-0.066-1.313c-0.01-0.108-0.024-0.215-0.036-0.322
	c-0.043-0.368-0.098-0.735-0.168-1.101c-0.016-0.084-0.027-0.169-0.045-0.251c-0.082-0.392-0.186-0.778-0.299-1.164
	c-0.043-0.146-0.089-0.291-0.137-0.436c-0.105-0.322-0.223-0.642-0.351-0.958c-0.056-0.139-0.114-0.275-0.175-0.41
	c-0.097-0.221-0.193-0.44-0.303-0.657l-48.199-96.4c-2.541-5.082-7.734-8.292-13.416-8.292H320.268c-8.284,0-15,6.716-15,15v96.4
	v144.6c0,8.284,6.716,15,15,15H497c8.284,0,15-6.716,15-15v-144.6C512,284.085,511.995,284.054,511.995,284.022z M335.268,202.717
	H439.53l33.199,66.4H335.268V202.717z"/>
<path style="fill:#00CC71;" d="M511.995,284.022c-0.003-0.439-0.024-0.876-0.066-1.313c-0.01-0.108-0.024-0.215-0.036-0.322
	c-0.043-0.368-0.098-0.735-0.168-1.101c-0.016-0.084-0.027-0.169-0.045-0.251c-0.082-0.392-0.186-0.778-0.299-1.164
	c-0.043-0.146-0.089-0.291-0.137-0.436c-0.105-0.322-0.223-0.642-0.351-0.958c-0.056-0.139-0.114-0.275-0.175-0.41
	c-0.097-0.221-0.193-0.44-0.303-0.657l-48.199-96.4c-2.541-5.082-7.734-8.292-13.416-8.292h-47.135v30h37.864l33.199,66.4h-71.064
	v174.6H497c8.284,0,15-6.716,15-15v-144.6C512,284.085,511.995,284.054,511.995,284.022z"/>
<circle style="fill:#EDF6FF;" cx="368.47" cy="428.72" r="48.2"/>
<path style="fill:#D6E9FF;" d="M416.666,428.717c0-26.619-21.582-48.199-48.2-48.199v96.398
	C395.084,476.916,416.666,455.339,416.666,428.717z"/>
<path style="fill:#0065A3;" d="M368.467,491.916c-34.848,0-63.199-28.351-63.199-63.199s28.352-63.199,63.199-63.199
	s63.199,28.351,63.199,63.199S403.315,491.916,368.467,491.916z M368.467,395.518c-18.307,0-33.199,14.893-33.199,33.199
	s14.893,33.199,33.199,33.199s33.199-14.893,33.199-33.199S386.773,395.518,368.467,395.518z"/>
<path style="fill:#003E67;" d="M178.347,124.518h-19.813v-19.813c0-8.284-6.716-15-15-15v64.812h34.813c8.284,0,15-6.716,15-15
	S186.631,124.518,178.347,124.518z"/>
<path style="fill:#00AADF;" d="M143.534,20.084v30c49.314,0,89.434,40.12,89.434,89.434c0,49.313-40.119,89.432-89.434,89.432v30
	c65.855,0,119.434-53.577,119.434-119.432C262.968,73.662,209.39,20.084,143.534,20.084z"/>
<g>
	<path style="fill:#003E67;" d="M206.734,428.717c0-34.849-28.352-63.199-63.2-63.199v30c18.307,0,33.2,14.893,33.2,33.199
		s-14.894,33.199-33.2,33.199v30C178.383,491.916,206.734,463.565,206.734,428.717z"/>
	<path style="fill:#003E67;" d="M431.666,428.717c0-34.849-28.351-63.199-63.2-63.199v30c18.307,0,33.2,14.893,33.2,33.199
		s-14.893,33.199-33.2,33.199v30C403.315,491.916,431.666,463.565,431.666,428.717z"/>
</g>
<g>
</g>
<g>
</g>
<g>
</g>
<g>
</g>
<g>
</g>
<g>
</g>
<g>
</g>
<g>
</g>
<g>
</g>
<g>
</g>
<g>
</g>
<g>
</g>
<g>
</g>
<g>
</g>
<g>
</g>
</svg>
