<?xml version="1.0" encoding="utf-8"?>
<!-- Generator: Adobe Illustrator 19.0.0, SVG Export Plug-In . SVG Version: 6.00 Build 0)  -->
<svg version="1.1" id="Capa_1" xmlns="http://www.w3.org/2000/svg" xmlns:xlink="http://www.w3.org/1999/xlink" x="0px" y="0px"
	 viewBox="-183 61.6 473.7 473.7" style="enable-background:new -183 61.6 473.7 473.7;" xml:space="preserve">
<style type="text/css">
	.st0{fill:#234391;}
	.st1{fill:#2C479A;}
	.st2{fill:#F7D12B;}
	.st3{fill:#1B76AF;}
	.st4{fill:#185899;}
	.st5{fill:#EDEEEE;}
</style>
<path class="st0" d="M53.8,61.6v473.7c130.8,0,236.8-106,236.8-236.8C290.7,167.6,184.6,61.6,53.8,61.6z"/>
<path class="st1" d="M53.8,61.6C-77,61.6-183,167.6-183,298.4c0,130.8,106,236.8,236.8,236.8C184.6,535.3,184.6,61.6,53.8,61.6z"/>
<g>
	<polygon class="st2" points="53.4,102.7 59.2,120.5 77.9,120.5 62.8,131.4 68.6,149.2 53.4,138.2 38.3,149.2 44.1,131.4 29,120.5 
		47.7,120.5 	"/>
	<polygon class="st2" points="53.4,438.3 59.2,456.1 77.9,456.1 62.8,467.1 68.6,484.8 53.4,473.9 38.3,484.8 44.1,467.1 29,456.1 
		47.7,456.1 	"/>
	<polygon class="st2" points="145.5,132.4 151.3,150.2 170,150.2 154.9,161.2 160.7,179 145.5,168 130.4,179 136.2,161.2 
		121.1,150.2 139.8,150.2 	"/>
	<polygon class="st2" points="208.4,194.4 214.2,212.2 232.9,212.2 217.7,223.2 223.5,241 208.4,230 193.3,241 199,223.2 
		183.9,212.2 202.6,212.2 	"/>
	<polygon class="st2" points="209.9,351.1 215.7,368.9 234.4,368.9 219.2,379.8 225,397.6 209.9,386.6 194.8,397.6 200.5,379.8 
		185.4,368.9 204.1,368.9 	"/>
	<polygon class="st2" points="-99.2,194.4 -93.5,212.2 -74.8,212.2 -89.9,223.2 -84.1,241 -99.2,230 -114.4,241 -108.6,223.2 
		-123.7,212.2 -105,212.2 	"/>
	<polygon class="st2" points="222.9,269.1 228.7,286.9 247.4,286.9 232.3,297.9 238.1,315.7 222.9,304.7 207.8,315.7 213.6,297.9 
		198.5,286.9 217.2,286.9 	"/>
	<polygon class="st2" points="-113.5,269.1 -107.8,286.9 -89.1,286.9 -104.2,297.9 -98.4,315.7 -113.5,304.7 -128.7,315.7 
		-122.9,297.9 -138,286.9 -119.3,286.9 	"/>
	<polygon class="st2" points="-101.3,351.1 -95.5,368.9 -76.8,368.9 -91.9,379.8 -86.2,397.6 -101.3,386.6 -116.4,397.6 
		-110.6,379.8 -125.7,368.9 -107,368.9 	"/>
	<polygon class="st2" points="148.3,415.7 154,433.5 172.7,433.5 157.6,444.5 163.4,462.3 148.3,451.3 133.1,462.3 138.9,444.5 
		123.8,433.5 142.5,433.5 	"/>
	<polygon class="st2" points="-35.7,132.4 -29.9,150.2 -11.2,150.2 -26.3,161.2 -20.6,179 -35.7,168 -50.8,179 -45,161.2 
		-60.2,150.2 -41.5,150.2 	"/>
	<polygon class="st2" points="-42.5,414.6 -36.7,432.4 -18,432.4 -33.2,443.4 -27.4,461.1 -42.5,450.2 -57.6,461.1 -51.9,443.4 
		-67,432.4 -48.3,432.4 	"/>
</g>
<rect x="171.9" y="343.1" class="st3" width="104.6" height="179.4"/>
<path class="st4" d="M164.4,522.5V343.1c0-4.1,3.3-7.5,7.5-7.5h104.6c4.1,0,7.5,3.3,7.5,7.5v179.4c0,4.1-3.3,7.5-7.5,7.5H171.9
	C167.8,529.9,164.4,526.6,164.4,522.5z M269.1,350.5h-89.7V515h89.7V350.5z"/>
<path class="st5" d="M171.9,358l-14.9-7.5l-44.8-97.2v-52.3c-6.5-4.7-14.4-7.4-22.4-7.5c-13.1,0-37.4,24.3-37.4,52.3
	c1.7,23,6.7,45.7,14.9,67.3H-37.4c-10.3,0-19.9,5.4-25.3,14.1c-8.7,14-4.4,32.5,9.6,41.2c-7.9,4-13.2,11.7-14.1,20.4
	c-1.5,14.3,8.8,27.1,23.1,28.6c-4.6,4.3-7.4,10-8.1,16.2c-1.5,14.3,8.8,27.1,23.1,28.6c-5.3,5-8.3,11.9-8.3,19.1
	c0.1,14.4,11.8,26.1,26.2,26H127c16.1-0.2,31.8-5.4,44.8-14.9V358z"/>
<path class="st4" d="M-44.9,481.4c0-5.2,1.2-10.3,3.5-14.9c-11.3-5.7-18.4-17.2-18.5-29.9c0-5.2,1.2-10.3,3.5-14.9
	c-3.2-1.6-6.1-3.7-8.6-6.2c-13.1-13-13.2-34.2-0.2-47.3c-6.3-6.8-9.7-15.8-9.7-25.1c0-20.6,16.7-37.4,37.4-37.4h94.2
	c-6.8-19.3-10.8-39.4-12-59.8c0-32.4,27.6-59.8,44.8-59.8c9.8,0.1,19.2,3.3,27.1,9.1c1.8,1.4,2.8,3.6,2.8,5.8v50.7l43.1,93.3
	l12.6,6.3c2.5,1.3,4.1,3.9,4.1,6.7v134.5c0,2-0.8,3.9-2.2,5.3c-14.4,11-32,17-50.1,17.1H-11.2C-29.8,515-44.9,499.9-44.9,481.4z
	 M164.4,489.1V362.6l-10.8-5.4c-1.5-0.8-2.7-2-3.4-3.5l-44.8-97.2c-0.5-1-0.7-2.1-0.7-3.1v-48.3c-4.6-2.6-9.7-4-14.9-4.1
	c-8.2,0-29.9,20.4-29.9,44.8c1.7,22.1,6.6,43.9,14.5,64.6c0.3,0.8,0.5,1.7,0.5,2.7c0,4.1-3.3,7.5-7.5,7.5H-37.4
	c-7.7,0.1-14.8,4-18.8,10.6c-6.5,10.5-3.3,24.3,7.2,30.9c1.2,0.7,2.1,1.7,2.7,2.9c1.9,3.7,0.5,8.2-3.2,10.1
	c-5.7,2.8-9.5,8.3-10.2,14.6c-1.1,10.2,6.3,19.3,16.5,20.4c1.8,0.2,3.4,1,4.6,2.3c2.8,3,2.7,7.7-0.3,10.6c-3.3,3-5.3,7.2-5.8,11.6
	c-1.1,10.2,6.3,19.3,16.5,20.4c1.8,0.2,3.4,1,4.6,2.3c2.8,3,2.7,7.7-0.3,10.6c-3.8,3.5-5.9,8.4-5.9,13.5c0,10.3,8.4,18.7,18.7,18.7
	H127C140.2,499.7,153.1,495.9,164.4,489.1L164.4,489.1z"/>
<path d="M164.4,522.5V343.1c0-4.1,3.3-7.5,7.5-7.5h104.6c4.1,0,7.5,3.3,7.5,7.5v179.4c0,4.1-3.3,7.5-7.5,7.5H171.9
	C167.8,529.9,164.4,526.6,164.4,522.5z M269.1,350.5h-89.7V515h89.7V350.5z"/>
<path d="M-44.9,481.4c0-5.2,1.2-10.3,3.5-14.9c-16.5-8.3-23.2-28.3-14.9-44.8c-3.2-1.6-6.1-3.7-8.6-6.2c-13.1-13-13.2-34.2-0.1-47.3
	c-6.3-6.8-9.7-15.8-9.7-25.1c0-20.6,16.7-37.4,37.4-37.4h94.2c-6.8-19.3-10.8-39.4-12-59.8c0-32.4,27.6-59.8,44.8-59.8
	c9.8,0.1,19.2,3.3,27.1,9.1c1.8,1.4,2.8,3.6,2.8,5.8v50.7l43.1,93.3l12.6,6.3c3.7,1.8,5.2,6.3,3.3,10c-1.8,3.7-6.3,5.2-10,3.3
	l-14.9-7.5c-1.5-0.8-2.7-2-3.4-3.5l-44.8-97.2c-0.5-1-0.7-2.1-0.7-3.1v-48.3c-4.6-2.6-9.7-4-14.9-4.1c-8.2,0-29.9,20.4-29.9,44.8
	c1.7,22.1,6.6,43.9,14.5,64.6c0.3,0.8,0.5,1.7,0.5,2.7c0,4.1-3.3,7.5-7.5,7.5H-37.4c-7.7,0.1-14.8,4-18.9,10.6
	c-6.5,10.5-3.3,24.3,7.2,30.9c1.2,0.7,2.1,1.7,2.7,2.9c1.9,3.7,0.5,8.2-3.2,10.1c-5.7,2.8-9.5,8.3-10.2,14.6
	c-1.1,10.2,6.3,19.3,16.5,20.4c1.8,0.2,3.4,1,4.6,2.3c2.8,3,2.7,7.7-0.3,10.6c-3.3,3-5.3,7.2-5.8,11.6c-1.1,10.2,6.3,19.3,16.5,20.4
	c1.8,0.2,3.4,1,4.6,2.3c2.8,3,2.7,7.7-0.3,10.6c-3.8,3.5-5.9,8.4-5.9,13.5c0,10.3,8.4,18.7,18.7,18.7H127c14.2-0.2,28-4.6,39.6-12.8
	c2.9-2.8,7.5-2.8,10.4,0c3,2.9,3.1,7.6,0.2,10.6c-14.4,11-32,17-50.1,17.1H-11.2C-29.8,515-44.9,499.9-44.9,481.4z"/>
</svg>
