<svg id="Layer_2" height="512" viewBox="0 0 128 128" width="512" xmlns="http://www.w3.org/2000/svg" data-name="Layer 2"><path d="m3.337 59.481 2.868-3.581a7.228 7.228 0 0 0 1.3-6.543l-1.28-4.39a7.229 7.229 0 0 1 3.463-8.367l4.009-2.2a7.229 7.229 0 0 0 3.712-5.548l.5-4.555a7.229 7.229 0 0 1 6.394-6.394l4.554-.5a7.229 7.229 0 0 0 5.55-3.703l2.2-4.009a7.229 7.229 0 0 1 8.364-3.466l4.39 1.28a7.228 7.228 0 0 0 6.543-1.3l3.581-2.868a7.227 7.227 0 0 1 9.038 0l3.577 2.868a7.231 7.231 0 0 0 6.543 1.3l4.39-1.281a7.229 7.229 0 0 1 8.367 3.464l2.2 4.009a7.229 7.229 0 0 0 5.548 3.712l4.555.5a7.229 7.229 0 0 1 6.394 6.394l.5 4.554a7.229 7.229 0 0 0 3.712 5.548l4.009 2.2a7.229 7.229 0 0 1 3.466 8.364l-1.28 4.39a7.228 7.228 0 0 0 1.3 6.543l2.868 3.581a7.227 7.227 0 0 1 0 9.038l-2.872 3.579a7.231 7.231 0 0 0 -1.3 6.543l1.281 4.39a7.229 7.229 0 0 1 -3.466 8.364l-4.009 2.2a7.226 7.226 0 0 0 -3.712 5.548l-.5 4.555a7.229 7.229 0 0 1 -6.394 6.394l-4.554.5a7.229 7.229 0 0 0 -5.548 3.712l-2.2 4.009a7.229 7.229 0 0 1 -8.364 3.466l-4.39-1.28a7.228 7.228 0 0 0 -6.543 1.3l-3.581 2.868a7.227 7.227 0 0 1 -9.038 0l-3.582-2.869a7.231 7.231 0 0 0 -6.543-1.3l-4.391 1.281a7.228 7.228 0 0 1 -8.363-3.466l-2.2-4.009a7.229 7.229 0 0 0 -5.548-3.712l-4.555-.5a7.229 7.229 0 0 1 -6.39-6.394l-.5-4.554a7.229 7.229 0 0 0 -3.71-5.553l-4.012-2.193a7.229 7.229 0 0 1 -3.466-8.364l1.28-4.39a7.228 7.228 0 0 0 -1.3-6.543l-2.865-3.584a7.227 7.227 0 0 1 0-9.038z" fill="#a7adf0"/><circle cx="64" cy="64" fill="#fff5cc" r="45.918"/><path d="m57.534 86.928-25.848-25.848 7.071-7.071 18.777 18.777 31.715-31.714 7.07 7.071z" fill="#57a4ff"/></svg>