<svg height="512pt" viewBox="0 0 512 512" width="512pt" xmlns="http://www.w3.org/2000/svg"><path d="m240 512h-192c-26.464844 0-48-21.535156-48-48v-416c0-26.464844 21.535156-48 48-48h192c26.464844 0 48 21.535156 48 48v416c0 26.464844-21.535156 48-48 48zm0 0" fill="#d7dee2"/><path d="m0 144h288v224h-288zm0 0" fill="#40a2e7"/><path d="m128 64h96v32h-96zm0 0" fill="#fff"/><path d="m64 64h32v32h-32zm0 0" fill="#fff"/><path d="m288 192v128h-288v-112c13.28125-10.078125 29.921875-16 48-16zm0 0" fill="#168de2"/><path d="m480 185.886719-87.152344-43.582031 14.320313-28.625 37.902343 18.960937c-12.574218-57.472656-63.886718-100.640625-125.070312-100.640625v-32c88.222656 0 160 71.777344 160 160zm0 0" fill="#e76e54"/><path d="m0 464v-192c0-26.464844 21.535156-48 48-48h416c26.464844 0 48 21.535156 48 48v192c0 26.464844-21.535156 48-48 48h-416c-26.464844 0-48-21.535156-48-48zm0 0" fill="#d7dee2"/><path d="m144 224h224v288h-224zm0 0" fill="#40a2e7"/><g fill="#fff"><path d="m416 352h32v96h-32zm0 0"/><path d="m416 288h32v32h-32zm0 0"/><path d="m56 352h32v32h-32zm0 0"/></g><path d="m144 480h224v32h-224zm0 0" fill="#168de2"/><path d="m0 432v32c0 26.464844 21.535156 48 48 48h96v-32h-96c-26.464844 0-48-21.535156-48-48zm0 0" fill="#bfc9d1"/><path d="m464 480h-96v32h96c26.464844 0 48-21.535156 48-48v-32c0 26.464844-21.535156 48-48 48zm0 0" fill="#bfc9d1"/></svg>