<?xml version="1.0" encoding="utf-8"?>
<!-- Generator: Adobe Illustrator 19.0.0, SVG Export Plug-In . SVG Version: 6.00 Build 0)  -->
<svg version="1.1" id="Layer_1" xmlns="http://www.w3.org/2000/svg" xmlns:xlink="http://www.w3.org/1999/xlink" x="0px" y="0px"
	 viewBox="0 0 1080 1080" style="enable-background:new 0 0 1080 1080;" xml:space="preserve">
<style type="text/css">
	.st0{fill:#FF3300;}
</style>
<g id="XMLID_9_">
	<path id="XMLID_15_" class="st0" d="M585.7,593c-0.2,0.1-0.2,0.2-0.2,0.2c-0.3,0.2-0.3,0.3-0.5,0.5c-11.9,11.8-28.2,19.1-46.4,19.2
		c-0.1,0-0.3,0-0.5,0c-0.1,0-0.2,0-0.4,0c-18.1-0.1-34.4-7.4-46.4-19.2c-0.1-0.1-0.2-0.2-0.3-0.4c-0.1-0.1-0.3-0.2-0.3-0.2
		c-11.9-11.9-19.2-28.3-19.3-46.4c0-0.1,0.1-0.3,0.1-0.5c0-0.1-0.1-0.3-0.1-0.4c0.1-18.1,7.4-34.5,19.3-46.4c0,0,0.2-0.2,0.3-0.3
		c0,0,0.2-0.2,0.3-0.3c12-11.8,28.3-19.1,46.4-19.2c0.2,0,0.3,0,0.4,0c0.1,0,0.3,0,0.5,0c18.2,0.1,34.5,7.4,46.4,19.2
		c0.1,0.1,0.2,0.3,0.3,0.3c0.1,0.1,0.2,0.2,0.2,0.2c12,12.1,19.3,28.4,19.3,46.5c0,0.2-0.1,0.3-0.1,0.4c0,0.1,0.1,0.3,0.1,0.5
		C604.8,564.7,597.5,581,585.7,593 M672,532.4h-45.5c-2.2-14.4-7.9-27.7-16.2-39l32.2-32.3c5.4-5.3,5.4-14,0-19.3
		c-5.3-5.4-13.9-5.4-19.2,0L591,474.1c-11.4-8.3-24.6-14-39.1-16.2v-45.6c0-7.5-6.1-13.6-13.7-13.6c-7.5,0-13.6,6.1-13.6,13.6v45.6
		c-14.4,2.3-27.8,7.9-39.1,16.2l-32.3-32.3c-5.3-5.4-13.9-5.4-19.3,0c-5.4,5.3-5.4,14,0,19.3l32.2,32.3c-8.3,11.3-14,24.6-16.2,39
		h-45.6c-7.5,0-13.6,6.1-13.6,13.7c0,7.5,6.1,13.6,13.6,13.6H450c2.2,14.5,7.9,27.8,16.2,39.1L434,631.1c-5.4,5.3-5.4,14,0,19.3
		c2.6,2.7,6.1,4,9.6,4c3.5,0,7-1.4,9.6-4l32.3-32.2c11.3,8.3,24.6,14,39.1,16.2v45.6c0,7.5,6.1,13.7,13.6,13.7
		c7.5,0,13.7-6.1,13.7-13.7v-45.6c14.5-2.2,27.8-8,39.1-16.2l32.3,32.2c2.6,2.7,6.2,4,9.6,4c3.5,0,7-1.4,9.6-4
		c5.4-5.3,5.4-14,0-19.3l-32.2-32.3c8.3-11.3,14-24.6,16.2-39.1H672c7.6,0,13.7-6.1,13.7-13.6C685.8,538.6,679.6,532.4,672,532.4"/>
	<path id="XMLID_5_" class="st0" d="M529.6,549.1C529.7,549,529.7,549,529.6,549.1c6.6-4.5,10.4-11.8,10.4-19.5
		c0-8-4-15.4-10.6-19.8c-1.7-1-3.9-0.6-4.8,1.1c-1.1,1.6-0.6,3.8,1,4.8c4.8,3.1,7.7,8.3,7.7,13.9c0,5.4-2.7,10.5-7.3,13.6
		c0,0-0.1,0.1-0.2,0.1c-6.5,4.3-10.3,11.6-10.3,19.4c0,8,4.1,15.4,10.8,19.7c0.6,0.4,1.2,0.5,1.9,0.5c1.1,0,2.3-0.5,2.9-1.6
		c1.1-1.6,0.6-3.7-1-4.7c-4.7-3.1-7.6-8.3-7.6-13.9C522.4,557.3,525.1,552.1,529.6,549.1"/>
	<path id="XMLID_4_" class="st0" d="M508.8,549.1C508.8,549,508.8,549,508.8,549.1c6.6-4.5,10.4-11.8,10.4-19.5
		c0-8-4-15.4-10.7-19.8c-1.6-1-3.8-0.6-4.8,1.1c-1.1,1.6-0.6,3.8,1,4.8c4.7,3.1,7.6,8.3,7.6,13.9c0,5.4-2.7,10.5-7.2,13.6
		c0,0-0.1,0.1-0.1,0.1c-6.5,4.3-10.4,11.6-10.4,19.4c0,8,4,15.4,10.7,19.7c0.6,0.4,1.2,0.5,1.9,0.5c1.1,0,2.2-0.5,2.9-1.6
		c1-1.6,0.6-3.7-1-4.7c-4.8-3.1-7.6-8.3-7.6-13.9C501.5,557.3,504.2,552.1,508.8,549.1"/>
	<path id="XMLID_3_" class="st0" d="M550.5,549.1c0.1-0.1,0.1-0.1,0.2-0.1c6.4-4.4,10.4-11.7,10.4-19.4c0-8-4-15.4-10.7-19.8
		c-1.6-1-3.8-0.6-4.8,1.1c-1.1,1.6-0.5,3.8,1,4.8c4.8,3.1,7.6,8.3,7.6,13.9c0,5.4-2.7,10.5-7.2,13.6c0,0-0.1,0.1-0.2,0.1
		c-6.5,4.3-10.3,11.6-10.3,19.4c0,8,4,15.4,10.7,19.7c0.5,0.4,1.2,0.5,1.9,0.5c1.1,0,2.2-0.5,3-1.6c1-1.6,0.5-3.7-1.1-4.7
		c-4.7-3.1-7.5-8.3-7.5-13.9C543.3,557.3,546.1,552.1,550.5,549.1"/>
	<path id="XMLID_2_" class="st0" d="M570.1,510.7c-1.6-1-3.7-0.6-4.8,1.1c-1,1.6-0.6,3.7,1.1,4.8c4.7,3.1,7.5,8.3,7.5,13.9
		c0,5.4-2.7,10.5-7.2,13.6c0,0-0.1,0.1-0.2,0.1c-6.5,4.3-10.3,11.6-10.3,19.4c0,8,3.9,15.4,10.7,19.8c0.6,0.4,1.2,0.5,1.8,0.5
		c1.2,0,2.3-0.5,2.9-1.6c1.1-1.6,0.6-3.7-1-4.7c-4.7-3.1-7.5-8.3-7.5-13.9c0-5.4,2.7-10.5,7.2-13.6c0-0.1,0.1-0.1,0.1-0.1
		c6.5-4.4,10.4-11.7,10.4-19.5C580.9,522.4,576.9,515.1,570.1,510.7"/>
</g>
</svg>
