<?xml version="1.0" encoding="utf-8"?>
<!-- Generator: Adobe Illustrator 19.0.0, SVG Export Plug-In . SVG Version: 6.00 Build 0)  -->
<svg version="1.1" id="Layer_1" xmlns="http://www.w3.org/2000/svg" xmlns:xlink="http://www.w3.org/1999/xlink" x="0px" y="0px"
	 viewBox="-164 42.3 512 512" style="enable-background:new -164 42.3 512 512;" xml:space="preserve">
<style type="text/css">
	.st0{fill:#247FB7;}
	.st1{fill:#1E6FA8;}
	.st2{fill:#95C7DF;}
	.st3{fill:#76B7D5;}
	.st4{fill:#58A8CE;}
</style>
<g id="surface1">
	<path class="st0" d="M20.6,236.7v-18.9h-94.7v18.9H20.6z"/>
	<path class="st0" d="M34.8,250.9v94.7h18.9v-94.7H34.8z"/>
	<path class="st1" d="M30.1,217.8v-18.9H-83.5v18.9H30.1z"/>
	<path class="st0" d="M-74.1,359.8v18.9h94.7v-18.9H-74.1z"/>
	<path class="st1" d="M-83.5,378.7v18.9H30.1v-18.9H-83.5z"/>
	<path class="st1" d="M72.7,241.5H53.7v113.6h18.9V241.5z"/>
	<path class="st0" d="M-88.3,250.9h-18.9v94.7h18.9V250.9z"/>
	<path class="st1" d="M-107.2,241.5h-18.9v113.6h18.9V241.5z"/>
	<path class="st2" d="M11.1,260.4v-23.7h-37.9v56.8h61.5v-33.1H11.1z"/>
	<path class="st3" d="M-26.7,359.8h37.9v-23.7h23.7v-42.6h-61.5V359.8z"/>
	<path class="st4" d="M-88.3,293.5v42.6h23.7v23.7h37.9v-66.3H-88.3z"/>
	<path class="st3" d="M-26.7,236.7h-37.9v23.7h-23.7v33.1h61.5V236.7z"/>
	<path class="st2" d="M-26.7,161h37.9v37.9h-37.9V161z"/>
	<path class="st3" d="M-64.6,161h37.9v37.9h-37.9V161z"/>
	<path class="st2" d="M72.7,260.4h37.9v33.1H72.7V260.4z"/>
	<path class="st3" d="M72.7,293.5h37.9v42.6H72.7V293.5z"/>
	<path class="st4" d="M-64.6,397.7h37.9v37.9h-37.9V397.7z"/>
	<path class="st3" d="M-26.7,397.7h37.9v37.9h-37.9V397.7z"/>
	<path class="st4" d="M-164,293.5h37.9v42.6H-164V293.5z"/>
	<path class="st3" d="M-164,260.4h37.9v33.1H-164V260.4z"/>
</g>
<g id="surface1_1_">
	<path class="st0" d="M257.1,236.7v-18.9h-94.7v18.9H257.1z"/>
	<path class="st0" d="M271.3,250.9v94.7h18.9v-94.7H271.3z"/>
	<path class="st1" d="M266.5,217.8v-18.9H152.9v18.9H266.5z"/>
	<path class="st0" d="M162.4,359.8v18.9h94.7v-18.9H162.4z"/>
	<path class="st1" d="M152.9,378.7v18.9h113.6v-18.9H152.9z"/>
	<path class="st1" d="M309.1,241.5h-18.9v113.6h18.9V241.5z"/>
	<path class="st0" d="M148.2,250.9h-18.9v94.7h18.9V250.9z"/>
	<path class="st1" d="M129.3,241.5h-18.9v113.6h18.9V241.5z"/>
	<path class="st2" d="M247.6,260.4v-23.7h-37.9v56.8h61.5v-33.1H247.6z"/>
	<path class="st3" d="M209.7,359.8h37.9v-23.7h23.7v-42.6h-61.5V359.8z"/>
	<path class="st4" d="M148.2,293.5v42.6h23.7v23.7h37.9v-66.3H148.2z"/>
	<path class="st3" d="M209.7,236.7h-37.9v23.7h-23.7v33.1h61.5V236.7z"/>
	<path class="st2" d="M209.7,161h37.9v37.9h-37.9V161z"/>
	<path class="st3" d="M171.9,161h37.9v37.9h-37.9V161z"/>
	<path class="st2" d="M309.1,260.4H347v33.1h-37.9V260.4z"/>
	<path class="st3" d="M309.1,293.5H347v42.6h-37.9V293.5z"/>
	<path class="st4" d="M171.9,397.7h37.9v37.9h-37.9V397.7z"/>
	<path class="st3" d="M209.7,397.7h37.9v37.9h-37.9V397.7z"/>
	<path class="st4" d="M72.5,293.5h37.9v42.6H72.5V293.5z"/>
	<path class="st3" d="M72.5,260.4h37.9v33.1H72.5V260.4z"/>
</g>
</svg>
