<?xml version="1.0" encoding="utf-8"?>
<!-- Generator: Adobe Illustrator 19.0.0, SVG Export Plug-In . SVG Version: 6.00 Build 0)  -->
<svg version="1.1" id="Capa_1" xmlns="http://www.w3.org/2000/svg" xmlns:xlink="http://www.w3.org/1999/xlink" x="0px" y="0px"
	 viewBox="-164 42.3 512 512" style="enable-background:new -164 42.3 512 512;" xml:space="preserve">
<style type="text/css">
	.st0{fill:#F7C250;}
	.st1{fill:#E9B14D;}
	.st2{fill:#F5F5F5;}
	.st3{fill:#EAEAEA;}
	.st4{fill:#C1D0D5;}
	.st5{fill:#52B156;}
	.st6{fill:#F6F8F8;}
	.st7{fill:#E0E8ED;}
</style>
<g>
	<path class="st0" d="M173,535.4v-432c0-10.4-8.5-18.9-18.9-18.9H-110c-10.4,0-18.9,8.5-18.9,18.9v432c0,10.4,8.5,18.9,18.9,18.9
		h264.1C164.5,554.3,173,545.8,173,535.4L173,535.4z"/>
	<path class="st1" d="M216.1,84.4h-63.3c10.4,0,18.9,8.5,18.9,18.9v432c0,10.4-8.5,18.9-18.9,18.9h63.3c10.4,0,18.9-8.5,18.9-18.9
		v-432C235,92.9,226.6,84.4,216.1,84.4z"/>
	<path class="st2" d="M-98,516.6V122.1c0-3.7,3-6.8,6.8-6.8h288.6c3.7,0,6.8,3,6.8,6.8v394.5c0,3.7-3,6.8-6.8,6.8H-91.3
		C-95,523.4-98,520.3-98,516.6z"/>
	<path class="st3" d="M197.3,115.3H134c3.7,0,6.8,3,6.8,6.8v394.5c0,3.7-3,6.8-6.8,6.8h63.3c3.7,0,6.8-3,6.8-6.8V122.1
		C204.1,118.3,201.1,115.3,197.3,115.3z"/>
	<path class="st4" d="M93.2,65.8v-10c0-7.5-6.1-13.6-13.6-13.6H26.4c-7.5,0-13.6,6.1-13.6,13.6v10c0,3.1-2.5,5.6-5.6,5.6h-22.1
		c-7.4,0-13.3,6-13.3,13.3v30.6h162.4V84.7c0-7.4-6-13.3-13.3-13.3H98.8C95.7,71.4,93.2,68.9,93.2,65.8L93.2,65.8z"/>
</g>
<g>
	<g>
		<path class="st5" d="M-58.7,225.1v-59.5c0-6.6,5.3-11.9,11.9-11.9h59.5c6.6,0,11.9,5.3,11.9,11.9v59.5c0,6.6-5.3,11.9-11.9,11.9
			h-59.5C-53.4,237-58.7,231.7-58.7,225.1z"/>
		<path class="st5" d="M-58.7,349.1v-59.5c0-6.6,5.3-11.9,11.9-11.9h59.5c6.6,0,11.9,5.3,11.9,11.9v59.5c0,6.6-5.3,11.9-11.9,11.9
			h-59.5C-53.4,361.1-58.7,355.7-58.7,349.1z"/>
		<path class="st5" d="M-58.7,473.2v-59.5c0-6.6,5.3-11.9,11.9-11.9h59.5c6.6,0,11.9,5.3,11.9,11.9v59.5c0,6.6-5.3,11.9-11.9,11.9
			h-59.5C-53.4,485.1-58.7,479.7-58.7,473.2z"/>
	</g>
	<g>
		<path class="st6" d="M-22,216.6C-22.1,216.6-22.1,216.6-22,216.6c-3.4,0-6.7-1.7-8.7-4.4l-9-12.4c-2.5-3.4-1.8-8.3,1.7-10.8
			c3.4-2.5,8.3-1.8,10.8,1.7l5.2,7.2l15.3-20.8c2.5-3.4,7.4-4.2,10.8-1.6c3.4,2.5,4.2,7.4,1.6,10.8l-19.1,26
			C-15.4,215-18.6,216.6-22,216.6z"/>
	</g>
	<g>
		<path class="st6" d="M-22.1,343.4C-22.1,343.4-22.1,343.4-22.1,343.4c-3.4,0-6.7-1.7-8.7-4.4l-9-12.4c-2.5-3.5-1.8-8.3,1.7-10.8
			c3.4-2.5,8.3-1.8,10.8,1.7l5.2,7.2l15.3-20.8c2.5-3.4,7.4-4.2,10.8-1.6c3.4,2.5,4.2,7.4,1.6,10.8l-19.1,26
			C-15.4,341.7-18.6,343.4-22.1,343.4L-22.1,343.4z"/>
	</g>
	<g>
		<path class="st6" d="M-22.1,464.7C-22.1,464.7-22.1,464.7-22.1,464.7c-3.4,0-6.7-1.7-8.7-4.4l-9-12.4c-2.5-3.5-1.8-8.3,1.7-10.8
			c3.5-2.5,8.3-1.8,10.8,1.7l5.2,7.2l15.3-20.8c2.5-3.4,7.4-4.2,10.8-1.6c3.4,2.5,4.2,7.4,1.6,10.8l-19.1,26
			C-15.4,463.1-18.6,464.7-22.1,464.7L-22.1,464.7z"/>
	</g>
</g>
<g>
	<g>
		<path class="st7" d="M158.7,186.9H63.2c-4.3,0-7.7-3.5-7.7-7.7s3.5-7.7,7.7-7.7h95.5c4.3,0,7.7,3.5,7.7,7.7S163,186.9,158.7,186.9
			z"/>
	</g>
	<g>
		<path class="st7" d="M110.9,219.2H63.2c-4.3,0-7.7-3.5-7.7-7.7s3.5-7.7,7.7-7.7h47.8c4.3,0,7.7,3.5,7.7,7.7
			S115.2,219.2,110.9,219.2z"/>
	</g>
</g>
<g>
	<g>
		<path class="st7" d="M127.3,310.9H63.2c-4.3,0-7.7-3.5-7.7-7.7s3.5-7.7,7.7-7.7h64.1c4.3,0,7.7,3.5,7.7,7.7
			S131.5,310.9,127.3,310.9z"/>
	</g>
	<g>
		<path class="st7" d="M110.9,343.2H63.2c-4.3,0-7.7-3.5-7.7-7.7s3.5-7.7,7.7-7.7h47.8c4.3,0,7.7,3.5,7.7,7.7
			S115.2,343.2,110.9,343.2z"/>
	</g>
</g>
<g>
	<g>
		<path class="st7" d="M127.3,427.9H63.2c-4.3,0-7.7-3.5-7.7-7.7s3.5-7.7,7.7-7.7h64.1c4.3,0,7.7,3.5,7.7,7.7
			S131.5,427.9,127.3,427.9z"/>
	</g>
	<g>
		<path class="st7" d="M110.9,460.2H63.2c-4.3,0-7.7-3.5-7.7-7.7s3.5-7.7,7.7-7.7h47.8c4.3,0,7.7,3.5,7.7,7.7
			S115.2,460.2,110.9,460.2z"/>
	</g>
</g>
</svg>
