<?xml version="1.0" encoding="utf-8"?>
<!-- Generator: Adobe Illustrator 19.0.0, SVG Export Plug-In . SVG Version: 6.00 Build 0)  -->
<svg version="1.1" id="Layer_1" xmlns="http://www.w3.org/2000/svg" xmlns:xlink="http://www.w3.org/1999/xlink" x="0px" y="0px"
	 viewBox="0 0 595.3 841.9" style="enable-background:new 0 0 595.3 841.9;" xml:space="preserve">
<style type="text/css">
	.st0{fill:#00947F;}
	.st1{fill:#FFFFFF;}
	.st2{fill:none;stroke:#00947F;stroke-miterlimit:10;}
</style>
<g>
	<g>
		<polygon class="st0" points="312.7,687 316,687 316,687.9 312.7,687.9 312.7,688.9 316.3,688.9 316.3,690 310.6,690 310.6,685 
			316.3,685 316.3,686.1 312.7,686.1 		"/>
		<path class="st0" d="M325.4,685v3.3c0,1.3-1,1.7-3.3,1.7c-3.1,0-3.5-0.5-3.5-1.7V685h2.1v3.3c0,0.6,0.5,0.6,1.4,0.6
			c0.9,0,1.2,0,1.2-0.6V685H325.4"/>
		<path class="st0" d="M327.7,685h4c1.8,0,2.7,0.3,2.7,1.5c0,0.8,0,1.3-1.5,1.5v0.1c0.9,0,1.4,0.3,1.4,0.9v1h-2.1v-0.7
			c0-0.4-0.2-0.6-0.9-0.6h-1.6v1.3h-2.1V685 M331.4,687.5c0.9,0,0.9-0.2,0.9-0.8c0-0.4-0.2-0.6-0.9-0.6h-1.6v1.3H331.4z"/>
		<path class="st0" d="M336.2,688.2v-1.4c0-1.5,1.5-1.8,3.6-1.8c2.1,0,3.6,0.3,3.6,1.8v1.4c0,1.5-1.5,1.8-3.6,1.8
			C337.7,690,336.2,689.7,336.2,688.2 M341.3,688.1v-1.1c0-0.7-0.4-0.8-1.5-0.8c-1.1,0-1.4,0.1-1.5,0.8v1.1c0,0.7,0.4,0.8,1.5,0.8
			C340.9,688.9,341.3,688.8,341.3,688.1"/>
		<polygon class="st0" points="350.3,685 352.4,685 350.1,690 346.9,690 344.7,685 346.8,685 348.5,688.8 348.5,688.8 		"/>
		<polygon class="st0" points="356,687 359.4,687 359.4,687.9 356,687.9 356,688.9 359.6,688.9 359.6,690 353.9,690 353.9,685 
			359.6,685 359.6,686.1 356,686.1 		"/>
		<polygon class="st0" points="364.1,690 362,690 362,685 365.5,685 367.8,688.8 367.9,688.8 367.7,685 369.8,685 369.8,690 
			366.3,690 364.1,686.2 364,686.2 		"/>
		<polygon class="st0" points="375.6,690 373.5,690 373.5,686.2 371.5,686.2 371.5,685 377.7,685 377.7,686.2 375.6,686.2 		"/>
		<path class="st0" d="M302.5,700.2h3.7c1.4,0,1.7,0.7,1.7,1.7c0,0.5,0,1.7-1.8,1.7h-2.8v2.1h-0.8V700.2 M303.4,700.7v2.3h2.1
			c1.1,0,1.6,0,1.6-1.1c0-1.1-0.3-1.2-1.3-1.2H303.4z"/>
		<polygon class="st0" points="309.9,702.6 313.6,702.6 313.6,703.1 309.9,703.1 309.9,705.1 313.8,705.1 313.8,705.7 309.1,705.7 
			309.1,700.2 313.8,700.2 313.8,700.7 309.9,700.7 		"/>
		<path class="st0" d="M316,705.7h-0.8v-5.5h3.3c1.6,0,2.2,0.3,2.2,1.6c0,0.8-0.1,1.3-1.3,1.5v0c0.8,0,1.2,0.4,1.2,1v1.5h-0.8v-1.2
			c0-0.7-0.2-1-1.2-1H316V705.7 M318.5,702.9c1.3,0,1.4-0.3,1.4-1.2c0-0.7-0.1-1-1.4-1H316v2.2H318.5z"/>
		<polygon class="st0" points="323.1,702.6 326.6,702.6 326.6,703.2 323.1,703.2 323.1,705.7 322.3,705.7 322.3,700.2 326.7,700.2 
			326.7,700.7 323.1,700.7 		"/>
		<path class="st0" d="M331.1,700.1c1.8,0,2.4,0.5,2.4,1.9v2c0,1.3-0.6,1.8-2.4,1.8h-1c-1.7,0-2.3-0.5-2.3-1.8v-2
			c0-1.4,0.5-1.8,2.3-1.9H331.1 M330.1,700.7c-1.2,0-1.5,0.2-1.5,1.3v2c0,1.1,0.5,1.2,1.5,1.2h1c1.1,0,1.5-0.1,1.5-1.2v-2
			c0-1.1-0.3-1.3-1.5-1.3H330.1z"/>
		<path class="st0" d="M335.7,705.7h-0.8v-5.5h3.3c1.6,0,2.2,0.3,2.2,1.6c0,0.8-0.1,1.3-1.3,1.5v0c0.8,0,1.2,0.4,1.2,1v1.5h-0.8
			v-1.2c0-0.7-0.2-1-1.2-1h-2.6V705.7 M338.2,702.9c1.3,0,1.4-0.3,1.4-1.2c0-0.7-0.1-1-1.4-1h-2.5v2.2H338.2z"/>
		<polygon class="st0" points="346.4,705.7 345.6,705.7 342.8,700.6 342.8,700.6 342.8,705.7 342,705.7 342,700.2 343.4,700.2 
			346,704.9 348.5,700.2 350,700.2 350,705.7 349.1,705.7 349.1,700.6 349.1,700.6 		"/>
		<path class="st0" d="M352.5,704.5l-0.6,1.2h-0.9l2.6-5.5h1.2l2.7,5.5h-0.9l-0.6-1.2H352.5z M354.3,700.7l-1.6,3.3h3.2L354.3,700.7
			z"/>
		<polygon class="st0" points="364.9,705.7 363.6,705.7 359.5,700.7 359.5,700.7 359.5,705.7 358.7,705.7 358.7,700.2 360,700.2 
			364.1,705.2 364.1,705.2 364.1,700.2 364.9,700.2 		"/>
		<path class="st0" d="M368.5,705.7c-1.3,0-2.1-0.6-2.1-1.7v-2.1c0-1.6,1.3-1.7,3-1.7h0.7c1.5,0,2,0.5,2,1.6v0.2h-0.8v-0.2
			c0-0.8-0.2-1.1-1.3-1.1h-0.5c-1.7,0-2.3,0.2-2.3,1.2v1.5c0,1.3,0.1,1.8,1.4,1.8h1c1.3,0,1.7-0.1,1.7-0.9v-0.4h0.8v0.5
			c0,1.3-1.1,1.4-2.5,1.4H368.5"/>
		<polygon class="st0" points="373.9,702.6 377.6,702.6 377.6,703.1 373.9,703.1 373.9,705.1 377.8,705.1 377.8,705.7 373.1,705.7 
			373.1,700.2 377.8,700.2 377.8,700.7 373.9,700.7 		"/>
		<path class="st0" d="M308.1,698c-1.3,0-2.1-0.6-2.1-1.7v-2.1c0-1.6,1.3-1.7,3-1.7h0.7c1.5,0,2,0.5,2,1.6v0.2h-0.8V694
			c0-0.8-0.2-1.1-1.3-1.1h-0.5c-1.7,0-2.3,0.2-2.3,1.2v1.5c0,1.3,0.1,1.8,1.4,1.8h1c1.3,0,1.7-0.1,1.7-0.9v-0.4h0.8v0.5
			c0,1.3-1.1,1.4-2.5,1.4H308.1"/>
		<polygon class="st0" points="316.1,694.9 319.8,694.9 319.8,695.4 316.1,695.4 316.1,697.4 319.9,697.4 319.9,698 315.3,698 
			315.3,692.5 319.9,692.5 319.9,693 316.1,693 		"/>
		<path class="st0" d="M324.2,698h-0.8v-5.5h3.3c1.6,0,2.2,0.3,2.2,1.6c0,0.8-0.1,1.3-1.3,1.5v0c0.8,0,1.2,0.4,1.2,1v1.5h-0.8v-1.2
			c0-0.7-0.2-1-1.2-1h-2.6V698 M326.8,695.2c1.3,0,1.4-0.3,1.4-1.2c0-0.7-0.1-1-1.4-1h-2.5v2.2H326.8z"/>
		<polygon class="st0" points="334.8,698 334,698 334,693 331.7,693 331.7,692.5 337.2,692.5 337.2,693 334.8,693 		"/>
		<rect x="341.4" y="692.5" class="st0" width="0.8" height="5.5"/>
		<polygon class="st0" points="348.7,694.9 352.2,694.9 352.2,695.5 348.7,695.5 348.7,698 347.9,698 347.9,692.5 352.3,692.5 
			352.3,693 348.7,693 		"/>
		<rect x="357" y="692.5" class="st0" width="0.8" height="5.5"/>
		<polygon class="st0" points="364.2,694.9 367.9,694.9 367.9,695.4 364.2,695.4 364.2,697.4 368,697.4 368,698 363.4,698 
			363.4,692.5 368,692.5 368,693 364.2,693 		"/>
		<path class="st0" d="M371.8,692.5h3.5c0.9,0,2.5,0.1,2.5,2.1v1.3c0,0.5-0.1,2.1-2.3,2.1h-3.7V692.5 M375.3,697.4
			c1.4,0,1.6-0.6,1.7-1.6v-1.4c0-0.3-0.1-1.3-1.5-1.3h-2.8v4.4H375.3z"/>
	</g>
</g>
<g>
	<g>
		<polygon class="st1" points="285.8,690.5 287.1,692.7 293,702 299.4,695.7 301.5,690.1 298.8,685.4 287.6,685.8 		"/>
		<path class="st0" d="M293.2,689.3c-0.5,0-1.2,0.5-1.4,1.2h2.8C294.6,689.8,293.7,689.3,293.2,689.3"/>
		<path class="st0" d="M282.9,685l2.9,5.5h4.3c0.1-0.5,0.9-2.7,3.1-2.7c2.5,0,3.2,2.4,3.2,3.5c0,0.4-0.1,0.9-0.2,1.2h-4.6
			c0.2,0.7,0.9,2.1,2.5,2.1s2.8-1.1,2.8-3.3c0-3.1-2.4-4.1-3.6-4.1c-1.2,0-2.8,0.9-3.4,2.7h-1.6c0.6-2.2,2.6-4.1,5-4.1
			c2.8,0,5,2.6,5,5.5c0,2.9-1.9,4.9-4.2,4.9c-2.9,0-4-2.8-4-3.7h-3.1l7.2,13.2l11.1-20.6H282.9 M294.1,698.3c-3.8,0-5.7-3.7-5.9-5.5
			h1.5c0.4,2,1.8,4,4.5,4c2.6,0,4.7-2.3,4.7-5h-0.4l1-0.7l1,0.7h-0.3C300.3,694.4,298,698.3,294.1,698.3"/>
	</g>
</g>
<path class="st2" d="M377.2,708.6h-93.5c-1.6,0-2.8-1.3-2.8-2.8v-21.1c0-1.6,1.3-2.8,2.8-2.8h93.5c1.6,0,2.8,1.3,2.8,2.8v21.1
	C380.1,707.4,378.8,708.6,377.2,708.6z"/>
</svg>
